<svg width="541" height="145" viewBox="0 0 541 145" fill="none" xmlns="http://www.w3.org/2000/svg">
<g filter="url(#filter0_d_122_870)">
<rect x="23" y="22.9023" width="495.559" height="99.5098" rx="19.902" fill="#141313"/>
<rect x="23.4975" y="23.3999" width="494.564" height="98.5147" rx="19.4044" stroke="#FFB400" stroke-width="0.995098"/>
<rect x="42.9014" y="50.7656" width="43.7843" height="43.7843" rx="21.8922" fill="#FFB400"/>
<path d="M51.2129 67.0488H53.5819L56.4145 72.1713H56.5276L59.3603 67.0488H61.7293L57.5171 74.3085V78.6282H55.4251V74.3085L51.2129 67.0488Z" fill="#FFFAEF"/>
<path d="M65.6517 78.6282L62.3837 67.0488H64.6396L66.726 75.558H66.8334L69.061 67.0488H71.1134L73.3468 75.5637H73.4485L75.5348 67.0488H77.7908L74.5228 78.6282H72.4534L70.1353 70.5034H70.0448L67.7211 78.6282H65.6517Z" fill="#FFFAEF"/>
<path d="M99.034 58.0789H100.64L103.851 63.4841H103.987L107.198 58.0789H108.804L104.62 64.8863V69.6582H103.218V64.8863L99.034 58.0789ZM112.736 69.8391C111.952 69.8391 111.265 69.6525 110.673 69.2794C110.085 68.9062 109.625 68.3842 109.293 67.7132C108.965 67.0423 108.801 66.2583 108.801 65.3612C108.801 64.4566 108.965 63.6669 109.293 62.9922C109.625 62.3175 110.085 61.7935 110.673 61.4204C111.265 61.0472 111.952 60.8606 112.736 60.8606C113.52 60.8606 114.206 61.0472 114.794 61.4204C115.386 61.7935 115.846 62.3175 116.174 62.9922C116.506 63.6669 116.672 64.4566 116.672 65.3612C116.672 66.2583 116.506 67.0423 116.174 67.7132C115.846 68.3842 115.386 68.9062 114.794 69.2794C114.206 69.6525 113.52 69.8391 112.736 69.8391ZM112.736 68.6405C113.332 68.6405 113.822 68.4878 114.206 68.1825C114.591 67.8772 114.876 67.4758 115.06 66.9782C115.245 66.4807 115.337 65.9417 115.337 65.3612C115.337 64.7807 115.245 64.2398 115.06 63.7385C114.876 63.2372 114.591 62.832 114.206 62.5229C113.822 62.2138 113.332 62.0593 112.736 62.0593C112.141 62.0593 111.651 62.2138 111.266 62.5229C110.882 62.832 110.597 63.2372 110.413 63.7385C110.228 64.2398 110.136 64.7807 110.136 65.3612C110.136 65.9417 110.228 66.4807 110.413 66.9782C110.597 67.4758 110.882 67.8772 111.266 68.1825C111.651 68.4878 112.141 68.6405 112.736 68.6405ZM124.181 66.1075V60.9737H125.516V69.6582H124.181V68.1882H124.091C123.887 68.6292 123.571 69.0042 123.141 69.3133C122.711 69.6186 122.169 69.7713 121.513 69.7713C120.97 69.7713 120.488 69.6525 120.065 69.4151C119.643 69.1738 119.312 68.812 119.07 68.3295C118.829 67.8433 118.708 67.2308 118.708 66.492V60.9737H120.043V66.4015C120.043 67.0348 120.22 67.5399 120.574 67.9168C120.932 68.2937 121.388 68.4822 121.942 68.4822C122.274 68.4822 122.612 68.3974 122.955 68.2277C123.301 68.0581 123.592 67.798 123.825 67.4475C124.063 67.097 124.181 66.6503 124.181 66.1075ZM127.96 69.6582V60.9737H129.249V62.2854H129.339C129.498 61.8557 129.784 61.5071 130.199 61.2394C130.613 60.9718 131.081 60.838 131.601 60.838C131.699 60.838 131.821 60.8399 131.968 60.8437C132.115 60.8474 132.227 60.8531 132.302 60.8606V62.2176C132.257 62.2063 132.153 62.1893 131.991 62.1667C131.833 62.1403 131.665 62.1271 131.488 62.1271C131.066 62.1271 130.689 62.2157 130.357 62.3929C130.029 62.5662 129.769 62.8075 129.577 63.1166C129.388 63.4219 129.294 63.7705 129.294 64.1625V69.6582H127.96ZM140.646 69.6582L137.48 58.0789H138.904L141.324 67.5097H141.437L143.903 58.0789H145.486L147.951 67.5097H148.064L150.484 58.0789H151.909L148.742 69.6582H147.295L144.739 60.4309H144.649L142.093 69.6582H140.646ZM156.307 69.8391C155.471 69.8391 154.749 69.6544 154.142 69.285C153.539 68.9119 153.073 68.3917 152.745 67.7245C152.421 67.0536 152.259 66.2734 152.259 65.3838C152.259 64.4942 152.421 63.7102 152.745 63.0318C153.073 62.3495 153.529 61.818 154.114 61.4373C154.702 61.0529 155.388 60.8606 156.172 60.8606C156.624 60.8606 157.071 60.936 157.512 61.0868C157.953 61.2376 158.354 61.4826 158.716 61.8218C159.078 62.1573 159.366 62.6021 159.581 63.1561C159.796 63.7102 159.903 64.3925 159.903 65.2029V65.7683H153.209V64.6149H158.546C158.546 64.1249 158.448 63.6876 158.252 63.3031C158.06 62.9187 157.785 62.6152 157.427 62.3929C157.072 62.1705 156.654 62.0593 156.172 62.0593C155.64 62.0593 155.18 62.1912 154.792 62.4551C154.408 62.7151 154.112 63.0544 153.904 63.4728C153.697 63.8912 153.593 64.3397 153.593 64.8184V65.5873C153.593 66.2432 153.706 66.7992 153.933 67.2553C154.163 67.7076 154.481 68.0525 154.888 68.2899C155.295 68.5236 155.768 68.6405 156.307 68.6405C156.658 68.6405 156.974 68.5915 157.257 68.4935C157.544 68.3917 157.791 68.2409 157.998 68.0412C158.205 67.8376 158.365 67.5851 158.478 67.2835L159.768 67.6454C159.632 68.0826 159.404 68.4671 159.083 68.7988C158.763 69.1267 158.367 69.383 157.896 69.5677C157.425 69.7487 156.895 69.8391 156.307 69.8391ZM162.114 69.6582V58.0789H163.448V62.3533H163.561C163.659 62.2025 163.795 62.0103 163.968 61.7766C164.146 61.5391 164.398 61.328 164.726 61.1433C165.058 60.9549 165.506 60.8606 166.072 60.8606C166.803 60.8606 167.448 61.0434 168.005 61.4091C168.563 61.7747 168.999 62.293 169.311 62.9639C169.624 63.6348 169.781 64.4264 169.781 65.3386C169.781 66.2583 169.624 67.0555 169.311 67.7302C168.999 68.4011 168.565 68.9213 168.011 69.2907C167.457 69.6563 166.818 69.8391 166.094 69.8391C165.536 69.8391 165.09 69.7468 164.754 69.5621C164.419 69.3736 164.161 69.1607 163.98 68.9232C163.799 68.682 163.659 68.4822 163.561 68.3239H163.403V69.6582H162.114ZM163.426 65.316C163.426 65.9718 163.522 66.5504 163.714 67.0517C163.906 67.5493 164.187 67.9394 164.556 68.2221C164.926 68.501 165.378 68.6405 165.913 68.6405C166.471 68.6405 166.937 68.4935 167.31 68.1995C167.687 67.9017 167.97 67.5022 168.158 67.0008C168.35 66.4958 168.446 65.9341 168.446 65.316C168.446 64.7053 168.352 64.155 168.164 63.665C167.979 63.1712 167.698 62.7811 167.321 62.4946C166.948 62.2044 166.479 62.0593 165.913 62.0593C165.371 62.0593 164.915 62.1969 164.545 62.472C164.176 62.7434 163.897 63.1241 163.708 63.6141C163.52 64.1004 163.426 64.6676 163.426 65.316ZM177.973 62.9187L176.775 63.2579C176.699 63.0581 176.588 62.864 176.441 62.6756C176.298 62.4833 176.102 62.325 175.853 62.2006C175.604 62.0762 175.286 62.014 174.898 62.014C174.366 62.014 173.923 62.1365 173.569 62.3815C173.218 62.6228 173.043 62.93 173.043 63.3031C173.043 63.6348 173.164 63.8968 173.405 64.089C173.646 64.2813 174.023 64.4415 174.536 64.5696L175.825 64.8863C176.601 65.0747 177.18 65.3631 177.561 65.7513C177.941 66.1358 178.132 66.6314 178.132 67.2383C178.132 67.7359 177.988 68.1806 177.702 68.5726C177.419 68.9646 177.023 69.2737 176.515 69.4999C176.006 69.7261 175.414 69.8391 174.739 69.8391C173.853 69.8391 173.12 69.6469 172.54 69.2624C171.959 68.878 171.592 68.3163 171.437 67.5775L172.704 67.2609C172.824 67.7283 173.052 68.0789 173.388 68.3126C173.727 68.5463 174.17 68.6631 174.717 68.6631C175.339 68.6631 175.832 68.5312 176.198 68.2673C176.567 67.9997 176.752 67.6793 176.752 67.3062C176.752 67.0046 176.646 66.7521 176.435 66.5485C176.224 66.3412 175.9 66.1867 175.463 66.0849L174.016 65.7457C173.22 65.5572 172.636 65.2651 172.263 64.8693C171.893 64.4697 171.709 63.9703 171.709 63.371C171.709 62.881 171.846 62.4475 172.121 62.0706C172.4 61.6936 172.779 61.3978 173.258 61.1829C173.74 60.9681 174.287 60.8606 174.898 60.8606C175.757 60.8606 176.432 61.0491 176.922 61.426C177.415 61.803 177.766 62.3005 177.973 62.9187ZM180.14 69.6582V60.9737H181.475V69.6582H180.14ZM180.819 59.5263C180.559 59.5263 180.334 59.4377 180.146 59.2606C179.961 59.0834 179.869 58.8704 179.869 58.6217C179.869 58.3729 179.961 58.1599 180.146 57.9828C180.334 57.8056 180.559 57.717 180.819 57.717C181.079 57.717 181.301 57.8056 181.486 57.9828C181.674 58.1599 181.769 58.3729 181.769 58.6217C181.769 58.8704 181.674 59.0834 181.486 59.2606C181.301 59.4377 181.079 59.5263 180.819 59.5263ZM187.695 60.9737V62.1045H183.195V60.9737H187.695ZM184.506 58.8931H185.841V67.1705C185.841 67.5474 185.895 67.8301 186.005 68.0186C186.118 68.2032 186.261 68.3276 186.434 68.3917C186.612 68.452 186.798 68.4822 186.994 68.4822C187.141 68.4822 187.262 68.4746 187.356 68.4596C187.45 68.4407 187.526 68.4256 187.582 68.4143L187.854 69.613C187.763 69.6469 187.637 69.6808 187.475 69.7147C187.313 69.7524 187.107 69.7713 186.859 69.7713C186.482 69.7713 186.112 69.6902 185.75 69.5282C185.392 69.3661 185.094 69.1192 184.857 68.7875C184.623 68.4558 184.506 68.0374 184.506 67.5323V58.8931ZM193.25 69.8391C192.414 69.8391 191.692 69.6544 191.085 69.285C190.482 68.9119 190.016 68.3917 189.688 67.7245C189.364 67.0536 189.202 66.2734 189.202 65.3838C189.202 64.4942 189.364 63.7102 189.688 63.0318C190.016 62.3495 190.472 61.818 191.057 61.4373C191.645 61.0529 192.331 60.8606 193.115 60.8606C193.567 60.8606 194.014 60.936 194.455 61.0868C194.896 61.2376 195.297 61.4826 195.659 61.8218C196.021 62.1573 196.309 62.6021 196.524 63.1561C196.739 63.7102 196.846 64.3925 196.846 65.2029V65.7683H190.152V64.6149H195.489C195.489 64.1249 195.391 63.6876 195.195 63.3031C195.003 62.9187 194.728 62.6152 194.37 62.3929C194.015 62.1705 193.597 62.0593 193.115 62.0593C192.583 62.0593 192.123 62.1912 191.735 62.4551C191.351 62.7151 191.055 63.0544 190.847 63.4728C190.64 63.8912 190.536 64.3397 190.536 64.8184V65.5873C190.536 66.2432 190.649 66.7992 190.876 67.2553C191.106 67.7076 191.424 68.0525 191.831 68.2899C192.238 68.5236 192.711 68.6405 193.25 68.6405C193.601 68.6405 193.917 68.5915 194.2 68.4935C194.487 68.3917 194.734 68.2409 194.941 68.0412C195.148 67.8376 195.308 67.5851 195.421 67.2835L196.711 67.6454C196.575 68.0826 196.347 68.4671 196.026 68.7988C195.706 69.1267 195.31 69.383 194.839 69.5677C194.368 69.7487 193.838 69.8391 193.25 69.8391Z" fill="white"/>
<path d="M101.019 86.6582L99.034 80.1448H100.086L101.494 85.1316H101.561L102.952 80.1448H104.021L105.395 85.1147H105.463L106.87 80.1448H107.922L105.938 86.6582H104.954L103.529 81.6544H103.427L102.002 86.6582H101.019ZM110.721 86.6582L108.736 80.1448H109.788L111.196 85.1316H111.264L112.654 80.1448H113.723L115.097 85.1147H115.165L116.573 80.1448H117.624L115.64 86.6582H114.656L113.231 81.6544H113.129L111.705 86.6582H110.721ZM120.423 86.6582L118.438 80.1448H119.49L120.898 85.1316H120.966L122.357 80.1448H123.425L124.799 85.1147H124.867L126.275 80.1448H127.326L125.342 86.6582H124.358L122.933 81.6544H122.832L121.407 86.6582H120.423ZM128.493 86.7261C128.283 86.7261 128.104 86.6511 127.954 86.5013C127.804 86.3515 127.729 86.172 127.729 85.9628C127.729 85.7536 127.804 85.5741 127.954 85.4242C128.104 85.2744 128.283 85.1995 128.493 85.1995C128.702 85.1995 128.881 85.2744 129.031 85.4242C129.181 85.5741 129.256 85.7536 129.256 85.9628C129.256 86.1013 129.221 86.2285 129.15 86.3444C129.082 86.4603 128.99 86.5536 128.874 86.6243C128.761 86.6921 128.634 86.7261 128.493 86.7261ZM131.696 89.1007C131.527 89.1007 131.375 89.0866 131.243 89.0583C131.11 89.0329 131.018 89.0074 130.967 88.982L131.221 88.1C131.464 88.1622 131.679 88.1848 131.866 88.1678C132.052 88.1509 132.218 88.0675 132.362 87.9176C132.509 87.7706 132.643 87.5317 132.765 87.201L132.951 86.6921L130.543 80.1448H131.628L133.426 85.3352H133.494L135.292 80.1448H136.378L133.613 87.6081C133.489 87.9445 133.335 88.2229 133.151 88.4434C132.967 88.6668 132.754 88.8322 132.51 88.9396C132.27 89.047 131.999 89.1007 131.696 89.1007ZM140.112 86.7939C139.524 86.7939 139.008 86.654 138.564 86.3741C138.123 86.0942 137.778 85.7027 137.529 85.1995C137.283 84.6963 137.16 84.1083 137.16 83.4354C137.16 82.757 137.283 82.1647 137.529 81.6587C137.778 81.1527 138.123 80.7597 138.564 80.4798C139.008 80.2 139.524 80.06 140.112 80.06C140.7 80.06 141.214 80.2 141.655 80.4798C142.099 80.7597 142.444 81.1527 142.69 81.6587C142.939 82.1647 143.063 82.757 143.063 83.4354C143.063 84.1083 142.939 84.6963 142.69 85.1995C142.444 85.7027 142.099 86.0942 141.655 86.3741C141.214 86.654 140.7 86.7939 140.112 86.7939ZM140.112 85.8949C140.558 85.8949 140.926 85.7804 141.214 85.5514C141.502 85.3225 141.716 85.0214 141.854 84.6482C141.993 84.2751 142.062 83.8708 142.062 83.4354C142.062 83.0001 141.993 82.5944 141.854 82.2184C141.716 81.8424 141.502 81.5385 141.214 81.3067C140.926 81.0749 140.558 80.959 140.112 80.959C139.665 80.959 139.297 81.0749 139.009 81.3067C138.721 81.5385 138.507 81.8424 138.369 82.2184C138.23 82.5944 138.161 83.0001 138.161 83.4354C138.161 83.8708 138.23 84.2751 138.369 84.6482C138.507 85.0214 138.721 85.3225 139.009 85.5514C139.297 85.7804 139.665 85.8949 140.112 85.8949ZM148.695 83.9952V80.1448H149.696V86.6582H148.695V85.5557H148.627C148.475 85.8864 148.237 86.1677 147.915 86.3995C147.593 86.6285 147.186 86.743 146.694 86.743C146.287 86.743 145.925 86.654 145.608 86.4759C145.292 86.2949 145.043 86.0235 144.862 85.6617C144.681 85.297 144.591 84.8376 144.591 84.2835V80.1448H145.591V84.2157C145.591 84.6906 145.724 85.0694 145.99 85.3521C146.258 85.6348 146.601 85.7762 147.016 85.7762C147.265 85.7762 147.518 85.7126 147.775 85.5854C148.035 85.4581 148.253 85.2631 148.428 85.0002C148.606 84.7373 148.695 84.4023 148.695 83.9952ZM151.529 86.6582V80.1448H152.496V81.1286H152.564C152.682 80.8063 152.897 80.5449 153.208 80.3441C153.519 80.1434 153.87 80.0431 154.26 80.0431C154.333 80.0431 154.425 80.0445 154.535 80.0473C154.646 80.0501 154.729 80.0544 154.786 80.06V81.0777C154.752 81.0693 154.674 81.0565 154.552 81.0396C154.434 81.0198 154.308 81.0099 154.175 81.0099C153.858 81.0099 153.576 81.0763 153.327 81.2092C153.081 81.3392 152.886 81.5202 152.742 81.752C152.6 81.981 152.53 82.2425 152.53 82.5365V86.6582H151.529ZM157.553 86.6582L155.568 80.1448H156.62L158.028 85.1316H158.095L159.486 80.1448H160.555L161.929 85.1147H161.997L163.404 80.1448H164.456L162.472 86.6582H161.488L160.063 81.6544H159.961L158.536 86.6582H157.553ZM168.288 86.7939C167.661 86.7939 167.119 86.6554 166.664 86.3783C166.212 86.0985 165.863 85.7083 165.617 85.208C165.374 84.7048 165.252 84.1196 165.252 83.4524C165.252 82.7852 165.374 82.1972 165.617 81.6884C165.863 81.1767 166.205 80.7781 166.643 80.4926C167.084 80.2042 167.599 80.06 168.187 80.06C168.526 80.06 168.861 80.1166 169.192 80.2296C169.522 80.3427 169.823 80.5265 170.095 80.7809C170.366 81.0325 170.583 81.3661 170.744 81.7817C170.905 82.1972 170.985 82.7089 170.985 83.3167V83.7408H165.965V82.8757H169.968C169.968 82.5082 169.894 82.1803 169.747 81.8919C169.603 81.6036 169.397 81.376 169.128 81.2092C168.862 81.0424 168.548 80.959 168.187 80.959C167.788 80.959 167.443 81.0579 167.152 81.2558C166.864 81.4509 166.642 81.7053 166.486 82.0191C166.331 82.3329 166.253 82.6693 166.253 83.0284V83.6051C166.253 84.097 166.338 84.5139 166.507 84.856C166.68 85.1952 166.919 85.4539 167.224 85.632C167.529 85.8073 167.884 85.8949 168.288 85.8949C168.551 85.8949 168.789 85.8582 169.001 85.7847C169.216 85.7083 169.401 85.5953 169.556 85.4454C169.712 85.2928 169.832 85.1034 169.917 84.8772L170.884 85.1486C170.782 85.4765 170.611 85.7649 170.37 86.0137C170.13 86.2596 169.833 86.4518 169.48 86.5904C169.127 86.7261 168.729 86.7939 168.288 86.7939ZM172.643 86.6582V77.9737H173.644V81.1795H173.729C173.802 81.0664 173.904 80.9223 174.034 80.747C174.167 80.5689 174.357 80.4106 174.602 80.272C174.851 80.1307 175.188 80.06 175.612 80.06C176.16 80.06 176.644 80.1971 177.062 80.4714C177.48 80.7456 177.807 81.1343 178.041 81.6375C178.276 82.1407 178.393 82.7344 178.393 83.4185C178.393 84.1083 178.276 84.7062 178.041 85.2122C177.807 85.7154 177.482 86.1055 177.066 86.3826C176.651 86.6568 176.171 86.7939 175.629 86.7939C175.21 86.7939 174.875 86.7246 174.624 86.5861C174.372 86.4448 174.178 86.285 174.043 86.1069C173.907 85.926 173.802 85.7762 173.729 85.6575H173.61V86.6582H172.643ZM173.627 83.4015C173.627 83.8934 173.699 84.3274 173.843 84.7033C173.988 85.0765 174.198 85.3691 174.475 85.5811C174.752 85.7903 175.092 85.8949 175.493 85.8949C175.911 85.8949 176.26 85.7847 176.54 85.5642C176.823 85.3408 177.035 85.0412 177.176 84.6652C177.321 84.2864 177.393 83.8651 177.393 83.4015C177.393 82.9435 177.322 82.5308 177.181 82.1633C177.042 81.793 176.832 81.5004 176.549 81.2855C176.269 81.0678 175.917 80.959 175.493 80.959C175.086 80.959 174.744 81.0622 174.467 81.2686C174.19 81.4721 173.981 81.7576 173.839 82.1251C173.698 82.4898 173.627 82.9153 173.627 83.4015ZM184.538 81.6036L183.639 81.858C183.582 81.7082 183.499 81.5626 183.389 81.4212C183.281 81.277 183.134 81.1583 182.948 81.065C182.761 80.9717 182.522 80.9251 182.231 80.9251C181.832 80.9251 181.5 81.017 181.235 81.2007C180.972 81.3816 180.84 81.612 180.84 81.8919C180.84 82.1407 180.931 82.3372 181.112 82.4813C181.293 82.6255 181.575 82.7457 181.96 82.8418L182.927 83.0792C183.509 83.2206 183.943 83.4369 184.228 83.728C184.514 84.0164 184.657 84.3881 184.657 84.8433C184.657 85.2164 184.549 85.55 184.334 85.844C184.122 86.138 183.826 86.3699 183.444 86.5395C183.062 86.7091 182.618 86.7939 182.112 86.7939C181.448 86.7939 180.898 86.6497 180.463 86.3614C180.027 86.073 179.752 85.6518 179.636 85.0977L180.586 84.8602C180.676 85.2108 180.847 85.4737 181.099 85.649C181.353 85.8242 181.685 85.9119 182.095 85.9119C182.562 85.9119 182.932 85.8129 183.206 85.615C183.483 85.4143 183.622 85.174 183.622 84.8942C183.622 84.668 183.543 84.4786 183.385 84.3259C183.226 84.1705 182.983 84.0546 182.655 83.9782L181.57 83.7238C180.973 83.5824 180.535 83.3634 180.255 83.0665C179.978 82.7669 179.839 82.3923 179.839 81.9428C179.839 81.5753 179.943 81.2502 180.149 80.9675C180.358 80.6848 180.642 80.4629 181.001 80.3017C181.363 80.1406 181.773 80.06 182.231 80.06C182.876 80.06 183.382 80.2014 183.749 80.4841C184.12 80.7668 184.382 81.1399 184.538 81.6036ZM186.163 86.6582V80.1448H187.164V86.6582H186.163ZM186.672 79.0593C186.477 79.0593 186.309 78.9928 186.167 78.86C186.029 78.7271 185.96 78.5674 185.96 78.3808C185.96 78.1942 186.029 78.0345 186.167 77.9016C186.309 77.7688 186.477 77.7023 186.672 77.7023C186.867 77.7023 187.034 77.7688 187.172 77.9016C187.314 78.0345 187.384 78.1942 187.384 78.3808C187.384 78.5674 187.314 78.7271 187.172 78.86C187.034 78.9928 186.867 79.0593 186.672 79.0593ZM191.829 80.1448V80.9929H188.454V80.1448H191.829ZM189.438 78.5843H190.439V84.7924C190.439 85.0751 190.48 85.2871 190.562 85.4285C190.646 85.567 190.754 85.6603 190.884 85.7083C191.017 85.7536 191.157 85.7762 191.304 85.7762C191.414 85.7762 191.504 85.7705 191.575 85.7592C191.646 85.7451 191.702 85.7338 191.745 85.7253L191.948 86.6243C191.88 86.6497 191.786 86.6752 191.664 86.7006C191.542 86.7289 191.388 86.743 191.202 86.743C190.919 86.743 190.642 86.6822 190.371 86.5607C190.102 86.4391 189.879 86.2539 189.701 86.0052C189.525 85.7564 189.438 85.4426 189.438 85.0638V78.5843ZM195.996 86.7939C195.368 86.7939 194.827 86.6554 194.372 86.3783C193.919 86.0985 193.57 85.7083 193.324 85.208C193.081 84.7048 192.959 84.1196 192.959 83.4524C192.959 82.7852 193.081 82.1972 193.324 81.6884C193.57 81.1767 193.912 80.7781 194.35 80.4926C194.791 80.2042 195.306 80.06 195.894 80.06C196.233 80.06 196.568 80.1166 196.899 80.2296C197.23 80.3427 197.531 80.5265 197.802 80.7809C198.074 81.0325 198.29 81.3661 198.451 81.7817C198.612 82.1972 198.693 82.7089 198.693 83.3167V83.7408H193.672V82.8757H197.675C197.675 82.5082 197.601 82.1803 197.454 81.8919C197.31 81.6036 197.104 81.376 196.835 81.2092C196.57 81.0424 196.256 80.959 195.894 80.959C195.495 80.959 195.15 81.0579 194.859 81.2558C194.571 81.4509 194.349 81.7053 194.193 82.0191C194.038 82.3329 193.96 82.6693 193.96 83.0284V83.6051C193.96 84.097 194.045 84.5139 194.215 84.856C194.387 85.1952 194.626 85.4539 194.931 85.632C195.237 85.8073 195.591 85.8949 195.996 85.8949C196.259 85.8949 196.496 85.8582 196.708 85.7847C196.923 85.7083 197.108 85.5953 197.264 85.4454C197.419 85.2928 197.539 85.1034 197.624 84.8772L198.591 85.1486C198.489 85.4765 198.318 85.7649 198.078 86.0137C197.837 86.2596 197.541 86.4518 197.187 86.5904C196.834 86.7261 196.437 86.7939 195.996 86.7939ZM200.944 86.7261C200.735 86.7261 200.556 86.6511 200.406 86.5013C200.256 86.3515 200.181 86.172 200.181 85.9628C200.181 85.7536 200.256 85.5741 200.406 85.4242C200.556 85.2744 200.735 85.1995 200.944 85.1995C201.153 85.1995 201.333 85.2744 201.483 85.4242C201.633 85.5741 201.708 85.7536 201.708 85.9628C201.708 86.1013 201.672 86.2285 201.602 86.3444C201.534 86.4603 201.442 86.5536 201.326 86.6243C201.213 86.6921 201.086 86.7261 200.944 86.7261ZM206.149 86.7939C205.539 86.7939 205.013 86.6497 204.572 86.3614C204.131 86.073 203.792 85.6758 203.554 85.1698C203.317 84.6638 203.198 84.0856 203.198 83.4354C203.198 82.7739 203.32 82.1902 203.563 81.6841C203.809 81.1753 204.151 80.7781 204.589 80.4926C205.03 80.2042 205.545 80.06 206.133 80.06C206.59 80.06 207.003 80.1448 207.371 80.3145C207.738 80.4841 208.039 80.7215 208.274 81.0269C208.509 81.3322 208.654 81.6884 208.711 82.0955H207.71C207.634 81.7986 207.464 81.5357 207.201 81.3067C206.941 81.0749 206.59 80.959 206.149 80.959C205.759 80.959 205.417 81.0608 205.123 81.2643C204.832 81.465 204.605 81.7491 204.441 82.1167C204.279 82.4813 204.199 82.9096 204.199 83.4015C204.199 83.9047 204.278 84.3429 204.436 84.7161C204.597 85.0892 204.824 85.379 205.115 85.5854C205.409 85.7917 205.754 85.8949 206.149 85.8949C206.41 85.8949 206.646 85.8497 206.858 85.7592C207.07 85.6688 207.249 85.5387 207.396 85.3691C207.543 85.1995 207.648 84.9959 207.71 84.7585H208.711C208.654 85.1429 208.514 85.4892 208.291 85.7974C208.07 86.1027 207.778 86.3458 207.413 86.5267C207.051 86.7048 206.63 86.7939 206.149 86.7939ZM212.82 86.7939C212.232 86.7939 211.716 86.654 211.272 86.3741C210.831 86.0942 210.486 85.7027 210.237 85.1995C209.991 84.6963 209.868 84.1083 209.868 83.4354C209.868 82.757 209.991 82.1647 210.237 81.6587C210.486 81.1527 210.831 80.7597 211.272 80.4798C211.716 80.2 212.232 80.06 212.82 80.06C213.408 80.06 213.922 80.2 214.363 80.4798C214.807 80.7597 215.152 81.1527 215.398 81.6587C215.647 82.1647 215.771 82.757 215.771 83.4354C215.771 84.1083 215.647 84.6963 215.398 85.1995C215.152 85.7027 214.807 86.0942 214.363 86.3741C213.922 86.654 213.408 86.7939 212.82 86.7939ZM212.82 85.8949C213.266 85.8949 213.634 85.7804 213.922 85.5514C214.211 85.3225 214.424 85.0214 214.563 84.6482C214.701 84.2751 214.77 83.8708 214.77 83.4354C214.77 83.0001 214.701 82.5944 214.563 82.2184C214.424 81.8424 214.211 81.5385 213.922 81.3067C213.634 81.0749 213.266 80.959 212.82 80.959C212.373 80.959 212.006 81.0749 211.717 81.3067C211.429 81.5385 211.215 81.8424 211.077 82.2184C210.938 82.5944 210.869 83.0001 210.869 83.4354C210.869 83.8708 210.938 84.2751 211.077 84.6482C211.215 85.0214 211.429 85.3225 211.717 85.5514C212.006 85.7804 212.373 85.8949 212.82 85.8949ZM217.299 86.6582V80.1448H218.266V81.1625H218.35C218.486 80.8148 218.705 80.5449 219.008 80.3526C219.31 80.1576 219.673 80.06 220.097 80.06C220.527 80.06 220.885 80.1576 221.17 80.3526C221.459 80.5449 221.683 80.8148 221.845 81.1625H221.912C222.079 80.8261 222.329 80.559 222.663 80.3611C222.997 80.1604 223.397 80.06 223.863 80.06C224.445 80.06 224.922 80.2424 225.292 80.607C225.662 80.9689 225.848 81.5329 225.848 82.299V86.6582H224.847V82.299C224.847 81.8184 224.715 81.4749 224.452 81.2686C224.19 81.0622 223.88 80.959 223.524 80.959C223.066 80.959 222.711 81.0975 222.459 81.3746C222.208 81.6488 222.082 81.9965 222.082 82.4177V86.6582H221.064V82.1972C221.064 81.8269 220.944 81.5286 220.704 81.3025C220.464 81.0735 220.154 80.959 219.775 80.959C219.515 80.959 219.272 81.0283 219.046 81.1668C218.822 81.3053 218.642 81.4975 218.503 81.7435C218.367 81.9866 218.3 82.2679 218.3 82.5873V86.6582H217.299Z" fill="#B1B1B1"/>
<g filter="url(#filter1_b_122_870)">
<rect x="356.779" y="56.0498" width="144" height="33.902" rx="16.951" fill="#008744" fill-opacity="0.11"/>
<rect x="357.279" y="56.5498" width="143" height="32.902" rx="16.451" stroke="#008744"/>
<path d="M375.103 72.0255C375.025 71.7875 374.923 71.5743 374.795 71.3859C374.671 71.1951 374.521 71.0325 374.347 70.8982C374.175 70.7639 373.979 70.6615 373.76 70.5908C373.541 70.5201 373.301 70.4848 373.039 70.4848C372.61 70.4848 372.221 70.5955 371.87 70.817C371.519 71.0384 371.239 71.3647 371.032 71.7958C370.825 72.2269 370.721 72.7558 370.721 73.3824C370.721 74.0091 370.826 74.538 371.036 74.9691C371.245 75.4002 371.529 75.7265 371.887 75.9479C372.245 76.1694 372.648 76.2801 373.096 76.2801C373.51 76.2801 373.876 76.1918 374.191 76.0151C374.509 75.836 374.757 75.584 374.933 75.2588C375.112 74.9314 375.202 74.5462 375.202 74.1033L375.47 74.1599H373.294V73.3824H376.05V74.1599C376.05 74.7559 375.923 75.2742 375.668 75.7147C375.416 76.1552 375.068 76.4968 374.622 76.7395C374.179 76.9798 373.671 77.0999 373.096 77.0999C372.455 77.0999 371.892 76.9491 371.407 76.6476C370.924 76.3461 370.547 75.9173 370.276 75.3613C370.007 74.8054 369.873 74.1457 369.873 73.3824C369.873 72.81 369.95 72.2952 370.103 71.8382C370.258 71.3788 370.477 70.9877 370.76 70.665C371.043 70.3423 371.377 70.0949 371.764 69.9229C372.15 69.7509 372.575 69.665 373.039 69.665C373.421 69.665 373.777 69.7227 374.106 69.8381C374.439 69.9512 374.734 70.1126 374.993 70.3222C375.255 70.5295 375.473 70.7781 375.647 71.0678C375.821 71.3553 375.942 71.6745 376.008 72.0255H375.103ZM379.643 77.1141C379.153 77.1141 378.723 76.9974 378.353 76.7642C377.986 76.531 377.698 76.2047 377.491 75.7854C377.286 75.366 377.183 74.876 377.183 74.3153C377.183 73.7499 377.286 73.2564 377.491 72.8347C377.698 72.413 377.986 72.0856 378.353 71.8523C378.723 71.6191 379.153 71.5025 379.643 71.5025C380.133 71.5025 380.562 71.6191 380.929 71.8523C381.299 72.0856 381.586 72.413 381.791 72.8347C381.999 73.2564 382.102 73.7499 382.102 74.3153C382.102 74.876 381.999 75.366 381.791 75.7854C381.586 76.2047 381.299 76.531 380.929 76.7642C380.562 76.9974 380.133 77.1141 379.643 77.1141ZM379.643 76.3649C380.015 76.3649 380.321 76.2695 380.562 76.0787C380.802 75.8879 380.98 75.637 381.095 75.326C381.211 75.015 381.268 74.6781 381.268 74.3153C381.268 73.9525 381.211 73.6145 381.095 73.3012C380.98 72.9878 380.802 72.7346 380.562 72.5414C380.321 72.3482 380.015 72.2516 379.643 72.2516C379.271 72.2516 378.964 72.3482 378.724 72.5414C378.484 72.7346 378.306 72.9878 378.19 73.3012C378.075 73.6145 378.017 73.9525 378.017 74.3153C378.017 74.6781 378.075 75.015 378.19 75.326C378.306 75.637 378.484 75.8879 378.724 76.0787C378.964 76.2695 379.271 76.3649 379.643 76.3649ZM385.58 77.1141C385.09 77.1141 384.66 76.9974 384.291 76.7642C383.923 76.531 383.636 76.2047 383.428 75.7854C383.223 75.366 383.121 74.876 383.121 74.3153C383.121 73.7499 383.223 73.2564 383.428 72.8347C383.636 72.413 383.923 72.0856 384.291 71.8523C384.66 71.6191 385.09 71.5025 385.58 71.5025C386.07 71.5025 386.499 71.6191 386.867 71.8523C387.237 72.0856 387.524 72.413 387.729 72.8347C387.936 73.2564 388.04 73.7499 388.04 74.3153C388.04 74.876 387.936 75.366 387.729 75.7854C387.524 76.2047 387.237 76.531 386.867 76.7642C386.499 76.9974 386.07 77.1141 385.58 77.1141ZM385.58 76.3649C385.953 76.3649 386.259 76.2695 386.499 76.0787C386.739 75.8879 386.917 75.637 387.033 75.326C387.148 75.015 387.206 74.6781 387.206 74.3153C387.206 73.9525 387.148 73.6145 387.033 73.3012C386.917 72.9878 386.739 72.7346 386.499 72.5414C386.259 72.3482 385.953 72.2516 385.58 72.2516C385.208 72.2516 384.902 72.3482 384.662 72.5414C384.421 72.7346 384.243 72.9878 384.128 73.3012C384.013 73.6145 383.955 73.9525 383.955 74.3153C383.955 74.6781 384.013 75.015 384.128 75.326C384.243 75.637 384.421 75.8879 384.662 76.0787C384.902 76.2695 385.208 76.3649 385.58 76.3649ZM391.504 79.1495C391.101 79.1495 390.755 79.0977 390.465 78.994C390.175 78.8927 389.934 78.7584 389.74 78.5912C389.55 78.4262 389.398 78.2496 389.285 78.0611L389.949 77.5946C390.024 77.6936 390.12 77.8067 390.235 77.9339C390.351 78.0635 390.508 78.1754 390.709 78.2696C390.911 78.3662 391.176 78.4145 391.504 78.4145C391.942 78.4145 392.304 78.3085 392.589 78.0964C392.874 77.8844 393.016 77.5522 393.016 77.0999V75.9974H392.946C392.884 76.0963 392.797 76.2188 392.684 76.3649C392.573 76.5086 392.413 76.637 392.203 76.7501C391.996 76.8608 391.716 76.9162 391.362 76.9162C390.924 76.9162 390.531 76.8125 390.182 76.6052C389.836 76.3979 389.561 76.0963 389.359 75.7006C389.159 75.3048 389.058 74.8242 389.058 74.2588C389.058 73.7028 389.156 73.2187 389.352 72.8064C389.547 72.3918 389.819 72.0714 390.168 71.8453C390.517 71.6168 390.92 71.5025 391.377 71.5025C391.73 71.5025 392.01 71.5614 392.218 71.6792C392.427 71.7946 392.587 71.9265 392.698 72.075C392.811 72.221 392.898 72.3412 392.96 72.4354H393.045V71.5732H393.85V77.1565C393.85 77.6229 393.744 78.0022 393.532 78.2943C393.322 78.5888 393.04 78.8044 392.684 78.941C392.331 79.08 391.937 79.1495 391.504 79.1495ZM391.476 76.167C391.81 76.167 392.093 76.0905 392.324 75.9373C392.554 75.7842 392.73 75.5639 392.85 75.2765C392.97 74.9891 393.03 74.6452 393.03 74.2447C393.03 73.8536 392.971 73.5085 392.854 73.2093C392.736 72.9101 392.562 72.6757 392.331 72.5061C392.1 72.3365 391.815 72.2516 391.476 72.2516C391.122 72.2516 390.828 72.3412 390.592 72.5202C390.359 72.6993 390.183 72.9395 390.066 73.2411C389.95 73.5426 389.892 73.8772 389.892 74.2447C389.892 74.6216 389.951 74.9549 390.069 75.2447C390.189 75.5321 390.366 75.7583 390.599 75.9232C390.835 76.0857 391.127 76.167 391.476 76.167ZM396.211 69.7639V77.001H395.377V69.7639H396.211ZM400.014 77.1141C399.491 77.1141 399.04 76.9986 398.66 76.7678C398.284 76.5345 397.993 76.2094 397.788 75.7924C397.585 75.3731 397.484 74.8855 397.484 74.3295C397.484 73.7735 397.585 73.2835 397.788 72.8594C397.993 72.433 398.278 72.1009 398.643 71.8629C399.01 71.6226 399.439 71.5025 399.929 71.5025C400.212 71.5025 400.491 71.5496 400.767 71.6438C401.042 71.7381 401.293 71.8912 401.519 72.1032C401.745 72.3129 401.926 72.5909 402.06 72.9372C402.194 73.2835 402.261 73.7099 402.261 74.2164V74.5698H398.077V73.8489H401.413C401.413 73.5426 401.352 73.2694 401.23 73.0291C401.109 72.7888 400.937 72.5991 400.714 72.4601C400.492 72.3211 400.231 72.2516 399.929 72.2516C399.597 72.2516 399.31 72.3341 399.067 72.499C398.827 72.6616 398.642 72.8736 398.512 73.1351C398.382 73.3966 398.318 73.6769 398.318 73.9761V74.4567C398.318 74.8666 398.388 75.2141 398.53 75.4991C398.673 75.7818 398.873 75.9974 399.127 76.1458C399.381 76.2919 399.677 76.3649 400.014 76.3649C400.233 76.3649 400.431 76.3343 400.608 76.273C400.787 76.2094 400.941 76.1152 401.07 75.9903C401.2 75.8631 401.3 75.7053 401.371 75.5168L402.177 75.743C402.092 76.0162 401.949 76.2565 401.749 76.4638C401.549 76.6688 401.301 76.829 401.007 76.9444C400.712 77.0575 400.381 77.1141 400.014 77.1141ZM406.442 77.001V69.7639H408.887C409.452 69.7639 409.917 69.8605 410.279 70.0537C410.642 70.2445 410.911 70.5072 411.085 70.8417C411.259 71.1762 411.347 71.5567 411.347 71.9831C411.347 72.4095 411.259 72.7876 411.085 73.1174C410.911 73.4472 410.643 73.7064 410.283 73.8948C409.922 74.0809 409.462 74.174 408.901 74.174H406.922V73.3824H408.873C409.259 73.3824 409.57 73.3259 409.806 73.2128C410.044 73.0997 410.216 72.9395 410.322 72.7322C410.43 72.5226 410.484 72.2728 410.484 71.9831C410.484 71.6933 410.43 71.4401 410.322 71.2233C410.213 71.0066 410.04 70.8393 409.802 70.7215C409.564 70.6014 409.25 70.5413 408.859 70.5413H407.318V77.001H406.442ZM409.848 73.7499L411.629 77.001H410.612L408.859 73.7499H409.848ZM414.911 77.1141C414.388 77.1141 413.937 76.9986 413.558 76.7678C413.181 76.5345 412.89 76.2094 412.685 75.7924C412.482 75.3731 412.381 74.8855 412.381 74.3295C412.381 73.7735 412.482 73.2835 412.685 72.8594C412.89 72.433 413.175 72.1009 413.54 71.8629C413.908 71.6226 414.336 71.5025 414.826 71.5025C415.109 71.5025 415.388 71.5496 415.664 71.6438C415.94 71.7381 416.19 71.8912 416.417 72.1032C416.643 72.3129 416.823 72.5909 416.957 72.9372C417.092 73.2835 417.159 73.7099 417.159 74.2164V74.5698H412.975V73.8489H416.311C416.311 73.5426 416.249 73.2694 416.127 73.0291C416.007 72.7888 415.835 72.5991 415.611 72.4601C415.389 72.3211 415.128 72.2516 414.826 72.2516C414.494 72.2516 414.207 72.3341 413.964 72.499C413.724 72.6616 413.539 72.8736 413.409 73.1351C413.28 73.3966 413.215 73.6769 413.215 73.9761V74.4567C413.215 74.8666 413.286 75.2141 413.427 75.4991C413.571 75.7818 413.77 75.9974 414.024 76.1458C414.279 76.2919 414.574 76.3649 414.911 76.3649C415.13 76.3649 415.328 76.3343 415.505 76.273C415.684 76.2094 415.838 76.1152 415.968 75.9903C416.097 75.8631 416.197 75.7053 416.268 75.5168L417.074 75.743C416.989 76.0162 416.847 76.2565 416.646 76.4638C416.446 76.6688 416.199 76.829 415.904 76.9444C415.61 77.0575 415.279 77.1141 414.911 77.1141ZM420.632 77.1141C420.123 77.1141 419.685 76.9939 419.318 76.7536C418.95 76.5133 418.668 76.1823 418.47 75.7606C418.272 75.3389 418.173 74.8572 418.173 74.3153C418.173 73.7641 418.274 73.2776 418.477 72.8559C418.682 72.4319 418.967 72.1009 419.332 71.8629C419.699 71.6226 420.128 71.5025 420.618 71.5025C421 71.5025 421.344 71.5732 421.65 71.7145C421.956 71.8559 422.207 72.0538 422.403 72.3082C422.598 72.5626 422.72 72.8594 422.767 73.1987H421.933C421.869 72.9513 421.728 72.7322 421.509 72.5414C421.292 72.3482 421 72.2516 420.632 72.2516C420.307 72.2516 420.022 72.3365 419.777 72.5061C419.535 72.6733 419.345 72.9101 419.208 73.2164C419.074 73.5203 419.007 73.8772 419.007 74.2871C419.007 74.7064 419.073 75.0716 419.205 75.3825C419.339 75.6935 419.527 75.935 419.77 76.1069C420.015 76.2789 420.303 76.3649 420.632 76.3649C420.849 76.3649 421.046 76.3272 421.222 76.2518C421.399 76.1764 421.549 76.0681 421.671 75.9267C421.794 75.7854 421.881 75.6158 421.933 75.4179H422.767C422.72 75.7383 422.603 76.0268 422.417 76.2836C422.233 76.5381 421.989 76.7407 421.685 76.8914C421.384 77.0398 421.033 77.1141 420.632 77.1141ZM426.191 77.1141C425.701 77.1141 425.271 76.9974 424.901 76.7642C424.534 76.531 424.246 76.2047 424.039 75.7854C423.834 75.366 423.731 74.876 423.731 74.3153C423.731 73.7499 423.834 73.2564 424.039 72.8347C424.246 72.413 424.534 72.0856 424.901 71.8523C425.271 71.6191 425.701 71.5025 426.191 71.5025C426.681 71.5025 427.11 71.6191 427.477 71.8523C427.847 72.0856 428.134 72.413 428.339 72.8347C428.547 73.2564 428.65 73.7499 428.65 74.3153C428.65 74.876 428.547 75.366 428.339 75.7854C428.134 76.2047 427.847 76.531 427.477 76.7642C427.11 76.9974 426.681 77.1141 426.191 77.1141ZM426.191 76.3649C426.563 76.3649 426.869 76.2695 427.11 76.0787C427.35 75.8879 427.528 75.637 427.643 75.326C427.759 75.015 427.816 74.6781 427.816 74.3153C427.816 73.9525 427.759 73.6145 427.643 73.3012C427.528 72.9878 427.35 72.7346 427.11 72.5414C426.869 72.3482 426.563 72.2516 426.191 72.2516C425.819 72.2516 425.512 72.3482 425.272 72.5414C425.032 72.7346 424.854 72.9878 424.739 73.3012C424.623 73.6145 424.565 73.9525 424.565 74.3153C424.565 74.6781 424.623 75.015 424.739 75.326C424.854 75.637 425.032 75.8879 425.272 76.0787C425.512 76.2695 425.819 76.3649 426.191 76.3649ZM429.923 77.001V71.5732H430.729V72.4213H430.8C430.913 72.1315 431.095 71.9065 431.347 71.7463C431.6 71.5838 431.902 71.5025 432.256 71.5025C432.614 71.5025 432.912 71.5838 433.15 71.7463C433.39 71.9065 433.577 72.1315 433.712 72.4213H433.768C433.907 72.1409 434.116 71.9183 434.394 71.7534C434.672 71.5861 435.005 71.5025 435.394 71.5025C435.879 71.5025 436.276 71.6544 436.584 71.9583C436.893 72.2599 437.047 72.7299 437.047 73.3683V77.001H436.213V73.3683C436.213 72.9678 436.104 72.6816 435.885 72.5096C435.666 72.3376 435.408 72.2516 435.111 72.2516C434.729 72.2516 434.434 72.3671 434.224 72.598C434.014 72.8265 433.909 73.1162 433.909 73.4672V77.001H433.061V73.2835C433.061 72.9749 432.961 72.7263 432.761 72.5379C432.561 72.3471 432.303 72.2516 431.987 72.2516C431.77 72.2516 431.568 72.3094 431.379 72.4248C431.193 72.5402 431.042 72.7004 430.927 72.9054C430.814 73.108 430.757 73.3424 430.757 73.6086V77.001H429.923ZM438.572 77.001V71.5732H439.378V72.4213H439.449C439.562 72.1315 439.744 71.9065 439.996 71.7463C440.248 71.5838 440.551 71.5025 440.904 71.5025C441.263 71.5025 441.561 71.5838 441.798 71.7463C442.039 71.9065 442.226 72.1315 442.36 72.4213H442.417C442.556 72.1409 442.764 71.9183 443.042 71.7534C443.32 71.5861 443.654 71.5025 444.042 71.5025C444.528 71.5025 444.925 71.6544 445.233 71.9583C445.542 72.2599 445.696 72.7299 445.696 73.3683V77.001H444.862V73.3683C444.862 72.9678 444.753 72.6816 444.534 72.5096C444.314 72.3376 444.057 72.2516 443.76 72.2516C443.378 72.2516 443.082 72.3671 442.873 72.598C442.663 72.8265 442.558 73.1162 442.558 73.4672V77.001H441.71V73.2835C441.71 72.9749 441.61 72.7263 441.41 72.5379C441.21 72.3471 440.952 72.2516 440.636 72.2516C440.419 72.2516 440.217 72.3094 440.028 72.4248C439.842 72.5402 439.691 72.7004 439.576 72.9054C439.463 73.108 439.406 73.3424 439.406 73.6086V77.001H438.572ZM449.497 77.1141C448.974 77.1141 448.523 76.9986 448.143 76.7678C447.766 76.5345 447.475 76.2094 447.27 75.7924C447.068 75.3731 446.967 74.8855 446.967 74.3295C446.967 73.7735 447.068 73.2835 447.27 72.8594C447.475 72.433 447.76 72.1009 448.126 71.8629C448.493 71.6226 448.922 71.5025 449.412 71.5025C449.695 71.5025 449.974 71.5496 450.249 71.6438C450.525 71.7381 450.776 71.8912 451.002 72.1032C451.228 72.3129 451.408 72.5909 451.543 72.9372C451.677 73.2835 451.744 73.7099 451.744 74.2164V74.5698H447.56V73.8489H450.896C450.896 73.5426 450.835 73.2694 450.712 73.0291C450.592 72.7888 450.42 72.5991 450.196 72.4601C449.975 72.3211 449.713 72.2516 449.412 72.2516C449.08 72.2516 448.792 72.3341 448.55 72.499C448.309 72.6616 448.124 72.8736 447.995 73.1351C447.865 73.3966 447.801 73.6769 447.801 73.9761V74.4567C447.801 74.8666 447.871 75.2141 448.013 75.4991C448.156 75.7818 448.355 75.9974 448.61 76.1458C448.864 76.2919 449.16 76.3649 449.497 76.3649C449.716 76.3649 449.914 76.3343 450.09 76.273C450.269 76.2094 450.424 76.1152 450.553 75.9903C450.683 75.8631 450.783 75.7053 450.854 75.5168L451.659 75.743C451.575 76.0162 451.432 76.2565 451.232 76.4638C451.032 76.6688 450.784 76.829 450.49 76.9444C450.195 77.0575 449.864 77.1141 449.497 77.1141ZM453.847 73.7358V77.001H453.013V71.5732H453.818V72.4213H453.889C454.016 72.1456 454.21 71.9242 454.469 71.7569C454.728 71.5873 455.062 71.5025 455.472 71.5025C455.84 71.5025 456.161 71.5779 456.437 71.7287C456.713 71.8771 456.927 72.1032 457.08 72.4071C457.233 72.7087 457.31 73.0903 457.31 73.5521V77.001H456.476V73.6086C456.476 73.1822 456.365 72.85 456.144 72.6121C455.922 72.3718 455.618 72.2516 455.232 72.2516C454.966 72.2516 454.728 72.3094 454.518 72.4248C454.311 72.5402 454.147 72.7087 454.027 72.9301C453.907 73.1516 453.847 73.4201 453.847 73.7358ZM460.883 77.1141C460.431 77.1141 460.032 76.9998 459.685 76.7713C459.339 76.5404 459.068 76.2153 458.873 75.796C458.677 75.3743 458.579 74.876 458.579 74.3012C458.579 73.7311 458.677 73.2364 458.873 72.817C459.068 72.3977 459.34 72.0738 459.689 71.8453C460.038 71.6168 460.44 71.5025 460.897 71.5025C461.251 71.5025 461.53 71.5614 461.735 71.6792C461.942 71.7946 462.1 71.9265 462.208 72.075C462.319 72.221 462.405 72.3412 462.466 72.4354H462.537V69.7639H463.371V77.001H462.565V76.167H462.466C462.405 76.266 462.318 76.3908 462.205 76.5416C462.092 76.69 461.93 76.8231 461.721 76.9409C461.511 77.0563 461.232 77.1141 460.883 77.1141ZM460.996 76.3649C461.331 76.3649 461.614 76.2777 461.844 76.1034C462.075 75.9267 462.251 75.6829 462.371 75.3719C462.491 75.0586 462.551 74.697 462.551 74.2871C462.551 73.8819 462.492 73.5273 462.374 73.2234C462.257 72.9172 462.082 72.6792 461.852 72.5096C461.621 72.3376 461.336 72.2516 460.996 72.2516C460.643 72.2516 460.348 72.3423 460.113 72.5237C459.88 72.7028 459.704 72.9466 459.586 73.2552C459.471 73.5615 459.413 73.9054 459.413 74.2871C459.413 74.6734 459.472 75.0244 459.59 75.3401C459.71 75.6534 459.887 75.9032 460.12 76.0893C460.356 76.273 460.648 76.3649 460.996 76.3649ZM466.611 77.1282C466.267 77.1282 465.955 77.0634 465.675 76.9338C465.395 76.8019 465.172 76.6123 465.007 76.3649C464.842 76.1152 464.76 75.8136 464.76 75.4603C464.76 75.1493 464.821 74.8972 464.944 74.7041C465.066 74.5085 465.23 74.3554 465.435 74.2447C465.64 74.1339 465.866 74.0515 466.113 73.9973C466.363 73.9408 466.614 73.896 466.866 73.863C467.196 73.8206 467.463 73.7888 467.668 73.7676C467.875 73.7441 468.026 73.7052 468.12 73.651C468.217 73.5968 468.265 73.5026 468.265 73.3683V73.34C468.265 72.9914 468.17 72.7205 467.979 72.5273C467.791 72.3341 467.504 72.2375 467.12 72.2375C466.722 72.2375 466.41 72.3247 466.184 72.499C465.958 72.6733 465.799 72.8594 465.707 73.0573L464.915 72.7746C465.057 72.4448 465.245 72.188 465.481 72.0043C465.719 71.8182 465.978 71.6886 466.258 71.6156C466.541 71.5402 466.819 71.5025 467.092 71.5025C467.266 71.5025 467.467 71.5237 467.693 71.5661C467.921 71.6062 468.142 71.6898 468.354 71.817C468.568 71.9442 468.746 72.1362 468.887 72.393C469.029 72.6498 469.099 72.9937 469.099 73.4248V77.001H468.265V76.266H468.223C468.166 76.3838 468.072 76.5098 467.94 76.6441C467.808 76.7784 467.633 76.8926 467.414 76.9868C467.195 77.0811 466.927 77.1282 466.611 77.1282ZM466.739 76.379C467.068 76.379 467.346 76.3143 467.573 76.1847C467.801 76.0551 467.973 75.8879 468.089 75.6829C468.206 75.4779 468.265 75.2624 468.265 75.0362V74.2729C468.23 74.3153 468.152 74.3542 468.032 74.3896C467.914 74.4225 467.778 74.452 467.622 74.4779C467.469 74.5015 467.319 74.5227 467.173 74.5415C467.03 74.558 466.913 74.5721 466.823 74.5839C466.607 74.6122 466.404 74.6581 466.216 74.7217C466.03 74.783 465.879 74.876 465.763 75.0009C465.65 75.1234 465.594 75.2907 465.594 75.5027C465.594 75.7924 465.701 76.0115 465.915 76.1599C466.132 76.306 466.406 76.379 466.739 76.379ZM472.982 71.5732V72.2799H470.169V71.5732H472.982ZM470.989 70.2728H471.823V75.4461C471.823 75.6817 471.857 75.8584 471.925 75.9762C471.996 76.0916 472.085 76.1694 472.194 76.2094C472.305 76.2471 472.421 76.266 472.544 76.266C472.636 76.266 472.711 76.2612 472.77 76.2518C472.829 76.24 472.876 76.2306 472.911 76.2236L473.081 76.9727C473.024 76.9939 472.945 77.0151 472.844 77.0363C472.743 77.0599 472.614 77.0717 472.459 77.0717C472.223 77.0717 471.992 77.021 471.766 76.9197C471.542 76.8184 471.356 76.6641 471.208 76.4568C471.062 76.2495 470.989 75.988 470.989 75.6723V70.2728ZM474.236 77.001V71.5732H475.07V77.001H474.236ZM474.66 70.6685C474.498 70.6685 474.358 70.6132 474.24 70.5024C474.124 70.3917 474.067 70.2586 474.067 70.1031C474.067 69.9477 474.124 69.8146 474.24 69.7038C474.358 69.5931 474.498 69.5377 474.66 69.5377C474.823 69.5377 474.962 69.5931 475.077 69.7038C475.195 69.8146 475.254 69.9477 475.254 70.1031C475.254 70.2586 475.195 70.3917 475.077 70.5024C474.962 70.6132 474.823 70.6685 474.66 70.6685ZM478.803 77.1141C478.313 77.1141 477.883 76.9974 477.513 76.7642C477.145 76.531 476.858 76.2047 476.651 75.7854C476.446 75.366 476.343 74.876 476.343 74.3153C476.343 73.7499 476.446 73.2564 476.651 72.8347C476.858 72.413 477.145 72.0856 477.513 71.8523C477.883 71.6191 478.313 71.5025 478.803 71.5025C479.293 71.5025 479.722 71.6191 480.089 71.8523C480.459 72.0856 480.746 72.413 480.951 72.8347C481.159 73.2564 481.262 73.7499 481.262 74.3153C481.262 74.876 481.159 75.366 480.951 75.7854C480.746 76.2047 480.459 76.531 480.089 76.7642C479.722 76.9974 479.293 77.1141 478.803 77.1141ZM478.803 76.3649C479.175 76.3649 479.481 76.2695 479.722 76.0787C479.962 75.8879 480.14 75.637 480.255 75.326C480.371 75.015 480.428 74.6781 480.428 74.3153C480.428 73.9525 480.371 73.6145 480.255 73.3012C480.14 72.9878 479.962 72.7346 479.722 72.5414C479.481 72.3482 479.175 72.2516 478.803 72.2516C478.431 72.2516 478.124 72.3482 477.884 72.5414C477.644 72.7346 477.466 72.9878 477.35 73.3012C477.235 73.6145 477.177 73.9525 477.177 74.3153C477.177 74.6781 477.235 75.015 477.35 75.326C477.466 75.637 477.644 75.8879 477.884 76.0787C478.124 76.2695 478.431 76.3649 478.803 76.3649ZM483.369 73.7358V77.001H482.535V71.5732H483.341V72.4213H483.412C483.539 72.1456 483.732 71.9242 483.991 71.7569C484.25 71.5873 484.585 71.5025 484.995 71.5025C485.362 71.5025 485.684 71.5779 485.959 71.7287C486.235 71.8771 486.449 72.1032 486.603 72.4071C486.756 72.7087 486.832 73.0903 486.832 73.5521V77.001H485.998V73.6086C485.998 73.1822 485.888 72.85 485.666 72.6121C485.445 72.3718 485.141 72.2516 484.754 72.2516C484.488 72.2516 484.25 72.3094 484.041 72.4248C483.833 72.5402 483.67 72.7087 483.549 72.9301C483.429 73.1516 483.369 73.4201 483.369 73.7358Z" fill="white"/>
</g>
</g>
<defs>
<filter id="filter0_d_122_870" x="0.919607" y="0.821951" width="539.72" height="143.671" filterUnits="userSpaceOnUse" color-interpolation-filters="sRGB">
<feFlood flood-opacity="0" result="BackgroundImageFix"/>
<feColorMatrix in="SourceAlpha" type="matrix" values="0 0 0 0 0 0 0 0 0 0 0 0 0 0 0 0 0 0 127 0" result="hardAlpha"/>
<feMorphology radius="3.98039" operator="dilate" in="SourceAlpha" result="effect1_dropShadow_122_870"/>
<feOffset/>
<feGaussianBlur stdDeviation="9.05"/>
<feComposite in2="hardAlpha" operator="out"/>
<feColorMatrix type="matrix" values="0 0 0 0 1 0 0 0 0 0.800245 0 0 0 0 0.320833 0 0 0 0.15 0"/>
<feBlend mode="normal" in2="BackgroundImageFix" result="effect1_dropShadow_122_870"/>
<feBlend mode="normal" in="SourceGraphic" in2="effect1_dropShadow_122_870" result="shape"/>
</filter>
<filter id="filter1_b_122_870" x="339.979" y="39.2498" width="177.6" height="67.5023" filterUnits="userSpaceOnUse" color-interpolation-filters="sRGB">
<feFlood flood-opacity="0" result="BackgroundImageFix"/>
<feGaussianBlur in="BackgroundImageFix" stdDeviation="8.4"/>
<feComposite in2="SourceAlpha" operator="in" result="effect1_backgroundBlur_122_870"/>
<feBlend mode="normal" in="SourceGraphic" in2="effect1_backgroundBlur_122_870" result="shape"/>
</filter>
</defs>
</svg>
