<svg width="588" height="372" viewBox="0 0 588 372" fill="none" xmlns="http://www.w3.org/2000/svg">
<rect x="0.5" y="0.5" width="587" height="371" rx="19.5" fill="#2E2E2E" fill-opacity="0.64"/>
<rect x="0.5" y="0.5" width="587" height="371" rx="19.5" stroke="#545454"/>
<g filter="url(#filter0_i_82_1271)">
<path d="M44 269C44 262.373 49.3726 257 56 257H100C106.627 257 112 262.373 112 269V372H44V269Z" fill="url(#paint0_linear_82_1271)"/>
<path d="M44.5 269C44.5 262.649 49.6487 257.5 56 257.5H100C106.351 257.5 111.5 262.649 111.5 269V371.5H44.5V269Z" stroke="url(#paint1_linear_82_1271)"/>
</g>
<g filter="url(#filter1_ii_82_1271)">
<path d="M152 213C152 206.373 157.373 201 164 201H208C214.627 201 220 206.373 220 213V372H152V213Z" fill="url(#paint2_linear_82_1271)"/>
<path d="M152.5 213C152.5 206.649 157.649 201.5 164 201.5H208C214.351 201.5 219.5 206.649 219.5 213V371.5H152.5V213Z" stroke="url(#paint3_linear_82_1271)"/>
</g>
<g filter="url(#filter2_i_82_1271)">
<path d="M260 182C260 175.373 265.373 170 272 170H316C322.627 170 328 175.373 328 182V372H260V182Z" fill="url(#paint4_linear_82_1271)"/>
<path d="M260.5 182C260.5 175.649 265.649 170.5 272 170.5H316C322.351 170.5 327.5 175.649 327.5 182V371.5H260.5V182Z" stroke="url(#paint5_linear_82_1271)"/>
</g>
<g filter="url(#filter3_i_82_1271)">
<path d="M368 148C368 141.373 373.373 136 380 136H424C430.627 136 436 141.373 436 148V372H368V148Z" fill="url(#paint6_linear_82_1271)"/>
<path d="M368.5 148C368.5 141.649 373.649 136.5 380 136.5H424C430.351 136.5 435.5 141.649 435.5 148V371.5H368.5V148Z" stroke="url(#paint7_linear_82_1271)"/>
</g>
<g filter="url(#filter4_i_82_1271)">
<path d="M476 105C476 98.3726 481.373 93 488 93H532C538.627 93 544 98.3726 544 105V372H476V105Z" fill="url(#paint8_linear_82_1271)"/>
<path d="M476.5 105C476.5 98.6487 481.649 93.5 488 93.5H532C538.351 93.5 543.5 98.6487 543.5 105V371.5H476.5V105Z" stroke="url(#paint9_linear_82_1271)"/>
</g>
<path d="M93 178.5L93.1358 177.006L92.243 176.925L91.7487 177.673L93 178.5ZM153.5 184L153.364 185.494L153.854 185.538L154.275 185.284L153.5 184ZM206.5 152V150.5H206.082L205.725 150.716L206.5 152ZM281 152V153.5H281.695L282.145 152.97L281 152ZM317 109.5L317.093 108.003L316.342 107.956L315.855 108.53L317 109.5ZM397.5 114.5L397.407 115.997L398 116.034L398.457 115.655L397.5 114.5ZM541.384 28.5783C541.703 27.8139 541.343 26.9354 540.578 26.616L528.122 21.4112C527.358 21.0918 526.479 21.4525 526.16 22.2169C525.84 22.9813 526.201 23.8599 526.965 24.1793L538.038 28.8057L533.411 39.878C533.092 40.6424 533.453 41.521 534.217 41.8404C534.981 42.1598 535.86 41.799 536.179 41.0346L541.384 28.5783ZM464.5 59L463.93 57.6124L463.719 57.6992L463.543 57.8448L464.5 59ZM55.2513 238.327L94.2513 179.327L91.7487 177.673L52.7487 236.673L55.2513 238.327ZM92.8642 179.994L153.364 185.494L153.636 182.506L93.1358 177.006L92.8642 179.994ZM154.275 185.284L207.275 153.284L205.725 150.716L152.725 182.716L154.275 185.284ZM206.5 153.5H281V150.5H206.5V153.5ZM282.145 152.97L318.145 110.47L315.855 108.53L279.855 151.03L282.145 152.97ZM316.907 110.997L397.407 115.997L397.593 113.003L317.093 108.003L316.907 110.997ZM398.457 115.655L465.457 60.1552L463.543 57.8448L396.543 113.345L398.457 115.655ZM465.07 60.3876L540.57 29.3876L539.43 26.6124L463.93 57.6124L465.07 60.3876Z" fill="#FFB400"/>
<rect x="83.5" y="169.5" width="23" height="23" rx="11.5" fill="#242424"/>
<rect x="83.5" y="169.5" width="23" height="23" rx="11.5" stroke="#FFB400" stroke-width="3"/>
<circle cx="95" cy="181" r="5" fill="#FFB400"/>
<rect x="192.5" y="140.5" width="23" height="23" rx="11.5" fill="#242424"/>
<rect x="192.5" y="140.5" width="23" height="23" rx="11.5" stroke="#FFB400" stroke-width="3"/>
<circle cx="204" cy="152" r="5" fill="#FFB400"/>
<rect x="308.5" y="99.5" width="23" height="23" rx="11.5" fill="#242424"/>
<rect x="308.5" y="99.5" width="23" height="23" rx="11.5" stroke="#FFB400" stroke-width="3"/>
<circle cx="320" cy="111" r="5" fill="#FFB400"/>
<rect x="450.5" y="49.5" width="23" height="23" rx="11.5" fill="#242424"/>
<rect x="450.5" y="49.5" width="23" height="23" rx="11.5" stroke="#FFB400" stroke-width="3"/>
<circle cx="462" cy="61" r="5" fill="#FFB400"/>
<path d="M153.5 116C153.5 106.335 161.335 98.5 171 98.5H236C245.665 98.5 253.5 106.335 253.5 116C253.5 125.665 245.665 133.5 236 133.5H171C161.335 133.5 153.5 125.665 153.5 116Z" fill="#FFB400"/>
<path d="M153.5 116C153.5 106.335 161.335 98.5 171 98.5H236C245.665 98.5 253.5 106.335 253.5 116C253.5 125.665 245.665 133.5 236 133.5H171C161.335 133.5 153.5 125.665 153.5 116Z" stroke="#FAF9F7" stroke-width="3"/>
<path d="M189.584 120V112.428H186.548V111.6H193.544V112.428H190.508V120H189.584ZM193.908 120V113.988H194.796V114.84C194.98 114.528 195.212 114.288 195.492 114.12C195.78 113.944 196.108 113.856 196.476 113.856C196.684 113.856 196.872 113.884 197.04 113.94V114.756C196.936 114.716 196.832 114.688 196.728 114.672C196.624 114.656 196.52 114.648 196.416 114.648C196.048 114.648 195.724 114.756 195.444 114.972C195.172 115.18 194.956 115.484 194.796 115.884V120H193.908ZM199.648 120.108C199.208 120.108 198.82 120.032 198.484 119.88C198.156 119.728 197.896 119.516 197.704 119.244C197.52 118.972 197.428 118.656 197.428 118.296C197.428 117.728 197.644 117.28 198.076 116.952C198.508 116.624 199.092 116.46 199.828 116.46C200.476 116.46 201.064 116.596 201.592 116.868V116.076C201.592 115.596 201.456 115.236 201.184 114.996C200.912 114.748 200.516 114.624 199.996 114.624C199.7 114.624 199.4 114.668 199.096 114.756C198.8 114.836 198.472 114.968 198.112 115.152L197.776 114.468C198.208 114.26 198.608 114.108 198.976 114.012C199.344 113.916 199.712 113.868 200.08 113.868C200.84 113.868 201.424 114.048 201.832 114.408C202.248 114.768 202.456 115.284 202.456 115.956V120H201.592V119.412C201.32 119.644 201.02 119.82 200.692 119.94C200.372 120.052 200.024 120.108 199.648 120.108ZM198.28 118.272C198.28 118.608 198.42 118.884 198.7 119.1C198.988 119.308 199.356 119.412 199.804 119.412C200.164 119.412 200.492 119.356 200.788 119.244C201.084 119.132 201.352 118.956 201.592 118.716V117.588C201.344 117.42 201.08 117.3 200.8 117.228C200.52 117.148 200.204 117.108 199.852 117.108C199.372 117.108 198.988 117.216 198.7 117.432C198.42 117.64 198.28 117.92 198.28 118.272ZM204.628 120V114.744H203.212V113.988H204.628V112.848C204.628 112.256 204.788 111.804 205.108 111.492C205.428 111.18 205.888 111.024 206.488 111.024C206.648 111.024 206.792 111.032 206.92 111.048C207.048 111.064 207.172 111.092 207.292 111.132V111.924C207.156 111.884 207.032 111.856 206.92 111.84C206.808 111.816 206.684 111.804 206.548 111.804C206.196 111.804 205.932 111.892 205.756 112.068C205.588 112.236 205.504 112.504 205.504 112.872V113.988H207.292V114.744H205.504V120H204.628ZM209.233 120V114.744H207.817V113.988H209.233V112.848C209.233 112.256 209.393 111.804 209.713 111.492C210.033 111.18 210.493 111.024 211.093 111.024C211.253 111.024 211.397 111.032 211.525 111.048C211.653 111.064 211.777 111.092 211.897 111.132V111.924C211.761 111.884 211.637 111.856 211.525 111.84C211.413 111.816 211.289 111.804 211.153 111.804C210.801 111.804 210.537 111.892 210.361 112.068C210.193 112.236 210.109 112.504 210.109 112.872V113.988H211.897V114.744H210.109V120H209.233ZM212.858 120V113.988H213.746V120H212.858ZM213.302 112.836C213.142 112.836 213.002 112.776 212.882 112.656C212.762 112.536 212.702 112.396 212.702 112.236C212.702 112.068 212.762 111.928 212.882 111.816C213.002 111.696 213.142 111.636 213.302 111.636C213.47 111.636 213.61 111.696 213.722 111.816C213.842 111.928 213.902 112.068 213.902 112.236C213.902 112.396 213.842 112.536 213.722 112.656C213.61 112.776 213.47 112.836 213.302 112.836ZM218.044 120.108C217.476 120.108 216.96 119.972 216.496 119.7C216.032 119.42 215.664 119.044 215.392 118.572C215.12 118.1 214.984 117.572 214.984 116.988C214.984 116.404 215.12 115.88 215.392 115.416C215.664 114.944 216.032 114.568 216.496 114.288C216.96 114.008 217.476 113.868 218.044 113.868C218.484 113.868 218.908 113.952 219.316 114.12C219.724 114.28 220.084 114.512 220.396 114.816L219.832 115.464C219.592 115.208 219.316 115.016 219.004 114.888C218.7 114.752 218.384 114.684 218.056 114.684C217.648 114.684 217.276 114.788 216.94 114.996C216.612 115.196 216.348 115.472 216.148 115.824C215.956 116.168 215.86 116.556 215.86 116.988C215.86 117.42 215.956 117.812 216.148 118.164C216.348 118.516 216.616 118.796 216.952 119.004C217.288 119.204 217.66 119.304 218.068 119.304C218.396 119.304 218.704 119.24 218.992 119.112C219.288 118.984 219.564 118.796 219.82 118.548L220.372 119.148C220.052 119.452 219.692 119.688 219.292 119.856C218.892 120.024 218.476 120.108 218.044 120.108Z" fill="#793A0E"/>
<path d="M360.5 42C360.5 32.335 368.335 24.5 378 24.5H443C452.665 24.5 460.5 32.335 460.5 42C460.5 51.665 452.665 59.5 443 59.5H378C368.335 59.5 360.5 51.665 360.5 42Z" fill="#FFB400"/>
<path d="M360.5 42C360.5 32.335 368.335 24.5 378 24.5H443C452.665 24.5 460.5 32.335 460.5 42C460.5 51.665 452.665 59.5 443 59.5H378C368.335 59.5 360.5 51.665 360.5 42Z" stroke="#FAF9F7" stroke-width="3"/>
<path d="M385.302 46.132C384.694 46.132 384.126 46.024 383.598 45.808C383.07 45.584 382.606 45.276 382.206 44.884C381.806 44.484 381.494 44.024 381.27 43.504C381.054 42.976 380.946 42.408 380.946 41.8C380.946 41.192 381.054 40.628 381.27 40.108C381.494 39.58 381.806 39.12 382.206 38.728C382.606 38.328 383.07 38.02 383.598 37.804C384.126 37.58 384.694 37.468 385.302 37.468C385.742 37.468 386.162 37.524 386.562 37.636C386.97 37.74 387.346 37.896 387.69 38.104C388.042 38.304 388.354 38.552 388.626 38.848L388.014 39.496C387.686 39.12 387.282 38.832 386.802 38.632C386.322 38.424 385.822 38.32 385.302 38.32C384.814 38.32 384.362 38.408 383.946 38.584C383.53 38.76 383.166 39.008 382.854 39.328C382.55 39.64 382.31 40.008 382.134 40.432C381.966 40.848 381.882 41.304 381.882 41.8C381.882 42.288 381.966 42.744 382.134 43.168C382.31 43.592 382.554 43.964 382.866 44.284C383.178 44.596 383.542 44.84 383.958 45.016C384.382 45.192 384.838 45.28 385.326 45.28C385.846 45.28 386.342 45.18 386.814 44.98C387.286 44.772 387.682 44.488 388.002 44.128L388.602 44.752C388.322 45.04 388.006 45.288 387.654 45.496C387.31 45.704 386.938 45.864 386.538 45.976C386.138 46.08 385.726 46.132 385.302 46.132ZM392.454 46.12C391.886 46.12 391.366 45.984 390.894 45.712C390.43 45.432 390.062 45.056 389.79 44.584C389.518 44.112 389.382 43.584 389.382 43C389.382 42.416 389.518 41.888 389.79 41.416C390.062 40.944 390.43 40.572 390.894 40.3C391.366 40.02 391.886 39.88 392.454 39.88C393.03 39.88 393.55 40.02 394.014 40.3C394.478 40.572 394.846 40.944 395.118 41.416C395.39 41.888 395.526 42.416 395.526 43C395.526 43.584 395.39 44.112 395.118 44.584C394.846 45.056 394.478 45.432 394.014 45.712C393.55 45.984 393.03 46.12 392.454 46.12ZM392.454 45.328C392.862 45.328 393.23 45.224 393.558 45.016C393.894 44.808 394.158 44.528 394.35 44.176C394.55 43.824 394.65 43.432 394.65 43C394.65 42.56 394.55 42.168 394.35 41.824C394.158 41.472 393.894 41.192 393.558 40.984C393.23 40.776 392.862 40.672 392.454 40.672C392.046 40.672 391.674 40.776 391.338 40.984C391.01 41.192 390.746 41.472 390.546 41.824C390.354 42.168 390.258 42.56 390.258 43C390.258 43.432 390.354 43.824 390.546 44.176C390.746 44.528 391.01 44.808 391.338 45.016C391.674 45.224 392.046 45.328 392.454 45.328ZM396.76 46V39.988H397.648V40.696C398.12 40.144 398.752 39.868 399.544 39.868C400 39.868 400.4 39.968 400.744 40.168C401.096 40.36 401.368 40.632 401.56 40.984C401.76 41.328 401.86 41.732 401.86 42.196V46H400.984V42.376C400.984 41.84 400.832 41.42 400.528 41.116C400.232 40.804 399.824 40.648 399.304 40.648C398.944 40.648 398.624 40.728 398.344 40.888C398.064 41.048 397.832 41.276 397.648 41.572V46H396.76ZM404.961 46L402.357 39.988H403.341L405.393 44.848L407.445 39.988H408.393L405.801 46H404.961ZM411.849 46.108C411.273 46.108 410.749 45.972 410.277 45.7C409.813 45.42 409.441 45.044 409.161 44.572C408.889 44.1 408.753 43.572 408.753 42.988C408.753 42.412 408.885 41.892 409.149 41.428C409.413 40.956 409.769 40.584 410.217 40.312C410.665 40.032 411.165 39.892 411.717 39.892C412.253 39.892 412.733 40.032 413.157 40.312C413.589 40.584 413.929 40.956 414.177 41.428C414.433 41.892 414.561 42.412 414.561 42.988V43.264H409.629C409.677 43.656 409.801 44.008 410.001 44.32C410.209 44.632 410.477 44.88 410.805 45.064C411.133 45.24 411.493 45.328 411.885 45.328C412.197 45.328 412.501 45.28 412.797 45.184C413.093 45.088 413.341 44.952 413.541 44.776L414.093 45.364C413.757 45.612 413.405 45.8 413.037 45.928C412.677 46.048 412.281 46.108 411.849 46.108ZM409.653 42.556H413.673C413.625 42.196 413.505 41.876 413.313 41.596C413.129 41.308 412.897 41.084 412.617 40.924C412.337 40.756 412.029 40.672 411.693 40.672C411.349 40.672 411.033 40.752 410.745 40.912C410.457 41.072 410.217 41.296 410.025 41.584C409.833 41.864 409.709 42.188 409.653 42.556ZM415.803 46V39.988H416.691V40.84C416.875 40.528 417.107 40.288 417.387 40.12C417.675 39.944 418.003 39.856 418.371 39.856C418.579 39.856 418.767 39.884 418.935 39.94V40.756C418.831 40.716 418.727 40.688 418.623 40.672C418.519 40.656 418.415 40.648 418.311 40.648C417.943 40.648 417.619 40.756 417.339 40.972C417.067 41.18 416.851 41.484 416.691 41.884V46H415.803ZM421.813 46.12C421.317 46.12 420.849 46.04 420.409 45.88C419.977 45.712 419.601 45.48 419.281 45.184L419.821 44.608C420.101 44.864 420.409 45.064 420.745 45.208C421.081 45.344 421.425 45.412 421.777 45.412C422.257 45.412 422.649 45.312 422.953 45.112C423.257 44.912 423.409 44.652 423.409 44.332C423.409 44.068 423.317 43.864 423.133 43.72C422.957 43.568 422.677 43.464 422.293 43.408L421.249 43.264C420.649 43.176 420.201 42.996 419.905 42.724C419.617 42.452 419.473 42.084 419.473 41.62C419.473 41.284 419.569 40.984 419.761 40.72C419.953 40.456 420.217 40.248 420.553 40.096C420.897 39.944 421.289 39.868 421.729 39.868C422.169 39.868 422.581 39.932 422.965 40.06C423.349 40.188 423.725 40.388 424.093 40.66L423.625 41.26C423.289 41.028 422.961 40.86 422.641 40.756C422.329 40.644 422.009 40.588 421.681 40.588C421.265 40.588 420.929 40.68 420.673 40.864C420.417 41.048 420.289 41.288 420.289 41.584C420.289 41.856 420.377 42.064 420.553 42.208C420.729 42.344 421.013 42.44 421.405 42.496L422.449 42.64C423.049 42.72 423.497 42.896 423.793 43.168C424.097 43.44 424.249 43.812 424.249 44.284C424.249 44.628 424.141 44.94 423.925 45.22C423.709 45.5 423.417 45.72 423.049 45.88C422.689 46.04 422.277 46.12 421.813 46.12ZM425.248 46V39.988H426.136V46H425.248ZM425.692 38.836C425.532 38.836 425.392 38.776 425.272 38.656C425.152 38.536 425.092 38.396 425.092 38.236C425.092 38.068 425.152 37.928 425.272 37.816C425.392 37.696 425.532 37.636 425.692 37.636C425.86 37.636 426 37.696 426.112 37.816C426.232 37.928 426.292 38.068 426.292 38.236C426.292 38.396 426.232 38.536 426.112 38.656C426 38.776 425.86 38.836 425.692 38.836ZM430.447 46.12C429.879 46.12 429.359 45.984 428.887 45.712C428.423 45.432 428.055 45.056 427.783 44.584C427.511 44.112 427.375 43.584 427.375 43C427.375 42.416 427.511 41.888 427.783 41.416C428.055 40.944 428.423 40.572 428.887 40.3C429.359 40.02 429.879 39.88 430.447 39.88C431.023 39.88 431.543 40.02 432.007 40.3C432.471 40.572 432.839 40.944 433.111 41.416C433.383 41.888 433.519 42.416 433.519 43C433.519 43.584 433.383 44.112 433.111 44.584C432.839 45.056 432.471 45.432 432.007 45.712C431.543 45.984 431.023 46.12 430.447 46.12ZM430.447 45.328C430.855 45.328 431.223 45.224 431.551 45.016C431.887 44.808 432.151 44.528 432.343 44.176C432.543 43.824 432.643 43.432 432.643 43C432.643 42.56 432.543 42.168 432.343 41.824C432.151 41.472 431.887 41.192 431.551 40.984C431.223 40.776 430.855 40.672 430.447 40.672C430.039 40.672 429.667 40.776 429.331 40.984C429.003 41.192 428.739 41.472 428.539 41.824C428.347 42.168 428.251 42.56 428.251 43C428.251 43.432 428.347 43.824 428.539 44.176C428.739 44.528 429.003 44.808 429.331 45.016C429.667 45.224 430.039 45.328 430.447 45.328ZM434.752 46V39.988H435.64V40.696C436.112 40.144 436.744 39.868 437.536 39.868C437.992 39.868 438.392 39.968 438.736 40.168C439.088 40.36 439.36 40.632 439.552 40.984C439.752 41.328 439.852 41.732 439.852 42.196V46H438.976V42.376C438.976 41.84 438.824 41.42 438.52 41.116C438.224 40.804 437.816 40.648 437.296 40.648C436.936 40.648 436.616 40.728 436.336 40.888C436.056 41.048 435.824 41.276 435.64 41.572V46H434.752Z" fill="#793A0E"/>
<defs>
<filter id="filter0_i_82_1271" x="44" y="257" width="70" height="119" filterUnits="userSpaceOnUse" color-interpolation-filters="sRGB">
<feFlood flood-opacity="0" result="BackgroundImageFix"/>
<feBlend mode="normal" in="SourceGraphic" in2="BackgroundImageFix" result="shape"/>
<feColorMatrix in="SourceAlpha" type="matrix" values="0 0 0 0 0 0 0 0 0 0 0 0 0 0 0 0 0 0 127 0" result="hardAlpha"/>
<feOffset dx="2" dy="4"/>
<feGaussianBlur stdDeviation="3.45"/>
<feComposite in2="hardAlpha" operator="arithmetic" k2="-1" k3="1"/>
<feColorMatrix type="matrix" values="0 0 0 0 0.441667 0 0 0 0 0.441667 0 0 0 0 0.441667 0 0 0 0.13 0"/>
<feBlend mode="normal" in2="shape" result="effect1_innerShadow_82_1271"/>
</filter>
<filter id="filter1_ii_82_1271" x="152" y="201" width="70" height="175" filterUnits="userSpaceOnUse" color-interpolation-filters="sRGB">
<feFlood flood-opacity="0" result="BackgroundImageFix"/>
<feBlend mode="normal" in="SourceGraphic" in2="BackgroundImageFix" result="shape"/>
<feColorMatrix in="SourceAlpha" type="matrix" values="0 0 0 0 0 0 0 0 0 0 0 0 0 0 0 0 0 0 127 0" result="hardAlpha"/>
<feOffset dx="2" dy="4"/>
<feGaussianBlur stdDeviation="3.45"/>
<feComposite in2="hardAlpha" operator="arithmetic" k2="-1" k3="1"/>
<feColorMatrix type="matrix" values="0 0 0 0 0.441667 0 0 0 0 0.441667 0 0 0 0 0.441667 0 0 0 0.13 0"/>
<feBlend mode="normal" in2="shape" result="effect1_innerShadow_82_1271"/>
<feColorMatrix in="SourceAlpha" type="matrix" values="0 0 0 0 0 0 0 0 0 0 0 0 0 0 0 0 0 0 127 0" result="hardAlpha"/>
<feOffset dx="2" dy="4"/>
<feGaussianBlur stdDeviation="3.45"/>
<feComposite in2="hardAlpha" operator="arithmetic" k2="-1" k3="1"/>
<feColorMatrix type="matrix" values="0 0 0 0 0.441667 0 0 0 0 0.441667 0 0 0 0 0.441667 0 0 0 0.13 0"/>
<feBlend mode="normal" in2="effect1_innerShadow_82_1271" result="effect2_innerShadow_82_1271"/>
</filter>
<filter id="filter2_i_82_1271" x="260" y="170" width="70" height="206" filterUnits="userSpaceOnUse" color-interpolation-filters="sRGB">
<feFlood flood-opacity="0" result="BackgroundImageFix"/>
<feBlend mode="normal" in="SourceGraphic" in2="BackgroundImageFix" result="shape"/>
<feColorMatrix in="SourceAlpha" type="matrix" values="0 0 0 0 0 0 0 0 0 0 0 0 0 0 0 0 0 0 127 0" result="hardAlpha"/>
<feOffset dx="2" dy="4"/>
<feGaussianBlur stdDeviation="3.45"/>
<feComposite in2="hardAlpha" operator="arithmetic" k2="-1" k3="1"/>
<feColorMatrix type="matrix" values="0 0 0 0 0.441667 0 0 0 0 0.441667 0 0 0 0 0.441667 0 0 0 0.13 0"/>
<feBlend mode="normal" in2="shape" result="effect1_innerShadow_82_1271"/>
</filter>
<filter id="filter3_i_82_1271" x="368" y="136" width="70" height="240" filterUnits="userSpaceOnUse" color-interpolation-filters="sRGB">
<feFlood flood-opacity="0" result="BackgroundImageFix"/>
<feBlend mode="normal" in="SourceGraphic" in2="BackgroundImageFix" result="shape"/>
<feColorMatrix in="SourceAlpha" type="matrix" values="0 0 0 0 0 0 0 0 0 0 0 0 0 0 0 0 0 0 127 0" result="hardAlpha"/>
<feOffset dx="2" dy="4"/>
<feGaussianBlur stdDeviation="3.45"/>
<feComposite in2="hardAlpha" operator="arithmetic" k2="-1" k3="1"/>
<feColorMatrix type="matrix" values="0 0 0 0 0.441667 0 0 0 0 0.441667 0 0 0 0 0.441667 0 0 0 0.13 0"/>
<feBlend mode="normal" in2="shape" result="effect1_innerShadow_82_1271"/>
</filter>
<filter id="filter4_i_82_1271" x="476" y="93" width="70" height="283" filterUnits="userSpaceOnUse" color-interpolation-filters="sRGB">
<feFlood flood-opacity="0" result="BackgroundImageFix"/>
<feBlend mode="normal" in="SourceGraphic" in2="BackgroundImageFix" result="shape"/>
<feColorMatrix in="SourceAlpha" type="matrix" values="0 0 0 0 0 0 0 0 0 0 0 0 0 0 0 0 0 0 127 0" result="hardAlpha"/>
<feOffset dx="2" dy="4"/>
<feGaussianBlur stdDeviation="3.45"/>
<feComposite in2="hardAlpha" operator="arithmetic" k2="-1" k3="1"/>
<feColorMatrix type="matrix" values="0 0 0 0 0.441667 0 0 0 0 0.441667 0 0 0 0 0.441667 0 0 0 0.13 0"/>
<feBlend mode="normal" in2="shape" result="effect1_innerShadow_82_1271"/>
</filter>
<linearGradient id="paint0_linear_82_1271" x1="78" y1="257" x2="78" y2="372" gradientUnits="userSpaceOnUse">
<stop stop-color="#363535"/>
<stop offset="1" stop-color="#363535" stop-opacity="0"/>
</linearGradient>
<linearGradient id="paint1_linear_82_1271" x1="78" y1="257" x2="78" y2="372" gradientUnits="userSpaceOnUse">
<stop stop-color="#504F4F"/>
<stop offset="1" stop-color="#504F4F" stop-opacity="0"/>
</linearGradient>
<linearGradient id="paint2_linear_82_1271" x1="186" y1="201" x2="186" y2="372" gradientUnits="userSpaceOnUse">
<stop stop-color="#363535"/>
<stop offset="1" stop-color="#363535" stop-opacity="0"/>
</linearGradient>
<linearGradient id="paint3_linear_82_1271" x1="186" y1="201" x2="186" y2="372" gradientUnits="userSpaceOnUse">
<stop stop-color="#504F4F"/>
<stop offset="1" stop-color="#504F4F" stop-opacity="0"/>
</linearGradient>
<linearGradient id="paint4_linear_82_1271" x1="294" y1="170" x2="294" y2="372" gradientUnits="userSpaceOnUse">
<stop stop-color="#363535"/>
<stop offset="1" stop-color="#363535" stop-opacity="0"/>
</linearGradient>
<linearGradient id="paint5_linear_82_1271" x1="294" y1="170" x2="294" y2="372" gradientUnits="userSpaceOnUse">
<stop stop-color="#504F4F"/>
<stop offset="1" stop-color="#504F4F" stop-opacity="0"/>
</linearGradient>
<linearGradient id="paint6_linear_82_1271" x1="402" y1="136" x2="402" y2="372" gradientUnits="userSpaceOnUse">
<stop stop-color="#363535"/>
<stop offset="1" stop-color="#363535" stop-opacity="0"/>
</linearGradient>
<linearGradient id="paint7_linear_82_1271" x1="402" y1="136" x2="402" y2="372" gradientUnits="userSpaceOnUse">
<stop stop-color="#504F4F"/>
<stop offset="1" stop-color="#504F4F" stop-opacity="0"/>
</linearGradient>
<linearGradient id="paint8_linear_82_1271" x1="510" y1="93" x2="510" y2="372" gradientUnits="userSpaceOnUse">
<stop stop-color="#363535"/>
<stop offset="1" stop-color="#363535" stop-opacity="0"/>
</linearGradient>
<linearGradient id="paint9_linear_82_1271" x1="510" y1="93" x2="510" y2="372" gradientUnits="userSpaceOnUse">
<stop stop-color="#504F4F"/>
<stop offset="1" stop-color="#504F4F" stop-opacity="0"/>
</linearGradient>
</defs>
</svg>
