<svg width="481" height="233" viewBox="0 0 481 233" fill="none" xmlns="http://www.w3.org/2000/svg">
<path d="M0 221C8.55653 221 29.4754 180.992 43.5811 151.842C49.9278 138.727 68.1856 136.969 76.6456 148.831L102.772 185.466C109.973 195.563 124.799 196.062 132.662 186.471L185.237 122.351C191.763 114.392 203.471 113.148 211.524 119.558L249.564 149.839C255.726 154.744 264.291 155.295 271.031 151.22L307.521 129.161C314.568 124.901 323.566 125.714 329.735 131.17L359.324 157.337C368.205 165.191 382.047 162.982 388.042 152.753L461.04 28.1975C462.129 26.339 465.346 24 467.5 24V24" stroke="#FFB400" stroke-width="4" stroke-linejoin="round"/>
<circle cx="119" cy="194" r="14.9153" fill="white" stroke="#FFB400" stroke-width="6.16949"/>
<circle cx="315" cy="133" r="14.9153" fill="white" stroke="#FFB400" stroke-width="6.16949"/>
<circle cx="463" cy="19" r="14.9153" fill="white" stroke="#FFB400" stroke-width="6.16949"/>
<path d="M134.5 195.5H258.5C268.441 195.5 276.5 203.559 276.5 213.5C276.5 223.441 268.441 231.5 258.5 231.5H153C142.783 231.5 134.5 223.217 134.5 213V195.5Z" fill="#FFB400"/>
<path d="M134.5 195.5H258.5C268.441 195.5 276.5 203.559 276.5 213.5C276.5 223.441 268.441 231.5 258.5 231.5H153C142.783 231.5 134.5 223.217 134.5 213V195.5Z" stroke="#FAF9F7" stroke-width="3"/>
<path d="M171.891 218.154C171.182 218.154 170.519 218.028 169.903 217.776C169.287 217.515 168.746 217.155 168.279 216.698C167.813 216.231 167.449 215.695 167.187 215.088C166.935 214.472 166.809 213.809 166.809 213.1C166.809 212.391 166.935 211.733 167.187 211.126C167.449 210.51 167.813 209.973 168.279 209.516C168.746 209.049 169.287 208.69 169.903 208.438C170.519 208.177 171.182 208.046 171.891 208.046C172.405 208.046 172.895 208.111 173.361 208.242C173.837 208.363 174.276 208.545 174.677 208.788C175.088 209.021 175.452 209.311 175.769 209.656L175.055 210.412C174.673 209.973 174.201 209.637 173.641 209.404C173.081 209.161 172.498 209.04 171.891 209.04C171.322 209.04 170.795 209.143 170.309 209.348C169.824 209.553 169.399 209.843 169.035 210.216C168.681 210.58 168.401 211.009 168.195 211.504C167.999 211.989 167.901 212.521 167.901 213.1C167.901 213.669 167.999 214.201 168.195 214.696C168.401 215.191 168.685 215.625 169.049 215.998C169.413 216.362 169.838 216.647 170.323 216.852C170.818 217.057 171.35 217.16 171.919 217.16C172.526 217.16 173.105 217.043 173.655 216.81C174.206 216.567 174.668 216.236 175.041 215.816L175.741 216.544C175.415 216.88 175.046 217.169 174.635 217.412C174.234 217.655 173.8 217.841 173.333 217.972C172.867 218.093 172.386 218.154 171.891 218.154ZM180.236 218.14C179.573 218.14 178.966 217.981 178.416 217.664C177.874 217.337 177.445 216.899 177.128 216.348C176.81 215.797 176.652 215.181 176.652 214.5C176.652 213.819 176.81 213.203 177.128 212.652C177.445 212.101 177.874 211.667 178.416 211.35C178.966 211.023 179.573 210.86 180.236 210.86C180.908 210.86 181.514 211.023 182.056 211.35C182.597 211.667 183.026 212.101 183.344 212.652C183.661 213.203 183.82 213.819 183.82 214.5C183.82 215.181 183.661 215.797 183.344 216.348C183.026 216.899 182.597 217.337 182.056 217.664C181.514 217.981 180.908 218.14 180.236 218.14ZM180.236 217.216C180.712 217.216 181.141 217.095 181.524 216.852C181.916 216.609 182.224 216.283 182.448 215.872C182.681 215.461 182.798 215.004 182.798 214.5C182.798 213.987 182.681 213.529 182.448 213.128C182.224 212.717 181.916 212.391 181.524 212.148C181.141 211.905 180.712 211.784 180.236 211.784C179.76 211.784 179.326 211.905 178.934 212.148C178.551 212.391 178.243 212.717 178.01 213.128C177.786 213.529 177.674 213.987 177.674 214.5C177.674 215.004 177.786 215.461 178.01 215.872C178.243 216.283 178.551 216.609 178.934 216.852C179.326 217.095 179.76 217.216 180.236 217.216ZM185.259 218V210.986H186.295V211.812C186.846 211.168 187.583 210.846 188.507 210.846C189.039 210.846 189.506 210.963 189.907 211.196C190.318 211.42 190.635 211.737 190.859 212.148C191.092 212.549 191.209 213.021 191.209 213.562V218H190.187V213.772C190.187 213.147 190.01 212.657 189.655 212.302C189.31 211.938 188.834 211.756 188.227 211.756C187.807 211.756 187.434 211.849 187.107 212.036C186.78 212.223 186.51 212.489 186.295 212.834V218H185.259ZM195.183 218.14C194.604 218.14 194.058 218.047 193.545 217.86C193.041 217.664 192.602 217.393 192.229 217.048L192.859 216.376C193.185 216.675 193.545 216.908 193.937 217.076C194.329 217.235 194.73 217.314 195.141 217.314C195.701 217.314 196.158 217.197 196.513 216.964C196.867 216.731 197.045 216.427 197.045 216.054C197.045 215.746 196.937 215.508 196.723 215.34C196.517 215.163 196.191 215.041 195.743 214.976L194.525 214.808C193.825 214.705 193.302 214.495 192.957 214.178C192.621 213.861 192.453 213.431 192.453 212.89C192.453 212.498 192.565 212.148 192.789 211.84C193.013 211.532 193.321 211.289 193.713 211.112C194.114 210.935 194.571 210.846 195.085 210.846C195.598 210.846 196.079 210.921 196.527 211.07C196.975 211.219 197.413 211.453 197.843 211.77L197.297 212.47C196.905 212.199 196.522 212.003 196.149 211.882C195.785 211.751 195.411 211.686 195.029 211.686C194.543 211.686 194.151 211.793 193.853 212.008C193.554 212.223 193.405 212.503 193.405 212.848C193.405 213.165 193.507 213.408 193.713 213.576C193.918 213.735 194.249 213.847 194.707 213.912L195.925 214.08C196.625 214.173 197.147 214.379 197.493 214.696C197.847 215.013 198.025 215.447 198.025 215.998C198.025 216.399 197.899 216.763 197.647 217.09C197.395 217.417 197.054 217.673 196.625 217.86C196.205 218.047 195.724 218.14 195.183 218.14ZM201.879 218.14C201.347 218.14 200.875 218.028 200.465 217.804C200.054 217.571 199.732 217.253 199.499 216.852C199.275 216.441 199.163 215.965 199.163 215.424V210.986H200.185V215.214C200.185 215.839 200.362 216.334 200.717 216.698C201.071 217.053 201.547 217.23 202.145 217.23C202.565 217.23 202.938 217.137 203.265 216.95C203.601 216.754 203.871 216.483 204.077 216.138V210.986H205.113V218H204.077V217.188C203.526 217.823 202.793 218.14 201.879 218.14ZM206.874 218V208.2L207.91 207.962V218H206.874ZM212.435 218.14C211.828 218.14 211.362 217.995 211.035 217.706C210.708 217.417 210.545 216.997 210.545 216.446V211.868H209.033V210.986H210.545V209.208L211.567 208.942V210.986H213.681V211.868H211.567V216.18C211.567 216.553 211.651 216.824 211.819 216.992C211.987 217.151 212.262 217.23 212.645 217.23C212.841 217.23 213.014 217.216 213.163 217.188C213.322 217.16 213.49 217.113 213.667 217.048V217.958C213.49 218.023 213.289 218.07 213.065 218.098C212.85 218.126 212.64 218.14 212.435 218.14ZM217.002 218.126C216.489 218.126 216.036 218.037 215.644 217.86C215.262 217.683 214.958 217.435 214.734 217.118C214.52 216.801 214.412 216.432 214.412 216.012C214.412 215.349 214.664 214.827 215.168 214.444C215.672 214.061 216.354 213.87 217.212 213.87C217.968 213.87 218.654 214.029 219.27 214.346V213.422C219.27 212.862 219.112 212.442 218.794 212.162C218.477 211.873 218.015 211.728 217.408 211.728C217.063 211.728 216.713 211.779 216.358 211.882C216.013 211.975 215.63 212.129 215.21 212.344L214.818 211.546C215.322 211.303 215.789 211.126 216.218 211.014C216.648 210.902 217.077 210.846 217.506 210.846C218.393 210.846 219.074 211.056 219.55 211.476C220.036 211.896 220.278 212.498 220.278 213.282V218H219.27V217.314C218.953 217.585 218.603 217.79 218.22 217.93C217.847 218.061 217.441 218.126 217.002 218.126ZM215.406 215.984C215.406 216.376 215.57 216.698 215.896 216.95C216.232 217.193 216.662 217.314 217.184 217.314C217.604 217.314 217.987 217.249 218.332 217.118C218.678 216.987 218.99 216.782 219.27 216.502V215.186C218.981 214.99 218.673 214.85 218.346 214.766C218.02 214.673 217.651 214.626 217.24 214.626C216.68 214.626 216.232 214.752 215.896 215.004C215.57 215.247 215.406 215.573 215.406 215.984ZM224.562 218.14C223.955 218.14 223.489 217.995 223.162 217.706C222.835 217.417 222.672 216.997 222.672 216.446V211.868H221.16V210.986H222.672V209.208L223.694 208.942V210.986H225.808V211.868H223.694V216.18C223.694 216.553 223.778 216.824 223.946 216.992C224.114 217.151 224.389 217.23 224.772 217.23C224.968 217.23 225.141 217.216 225.29 217.188C225.449 217.16 225.617 217.113 225.794 217.048V217.958C225.617 218.023 225.416 218.07 225.192 218.098C224.977 218.126 224.767 218.14 224.562 218.14ZM226.917 218V210.986H227.953V218H226.917ZM227.435 209.642C227.248 209.642 227.085 209.572 226.945 209.432C226.805 209.292 226.735 209.129 226.735 208.942C226.735 208.746 226.805 208.583 226.945 208.452C227.085 208.312 227.248 208.242 227.435 208.242C227.631 208.242 227.794 208.312 227.925 208.452C228.065 208.583 228.135 208.746 228.135 208.942C228.135 209.129 228.065 209.292 227.925 209.432C227.794 209.572 227.631 209.642 227.435 209.642ZM232.982 218.14C232.319 218.14 231.713 217.981 231.162 217.664C230.621 217.337 230.191 216.899 229.874 216.348C229.557 215.797 229.398 215.181 229.398 214.5C229.398 213.819 229.557 213.203 229.874 212.652C230.191 212.101 230.621 211.667 231.162 211.35C231.713 211.023 232.319 210.86 232.982 210.86C233.654 210.86 234.261 211.023 234.802 211.35C235.343 211.667 235.773 212.101 236.09 212.652C236.407 213.203 236.566 213.819 236.566 214.5C236.566 215.181 236.407 215.797 236.09 216.348C235.773 216.899 235.343 217.337 234.802 217.664C234.261 217.981 233.654 218.14 232.982 218.14ZM232.982 217.216C233.458 217.216 233.887 217.095 234.27 216.852C234.662 216.609 234.97 216.283 235.194 215.872C235.427 215.461 235.544 215.004 235.544 214.5C235.544 213.987 235.427 213.529 235.194 213.128C234.97 212.717 234.662 212.391 234.27 212.148C233.887 211.905 233.458 211.784 232.982 211.784C232.506 211.784 232.072 211.905 231.68 212.148C231.297 212.391 230.989 212.717 230.756 213.128C230.532 213.529 230.42 213.987 230.42 214.5C230.42 215.004 230.532 215.461 230.756 215.872C230.989 216.283 231.297 216.609 231.68 216.852C232.072 217.095 232.506 217.216 232.982 217.216ZM238.005 218V210.986H239.041V211.812C239.592 211.168 240.329 210.846 241.253 210.846C241.785 210.846 242.252 210.963 242.653 211.196C243.064 211.42 243.381 211.737 243.605 212.148C243.838 212.549 243.955 213.021 243.955 213.562V218H242.933V213.772C242.933 213.147 242.756 212.657 242.401 212.302C242.056 211.938 241.58 211.756 240.973 211.756C240.553 211.756 240.18 211.849 239.853 212.036C239.526 212.223 239.256 212.489 239.041 212.834V218H238.005Z" fill="#793A0E"/>
<path d="M171.5 99C171.5 89.335 179.335 81.5 189 81.5H293C303.217 81.5 311.5 89.7827 311.5 100V116.5H189C179.335 116.5 171.5 108.665 171.5 99Z" fill="#FFB400"/>
<path d="M171.5 99C171.5 89.335 179.335 81.5 189 81.5H293C303.217 81.5 311.5 89.7827 311.5 100V116.5H189C179.335 116.5 171.5 108.665 171.5 99Z" stroke="#FAF9F7" stroke-width="3"/>
<path d="M194.518 103.5L198.578 93.7H199.88L203.912 103.5H202.736L201.504 100.42H196.884L195.638 103.5H194.518ZM197.262 99.496H201.126L199.194 94.694L197.262 99.496ZM204.846 106.356V96.486H205.868V97.242C206.475 96.6633 207.231 96.374 208.136 96.374C208.799 96.374 209.396 96.5373 209.928 96.864C210.46 97.1813 210.88 97.6107 211.188 98.152C211.505 98.6933 211.664 99.3047 211.664 99.986C211.664 100.667 211.505 101.283 211.188 101.834C210.88 102.375 210.46 102.809 209.928 103.136C209.396 103.453 208.794 103.612 208.122 103.612C207.711 103.612 207.315 103.542 206.932 103.402C206.549 103.262 206.199 103.061 205.882 102.8V106.356H204.846ZM208.038 102.702C208.533 102.702 208.976 102.585 209.368 102.352C209.76 102.109 210.068 101.787 210.292 101.386C210.525 100.975 210.642 100.513 210.642 100C210.642 99.4867 210.525 99.0247 210.292 98.614C210.068 98.2033 209.76 97.8813 209.368 97.648C208.976 97.4053 208.533 97.284 208.038 97.284C207.599 97.284 207.189 97.3727 206.806 97.55C206.433 97.718 206.125 97.956 205.882 98.264V101.736C206.125 102.035 206.437 102.273 206.82 102.45C207.203 102.618 207.609 102.702 208.038 102.702ZM213.104 106.356V96.486H214.126V97.242C214.732 96.6633 215.488 96.374 216.394 96.374C217.056 96.374 217.654 96.5373 218.186 96.864C218.718 97.1813 219.138 97.6107 219.446 98.152C219.763 98.6933 219.922 99.3047 219.922 99.986C219.922 100.667 219.763 101.283 219.446 101.834C219.138 102.375 218.718 102.809 218.186 103.136C217.654 103.453 217.052 103.612 216.38 103.612C215.969 103.612 215.572 103.542 215.19 103.402C214.807 103.262 214.457 103.061 214.14 102.8V106.356H213.104ZM216.296 102.702C216.79 102.702 217.234 102.585 217.626 102.352C218.018 102.109 218.326 101.787 218.55 101.386C218.783 100.975 218.9 100.513 218.9 100C218.9 99.4867 218.783 99.0247 218.55 98.614C218.326 98.2033 218.018 97.8813 217.626 97.648C217.234 97.4053 216.79 97.284 216.296 97.284C215.857 97.284 215.446 97.3727 215.064 97.55C214.69 97.718 214.382 97.956 214.14 98.264V101.736C214.382 102.035 214.695 102.273 215.078 102.45C215.46 102.618 215.866 102.702 216.296 102.702ZM221.361 103.5V93.7L222.397 93.462V103.5H221.361ZM224.458 106.496C224.328 106.496 224.202 106.487 224.08 106.468C223.968 106.459 223.875 106.445 223.8 106.426V105.488C223.959 105.525 224.155 105.544 224.388 105.544C225.004 105.544 225.471 105.18 225.788 104.452L226.208 103.486L223.352 96.486H224.5L226.768 102.24L229.218 96.486H230.338L226.838 104.592C226.642 105.04 226.432 105.404 226.208 105.684C225.984 105.964 225.728 106.169 225.438 106.3C225.158 106.431 224.832 106.496 224.458 106.496ZM239.125 103.654C238.415 103.654 237.753 103.528 237.137 103.276C236.521 103.015 235.979 102.655 235.513 102.198C235.046 101.731 234.682 101.195 234.421 100.588C234.169 99.972 234.043 99.3093 234.043 98.6C234.043 97.8907 234.169 97.2327 234.421 96.626C234.682 96.01 235.046 95.4733 235.513 95.016C235.979 94.5493 236.521 94.19 237.137 93.938C237.753 93.6767 238.415 93.546 239.125 93.546C239.638 93.546 240.128 93.6113 240.595 93.742C241.071 93.8633 241.509 94.0453 241.911 94.288C242.321 94.5213 242.685 94.8107 243.003 95.156L242.289 95.912C241.906 95.4733 241.435 95.1373 240.875 94.904C240.315 94.6613 239.731 94.54 239.125 94.54C238.555 94.54 238.028 94.6427 237.543 94.848C237.057 95.0533 236.633 95.3427 236.269 95.716C235.914 96.08 235.634 96.5093 235.429 97.004C235.233 97.4893 235.135 98.0213 235.135 98.6C235.135 99.1693 235.233 99.7013 235.429 100.196C235.634 100.691 235.919 101.125 236.283 101.498C236.647 101.862 237.071 102.147 237.557 102.352C238.051 102.557 238.583 102.66 239.153 102.66C239.759 102.66 240.338 102.543 240.889 102.31C241.439 102.067 241.901 101.736 242.275 101.316L242.975 102.044C242.648 102.38 242.279 102.669 241.869 102.912C241.467 103.155 241.033 103.341 240.567 103.472C240.1 103.593 239.619 103.654 239.125 103.654ZM244.412 103.5V93.7L245.448 93.462V97.312C245.999 96.668 246.736 96.346 247.66 96.346C248.192 96.346 248.659 96.4627 249.06 96.696C249.471 96.92 249.788 97.2373 250.012 97.648C250.246 98.0493 250.362 98.5207 250.362 99.062V103.5H249.34V99.272C249.34 98.6467 249.163 98.1567 248.808 97.802C248.463 97.438 247.987 97.256 247.38 97.256C246.96 97.256 246.587 97.3493 246.26 97.536C245.934 97.7227 245.663 97.9887 245.448 98.334V103.5H244.412ZM254.308 103.626C253.795 103.626 253.342 103.537 252.95 103.36C252.567 103.183 252.264 102.935 252.04 102.618C251.825 102.301 251.718 101.932 251.718 101.512C251.718 100.849 251.97 100.327 252.474 99.944C252.978 99.5613 253.659 99.37 254.518 99.37C255.274 99.37 255.96 99.5287 256.576 99.846V98.922C256.576 98.362 256.417 97.942 256.1 97.662C255.783 97.3727 255.321 97.228 254.714 97.228C254.369 97.228 254.019 97.2793 253.664 97.382C253.319 97.4753 252.936 97.6293 252.516 97.844L252.124 97.046C252.628 96.8033 253.095 96.626 253.524 96.514C253.953 96.402 254.383 96.346 254.812 96.346C255.699 96.346 256.38 96.556 256.856 96.976C257.341 97.396 257.584 97.998 257.584 98.782V103.5H256.576V102.814C256.259 103.085 255.909 103.29 255.526 103.43C255.153 103.561 254.747 103.626 254.308 103.626ZM252.712 101.484C252.712 101.876 252.875 102.198 253.202 102.45C253.538 102.693 253.967 102.814 254.49 102.814C254.91 102.814 255.293 102.749 255.638 102.618C255.983 102.487 256.296 102.282 256.576 102.002V100.686C256.287 100.49 255.979 100.35 255.652 100.266C255.325 100.173 254.957 100.126 254.546 100.126C253.986 100.126 253.538 100.252 253.202 100.504C252.875 100.747 252.712 101.073 252.712 101.484ZM259.315 103.5V96.486H260.351V97.312C260.901 96.668 261.639 96.346 262.563 96.346C263.095 96.346 263.561 96.4627 263.963 96.696C264.373 96.92 264.691 97.2373 264.915 97.648C265.148 98.0493 265.265 98.5207 265.265 99.062V103.5H264.243V99.272C264.243 98.6467 264.065 98.1567 263.711 97.802C263.365 97.438 262.889 97.256 262.283 97.256C261.863 97.256 261.489 97.3493 261.163 97.536C260.836 97.7227 260.565 97.9887 260.351 98.334V103.5H259.315ZM270.414 106.496C269.929 106.496 269.448 106.431 268.972 106.3C268.496 106.179 268.062 106.001 267.67 105.768L268.118 104.956C268.538 105.18 268.926 105.343 269.28 105.446C269.644 105.549 270.008 105.6 270.372 105.6C271.035 105.6 271.539 105.441 271.884 105.124C272.23 104.807 272.402 104.34 272.402 103.724V102.744C271.758 103.285 271.016 103.556 270.176 103.556C269.532 103.556 268.944 103.397 268.412 103.08C267.88 102.763 267.456 102.333 267.138 101.792C266.83 101.241 266.676 100.63 266.676 99.958C266.676 99.286 266.83 98.6793 267.138 98.138C267.456 97.5873 267.88 97.1533 268.412 96.836C268.944 96.5187 269.542 96.36 270.204 96.36C270.606 96.36 270.993 96.43 271.366 96.57C271.749 96.71 272.099 96.9153 272.416 97.186V96.486H273.438V103.71C273.438 104.606 273.177 105.292 272.654 105.768C272.132 106.253 271.385 106.496 270.414 106.496ZM270.26 102.646C270.708 102.646 271.119 102.562 271.492 102.394C271.866 102.226 272.169 101.988 272.402 101.68V98.236C272.169 97.9373 271.861 97.704 271.478 97.536C271.105 97.368 270.699 97.284 270.26 97.284C269.775 97.284 269.336 97.4007 268.944 97.634C268.562 97.8673 268.258 98.1893 268.034 98.6C267.81 99.0013 267.698 99.454 267.698 99.958C267.698 100.462 267.81 100.919 268.034 101.33C268.268 101.731 268.576 102.053 268.958 102.296C269.35 102.529 269.784 102.646 270.26 102.646ZM278.491 103.626C277.819 103.626 277.208 103.467 276.657 103.15C276.116 102.823 275.682 102.385 275.355 101.834C275.038 101.283 274.879 100.667 274.879 99.986C274.879 99.314 275.033 98.7073 275.341 98.166C275.649 97.6153 276.065 97.1813 276.587 96.864C277.11 96.5373 277.693 96.374 278.337 96.374C278.963 96.374 279.523 96.5373 280.017 96.864C280.521 97.1813 280.918 97.6153 281.207 98.166C281.506 98.7073 281.655 99.314 281.655 99.986V100.308H275.901C275.957 100.765 276.102 101.176 276.335 101.54C276.578 101.904 276.891 102.193 277.273 102.408C277.656 102.613 278.076 102.716 278.533 102.716C278.897 102.716 279.252 102.66 279.597 102.548C279.943 102.436 280.232 102.277 280.465 102.072L281.109 102.758C280.717 103.047 280.307 103.267 279.877 103.416C279.457 103.556 278.995 103.626 278.491 103.626ZM275.929 99.482H280.619C280.563 99.062 280.423 98.6887 280.199 98.362C279.985 98.026 279.714 97.7647 279.387 97.578C279.061 97.382 278.701 97.284 278.309 97.284C277.908 97.284 277.539 97.3773 277.203 97.564C276.867 97.7507 276.587 98.012 276.363 98.348C276.139 98.6747 275.995 99.0527 275.929 99.482ZM285.412 103.64C284.833 103.64 284.287 103.547 283.774 103.36C283.27 103.164 282.831 102.893 282.458 102.548L283.088 101.876C283.415 102.175 283.774 102.408 284.166 102.576C284.558 102.735 284.959 102.814 285.37 102.814C285.93 102.814 286.387 102.697 286.742 102.464C287.097 102.231 287.274 101.927 287.274 101.554C287.274 101.246 287.167 101.008 286.952 100.84C286.747 100.663 286.42 100.541 285.972 100.476L284.754 100.308C284.054 100.205 283.531 99.9953 283.186 99.678C282.85 99.3607 282.682 98.9313 282.682 98.39C282.682 97.998 282.794 97.648 283.018 97.34C283.242 97.032 283.55 96.7893 283.942 96.612C284.343 96.4347 284.801 96.346 285.314 96.346C285.827 96.346 286.308 96.4207 286.756 96.57C287.204 96.7193 287.643 96.9527 288.072 97.27L287.526 97.97C287.134 97.6993 286.751 97.5033 286.378 97.382C286.014 97.2513 285.641 97.186 285.258 97.186C284.773 97.186 284.381 97.2933 284.082 97.508C283.783 97.7227 283.634 98.0027 283.634 98.348C283.634 98.6653 283.737 98.908 283.942 99.076C284.147 99.2347 284.479 99.3467 284.936 99.412L286.154 99.58C286.854 99.6733 287.377 99.8787 287.722 100.196C288.077 100.513 288.254 100.947 288.254 101.498C288.254 101.899 288.128 102.263 287.876 102.59C287.624 102.917 287.283 103.173 286.854 103.36C286.434 103.547 285.953 103.64 285.412 103.64Z" fill="#793A0E"/>
<path d="M314.5 19C314.5 9.33502 322.335 1.5 332 1.5H437C446.665 1.5 454.5 9.33502 454.5 19C454.5 28.665 446.665 36.5 437 36.5H332C322.335 36.5 314.5 28.665 314.5 19Z" fill="#FFB400"/>
<path d="M314.5 19C314.5 9.33502 322.335 1.5 332 1.5H437C446.665 1.5 454.5 9.33502 454.5 19C454.5 28.665 446.665 36.5 437 36.5H332C322.335 36.5 314.5 28.665 314.5 19Z" stroke="#FAF9F7" stroke-width="3"/>
<path d="M367.031 23.654C366.321 23.654 365.659 23.5233 365.043 23.262C364.436 23.0007 363.899 22.6413 363.433 22.184C362.975 21.7173 362.616 21.1807 362.355 20.574C362.093 19.958 361.963 19.3 361.963 18.6C361.963 17.9 362.089 17.2467 362.341 16.64C362.602 16.024 362.961 15.4873 363.419 15.03C363.885 14.5633 364.422 14.1993 365.029 13.938C365.645 13.6767 366.307 13.546 367.017 13.546C367.773 13.546 368.487 13.686 369.159 13.966C369.831 14.246 370.405 14.6427 370.881 15.156L370.153 15.898C369.779 15.4687 369.313 15.1373 368.753 14.904C368.202 14.6613 367.623 14.54 367.017 14.54C366.457 14.54 365.934 14.6427 365.449 14.848C364.973 15.0533 364.553 15.3427 364.189 15.716C363.834 16.08 363.554 16.5093 363.349 17.004C363.153 17.4893 363.055 18.0213 363.055 18.6C363.055 19.1693 363.153 19.7013 363.349 20.196C363.554 20.6907 363.834 21.1247 364.189 21.498C364.553 21.862 364.973 22.1467 365.449 22.352C365.934 22.5573 366.457 22.66 367.017 22.66C367.679 22.66 368.277 22.5153 368.809 22.226C369.35 21.9367 369.784 21.54 370.111 21.036C370.447 20.532 370.643 19.9627 370.699 19.328H367.185V18.376H371.791V18.81C371.791 19.4913 371.669 20.126 371.427 20.714C371.184 21.302 370.848 21.8153 370.419 22.254C369.989 22.6927 369.485 23.038 368.907 23.29C368.328 23.5327 367.703 23.654 367.031 23.654ZM373.262 23.5V16.486H374.298V17.48C374.513 17.116 374.783 16.836 375.11 16.64C375.446 16.4347 375.829 16.332 376.258 16.332C376.501 16.332 376.72 16.3647 376.916 16.43V17.382C376.795 17.3353 376.673 17.3027 376.552 17.284C376.431 17.2653 376.309 17.256 376.188 17.256C375.759 17.256 375.381 17.382 375.054 17.634C374.737 17.8767 374.485 18.2313 374.298 18.698V23.5H373.262ZM380.872 23.64C380.209 23.64 379.602 23.4813 379.052 23.164C378.51 22.8373 378.081 22.3987 377.764 21.848C377.446 21.2973 377.288 20.6813 377.288 20C377.288 19.3187 377.446 18.7027 377.764 18.152C378.081 17.6013 378.51 17.1673 379.052 16.85C379.602 16.5233 380.209 16.36 380.872 16.36C381.544 16.36 382.15 16.5233 382.692 16.85C383.233 17.1673 383.662 17.6013 383.98 18.152C384.297 18.7027 384.456 19.3187 384.456 20C384.456 20.6813 384.297 21.2973 383.98 21.848C383.662 22.3987 383.233 22.8373 382.692 23.164C382.15 23.4813 381.544 23.64 380.872 23.64ZM380.872 22.716C381.348 22.716 381.777 22.5947 382.16 22.352C382.552 22.1093 382.86 21.7827 383.084 21.372C383.317 20.9613 383.434 20.504 383.434 20C383.434 19.4867 383.317 19.0293 383.084 18.628C382.86 18.2173 382.552 17.8907 382.16 17.648C381.777 17.4053 381.348 17.284 380.872 17.284C380.396 17.284 379.962 17.4053 379.57 17.648C379.187 17.8907 378.879 18.2173 378.646 18.628C378.422 19.0293 378.31 19.4867 378.31 20C378.31 20.504 378.422 20.9613 378.646 21.372C378.879 21.7827 379.187 22.1093 379.57 22.352C379.962 22.5947 380.396 22.716 380.872 22.716ZM387.046 23.5L385.072 16.486H386.094L387.606 22.086L389.356 16.486H390.28L392.016 22.086L393.542 16.486H394.522L392.534 23.5H391.54L389.804 17.886L388.054 23.5H387.046ZM398.496 23.64C397.89 23.64 397.423 23.4953 397.096 23.206C396.77 22.9167 396.606 22.4967 396.606 21.946V17.368H395.094V16.486H396.606V14.708L397.628 14.442V16.486H399.742V17.368H397.628V21.68C397.628 22.0533 397.712 22.324 397.88 22.492C398.048 22.6507 398.324 22.73 398.706 22.73C398.902 22.73 399.075 22.716 399.224 22.688C399.383 22.66 399.551 22.6133 399.728 22.548V23.458C399.551 23.5233 399.35 23.57 399.126 23.598C398.912 23.626 398.702 23.64 398.496 23.64ZM400.852 23.5V13.7L401.888 13.462V17.312C402.438 16.668 403.176 16.346 404.1 16.346C404.632 16.346 405.098 16.4627 405.5 16.696C405.91 16.92 406.228 17.2373 406.452 17.648C406.685 18.0493 406.802 18.5207 406.802 19.062V23.5H405.78V19.272C405.78 18.6467 405.602 18.1567 405.248 17.802C404.902 17.438 404.426 17.256 403.82 17.256C403.4 17.256 403.026 17.3493 402.7 17.536C402.373 17.7227 402.102 17.9887 401.888 18.334V23.5H400.852Z" fill="#793A0E"/>
</svg>
