<svg width="496" height="277" viewBox="0 0 496 277" fill="none" xmlns="http://www.w3.org/2000/svg">
<g clip-path="url(#clip0_123_399)">
<rect width="495.559" height="99.5098" rx="19.902" fill="#141313"/>
<rect x="19.9014" y="27.8628" width="43.7843" height="43.7843" rx="21.8922" fill="#008744"/>
<path d="M28.2129 44.146H30.5819L33.4145 49.2685H33.5276L36.3603 44.146H38.7293L34.5171 51.4057V55.7253H32.4251V51.4057L28.2129 44.146Z" fill="#FFFAEF"/>
<path d="M42.6517 55.7253L39.3837 44.146H41.6396L43.726 52.6552H43.8334L46.061 44.146H48.1134L50.3468 52.6609H50.4485L52.5348 44.146H54.7908L51.5228 55.7253H49.4534L47.1353 47.6006H47.0448L44.7211 55.7253H42.6517Z" fill="#FFFAEF"/>
<path d="M76.034 35.1756H77.6398L80.8512 40.5808H80.9869L84.1984 35.1756H85.8041L81.6202 41.9829V46.7549H80.218V41.9829L76.034 35.1756ZM89.7364 46.9358C88.9524 46.9358 88.2645 46.7492 87.6727 46.3761C87.0847 46.0029 86.6249 45.4809 86.2932 44.8099C85.9652 44.139 85.8013 43.355 85.8013 42.4579C85.8013 41.5532 85.9652 40.7636 86.2932 40.0889C86.6249 39.4141 87.0847 38.8902 87.6727 38.5171C88.2645 38.1439 88.9524 37.9573 89.7364 37.9573C90.5204 37.9573 91.2065 38.1439 91.7945 38.5171C92.3863 38.8902 92.8461 39.4141 93.174 40.0889C93.5057 40.7636 93.6716 41.5532 93.6716 42.4579C93.6716 43.355 93.5057 44.139 93.174 44.8099C92.8461 45.4809 92.3863 46.0029 91.7945 46.3761C91.2065 46.7492 90.5204 46.9358 89.7364 46.9358ZM89.7364 45.7372C90.332 45.7372 90.822 45.5845 91.2065 45.2792C91.5909 44.9739 91.8755 44.5725 92.0602 44.0749C92.2449 43.5774 92.3373 43.0383 92.3373 42.4579C92.3373 41.8774 92.2449 41.3365 92.0602 40.8352C91.8755 40.3339 91.5909 39.9287 91.2065 39.6196C90.822 39.3105 90.332 39.156 89.7364 39.156C89.1409 39.156 88.6509 39.3105 88.2664 39.6196C87.8819 39.9287 87.5973 40.3339 87.4126 40.8352C87.2279 41.3365 87.1356 41.8774 87.1356 42.4579C87.1356 43.0383 87.2279 43.5774 87.4126 44.0749C87.5973 44.5725 87.8819 44.9739 88.2664 45.2792C88.6509 45.5845 89.1409 45.7372 89.7364 45.7372ZM101.181 43.2042V38.0704H102.516V46.7549H101.181V45.2849H101.091C100.887 45.7259 100.571 46.1009 100.141 46.41C99.7114 46.7153 99.1687 46.868 98.5128 46.868C97.97 46.868 97.4875 46.7492 97.0654 46.5118C96.6432 46.2705 96.3115 45.9087 96.0703 45.4262C95.829 44.94 95.7084 44.3274 95.7084 43.5887V38.0704H97.0428V43.4982C97.0428 44.1314 97.2199 44.6365 97.5742 45.0135C97.9323 45.3904 98.3884 45.5789 98.9425 45.5789C99.2742 45.5789 99.6115 45.494 99.9546 45.3244C100.301 45.1548 100.592 44.8947 100.825 44.5442C101.063 44.1936 101.181 43.747 101.181 43.2042ZM104.96 46.7549V38.0704H106.249V39.3821H106.339C106.498 38.9524 106.784 38.6037 107.199 38.3361C107.613 38.0685 108.081 37.9347 108.601 37.9347C108.699 37.9347 108.821 37.9366 108.968 37.9403C109.115 37.9441 109.227 37.9498 109.302 37.9573V39.3143C109.257 39.303 109.153 39.286 108.991 39.2634C108.833 39.237 108.665 39.2238 108.488 39.2238C108.066 39.2238 107.689 39.3124 107.357 39.4895C107.029 39.6629 106.769 39.9042 106.577 40.2132C106.388 40.5186 106.294 40.8672 106.294 41.2592V46.7549H104.96ZM117.646 46.7549L114.48 35.1756H115.904L118.324 44.6064H118.437L120.903 35.1756H122.486L124.951 44.6064H125.064L127.484 35.1756H128.909L125.742 46.7549H124.295L121.739 37.5276H121.649L119.093 46.7549H117.646ZM133.307 46.9358C132.471 46.9358 131.749 46.7511 131.142 46.3817C130.539 46.0086 130.073 45.4884 129.745 44.8212C129.421 44.1503 129.259 43.37 129.259 42.4805C129.259 41.5909 129.421 40.8069 129.745 40.1284C130.073 39.4462 130.529 38.9147 131.114 38.534C131.702 38.1495 132.388 37.9573 133.172 37.9573C133.624 37.9573 134.071 38.0327 134.512 38.1835C134.953 38.3342 135.354 38.5792 135.716 38.9185C136.078 39.254 136.366 39.6987 136.581 40.2528C136.796 40.8069 136.903 41.4892 136.903 42.2996V42.865H130.209V41.7115H135.546C135.546 41.2215 135.448 40.7843 135.252 40.3998C135.06 40.0154 134.785 39.7119 134.427 39.4895C134.072 39.2671 133.654 39.156 133.172 39.156C132.64 39.156 132.18 39.2879 131.792 39.5517C131.408 39.8118 131.112 40.1511 130.904 40.5694C130.697 40.9878 130.593 41.4364 130.593 41.9151V42.684C130.593 43.3399 130.706 43.8959 130.933 44.3519C131.163 44.8043 131.481 45.1492 131.888 45.3866C132.295 45.6203 132.768 45.7372 133.307 45.7372C133.658 45.7372 133.974 45.6882 134.257 45.5902C134.544 45.4884 134.791 45.3376 134.998 45.1378C135.205 44.9343 135.365 44.6818 135.478 44.3802L136.768 44.7421C136.632 45.1793 136.404 45.5638 136.083 45.8955C135.763 46.2234 135.367 46.4797 134.896 46.6644C134.425 46.8453 133.895 46.9358 133.307 46.9358ZM139.114 46.7549V35.1756H140.448V39.45H140.561C140.659 39.2992 140.795 39.107 140.968 38.8733C141.146 38.6358 141.398 38.4247 141.726 38.24C142.058 38.0515 142.506 37.9573 143.072 37.9573C143.803 37.9573 144.448 38.1401 145.005 38.5057C145.563 38.8714 145.999 39.3896 146.311 40.0606C146.624 40.7315 146.781 41.5231 146.781 42.4353C146.781 43.355 146.624 44.1522 146.311 44.8269C145.999 45.4978 145.565 46.018 145.011 46.3874C144.457 46.753 143.818 46.9358 143.094 46.9358C142.536 46.9358 142.09 46.8435 141.754 46.6588C141.419 46.4703 141.161 46.2573 140.98 46.0199C140.799 45.7786 140.659 45.5789 140.561 45.4205H140.403V46.7549H139.114ZM140.426 42.4126C140.426 43.0685 140.522 43.6471 140.714 44.1484C140.906 44.646 141.187 45.0361 141.556 45.3188C141.926 45.5977 142.378 45.7372 142.913 45.7372C143.471 45.7372 143.937 45.5902 144.31 45.2962C144.687 44.9984 144.97 44.5988 145.158 44.0975C145.35 43.5924 145.446 43.0308 145.446 42.4126C145.446 41.802 145.352 41.2517 145.164 40.7617C144.979 40.2679 144.698 39.8778 144.321 39.5913C143.948 39.3011 143.479 39.156 142.913 39.156C142.371 39.156 141.915 39.2935 141.545 39.5687C141.176 39.8401 140.897 40.2208 140.708 40.7108C140.52 41.197 140.426 41.7643 140.426 42.4126ZM154.973 40.0154L153.775 40.3546C153.699 40.1548 153.588 39.9607 153.441 39.7722C153.298 39.58 153.102 39.4217 152.853 39.2973C152.604 39.1729 152.286 39.1107 151.898 39.1107C151.366 39.1107 150.923 39.2332 150.569 39.4782C150.218 39.7195 150.043 40.0267 150.043 40.3998C150.043 40.7315 150.164 40.9935 150.405 41.1857C150.646 41.378 151.023 41.5382 151.536 41.6663L152.825 41.9829C153.601 42.1714 154.18 42.4598 154.561 42.848C154.941 43.2325 155.132 43.7281 155.132 44.335C155.132 44.8325 154.988 45.2773 154.702 45.6693C154.419 46.0613 154.023 46.3704 153.515 46.5966C153.006 46.8227 152.414 46.9358 151.739 46.9358C150.853 46.9358 150.12 46.7436 149.54 46.3591C148.959 45.9746 148.592 45.413 148.437 44.6742L149.704 44.3576C149.824 44.825 150.052 45.1755 150.388 45.4092C150.727 45.6429 151.17 45.7598 151.717 45.7598C152.339 45.7598 152.832 45.6279 153.198 45.364C153.567 45.0964 153.752 44.776 153.752 44.4028C153.752 44.1013 153.646 43.8487 153.435 43.6452C153.224 43.4379 152.9 43.2833 152.463 43.1816L151.016 42.8423C150.22 42.6539 149.636 42.3618 149.263 41.966C148.893 41.5664 148.709 41.067 148.709 40.4677C148.709 39.9777 148.846 39.5442 149.121 39.1673C149.4 38.7903 149.779 38.4944 150.258 38.2796C150.74 38.0647 151.287 37.9573 151.898 37.9573C152.757 37.9573 153.432 38.1458 153.922 38.5227C154.415 38.8996 154.766 39.3972 154.973 40.0154ZM157.14 46.7549V38.0704H158.475V46.7549H157.14ZM157.819 36.623C157.559 36.623 157.334 36.5344 157.146 36.3572C156.961 36.1801 156.869 35.9671 156.869 35.7183C156.869 35.4696 156.961 35.2566 157.146 35.0794C157.334 34.9023 157.559 34.8137 157.819 34.8137C158.079 34.8137 158.301 34.9023 158.486 35.0794C158.674 35.2566 158.769 35.4696 158.769 35.7183C158.769 35.9671 158.674 36.1801 158.486 36.3572C158.301 36.5344 158.079 36.623 157.819 36.623ZM164.695 38.0704V39.2012H160.195V38.0704H164.695ZM161.506 35.9897H162.841V44.2671C162.841 44.6441 162.895 44.9268 163.005 45.1152C163.118 45.2999 163.261 45.4243 163.434 45.4884C163.612 45.5487 163.798 45.5789 163.994 45.5789C164.141 45.5789 164.262 45.5713 164.356 45.5562C164.45 45.5374 164.526 45.5223 164.582 45.511L164.854 46.7097C164.763 46.7436 164.637 46.7775 164.475 46.8114C164.313 46.8491 164.107 46.868 163.859 46.868C163.482 46.868 163.112 46.7869 162.75 46.6248C162.392 46.4628 162.094 46.2159 161.857 45.8842C161.623 45.5525 161.506 45.1341 161.506 44.629V35.9897ZM170.25 46.9358C169.414 46.9358 168.692 46.7511 168.085 46.3817C167.482 46.0086 167.016 45.4884 166.688 44.8212C166.364 44.1503 166.202 43.37 166.202 42.4805C166.202 41.5909 166.364 40.8069 166.688 40.1284C167.016 39.4462 167.472 38.9147 168.057 38.534C168.645 38.1495 169.331 37.9573 170.115 37.9573C170.567 37.9573 171.014 38.0327 171.455 38.1835C171.896 38.3342 172.297 38.5792 172.659 38.9185C173.021 39.254 173.309 39.6987 173.524 40.2528C173.739 40.8069 173.846 41.4892 173.846 42.2996V42.865H167.152V41.7115H172.489C172.489 41.2215 172.391 40.7843 172.195 40.3998C172.003 40.0154 171.728 39.7119 171.37 39.4895C171.015 39.2671 170.597 39.156 170.115 39.156C169.583 39.156 169.123 39.2879 168.735 39.5517C168.351 39.8118 168.055 40.1511 167.847 40.5694C167.64 40.9878 167.536 41.4364 167.536 41.9151V42.684C167.536 43.3399 167.649 43.8959 167.876 44.3519C168.106 44.8043 168.424 45.1492 168.831 45.3866C169.238 45.6203 169.711 45.7372 170.25 45.7372C170.601 45.7372 170.917 45.6882 171.2 45.5902C171.487 45.4884 171.734 45.3376 171.941 45.1378C172.148 44.9343 172.308 44.6818 172.421 44.3802L173.711 44.7421C173.575 45.1793 173.347 45.5638 173.026 45.8955C172.706 46.2234 172.31 46.4797 171.839 46.6644C171.368 46.8453 170.838 46.9358 170.25 46.9358Z" fill="white"/>
<path d="M78.0186 63.7549L76.034 57.2415H77.0857L78.4935 62.2283H78.5614L79.9522 57.2415H81.0208L82.3948 62.2113H82.4626L83.8704 57.2415H84.9221L82.9375 63.7549H81.9537L80.5289 58.7511H80.4272L79.0024 63.7549H78.0186ZM87.7208 63.7549L85.7362 57.2415H86.7879L88.1957 62.2283H88.2636L89.6544 57.2415H90.723L92.097 62.2113H92.1648L93.5726 57.2415H94.6243L92.6397 63.7549H91.6559L90.2311 58.7511H90.1294L88.7046 63.7549H87.7208ZM97.423 63.7549L95.4385 57.2415H96.4901L97.8979 62.2283H97.9658L99.3566 57.2415H100.425L101.799 62.2113H101.867L103.275 57.2415H104.326L102.342 63.7549H101.358L99.9334 58.7511H99.8316L98.4068 63.7549H97.423ZM105.493 63.8227C105.283 63.8227 105.104 63.7478 104.954 63.598C104.804 63.4482 104.729 63.2686 104.729 63.0594C104.729 62.8502 104.804 62.6707 104.954 62.5209C105.104 62.3711 105.283 62.2962 105.493 62.2962C105.702 62.2962 105.881 62.3711 106.031 62.5209C106.181 62.6707 106.256 62.8502 106.256 63.0594C106.256 63.198 106.221 63.3252 106.15 63.4411C106.082 63.557 105.99 63.6503 105.874 63.721C105.761 63.7888 105.634 63.8227 105.493 63.8227ZM108.696 66.1974C108.527 66.1974 108.375 66.1833 108.243 66.155C108.11 66.1295 108.018 66.1041 107.967 66.0787L108.221 65.1966C108.464 65.2588 108.679 65.2815 108.866 65.2645C109.052 65.2475 109.218 65.1641 109.362 65.0143C109.509 64.8673 109.643 64.6284 109.765 64.2977L109.951 63.7888L107.543 57.2415H108.628L110.426 62.4319H110.494L112.292 57.2415H113.378L110.613 64.7047C110.489 65.0412 110.335 65.3196 110.151 65.5401C109.967 65.7635 109.754 65.9288 109.51 66.0363C109.27 66.1437 108.999 66.1974 108.696 66.1974ZM117.112 63.8906C116.524 63.8906 116.008 63.7506 115.564 63.4708C115.123 63.1909 114.778 62.7994 114.529 62.2962C114.283 61.793 114.16 61.2049 114.16 60.5321C114.16 59.8536 114.283 59.2614 114.529 58.7554C114.778 58.2493 115.123 57.8564 115.564 57.5765C116.008 57.2966 116.524 57.1567 117.112 57.1567C117.7 57.1567 118.214 57.2966 118.655 57.5765C119.099 57.8564 119.444 58.2493 119.69 58.7554C119.939 59.2614 120.063 59.8536 120.063 60.5321C120.063 61.2049 119.939 61.793 119.69 62.2962C119.444 62.7994 119.099 63.1909 118.655 63.4708C118.214 63.7506 117.7 63.8906 117.112 63.8906ZM117.112 62.9916C117.558 62.9916 117.926 62.8771 118.214 62.6481C118.502 62.4191 118.716 62.1181 118.854 61.7449C118.993 61.3717 119.062 60.9675 119.062 60.5321C119.062 60.0968 118.993 59.6911 118.854 59.3151C118.716 58.9391 118.502 58.6352 118.214 58.4034C117.926 58.1716 117.558 58.0557 117.112 58.0557C116.665 58.0557 116.297 58.1716 116.009 58.4034C115.721 58.6352 115.507 58.9391 115.369 59.3151C115.23 59.6911 115.161 60.0968 115.161 60.5321C115.161 60.9675 115.23 61.3717 115.369 61.7449C115.507 62.1181 115.721 62.4191 116.009 62.6481C116.297 62.8771 116.665 62.9916 117.112 62.9916ZM125.695 61.0919V57.2415H126.696V63.7549H125.695V62.6524H125.627C125.475 62.9831 125.237 63.2644 124.915 63.4962C124.593 63.7252 124.186 63.8397 123.694 63.8397C123.287 63.8397 122.925 63.7506 122.608 63.5725C122.292 63.3916 122.043 63.1202 121.862 62.7584C121.681 62.3937 121.591 61.9343 121.591 61.3802V57.2415H122.591V61.3124C122.591 61.7873 122.724 62.1661 122.99 62.4488C123.258 62.7315 123.601 62.8729 124.016 62.8729C124.265 62.8729 124.518 62.8093 124.775 62.682C125.035 62.5548 125.253 62.3598 125.428 62.0969C125.606 61.8339 125.695 61.499 125.695 61.0919ZM128.529 63.7549V57.2415H129.496V58.2253H129.564C129.682 57.903 129.897 57.6415 130.208 57.4408C130.519 57.2401 130.87 57.1397 131.26 57.1397C131.333 57.1397 131.425 57.1412 131.535 57.144C131.646 57.1468 131.729 57.1511 131.786 57.1567V58.1744C131.752 58.1659 131.674 58.1532 131.552 58.1363C131.434 58.1165 131.308 58.1066 131.175 58.1066C130.858 58.1066 130.576 58.173 130.327 58.3059C130.081 58.4359 129.886 58.6168 129.742 58.8487C129.6 59.0776 129.53 59.3391 129.53 59.6331V63.7549H128.529ZM134.553 63.7549L132.568 57.2415H133.62L135.028 62.2283H135.095L136.486 57.2415H137.555L138.929 62.2113H138.997L140.404 57.2415H141.456L139.472 63.7549H138.488L137.063 58.7511H136.961L135.536 63.7549H134.553ZM145.288 63.8906C144.661 63.8906 144.119 63.7521 143.664 63.475C143.212 63.1951 142.863 62.805 142.617 62.3046C142.374 61.8014 142.252 61.2163 142.252 60.5491C142.252 59.8819 142.374 59.2939 142.617 58.785C142.863 58.2734 143.205 57.8748 143.643 57.5892C144.084 57.3009 144.599 57.1567 145.187 57.1567C145.526 57.1567 145.861 57.2132 146.192 57.3263C146.522 57.4394 146.823 57.6232 147.095 57.8776C147.366 58.1292 147.583 58.4628 147.744 58.8783C147.905 59.2939 147.985 59.8056 147.985 60.4134V60.8374H142.965V59.9724H146.968C146.968 59.6049 146.894 59.2769 146.747 58.9886C146.603 58.7002 146.397 58.4727 146.128 58.3059C145.862 58.1391 145.548 58.0557 145.187 58.0557C144.788 58.0557 144.443 58.1546 144.152 58.3525C143.864 58.5476 143.642 58.802 143.486 59.1158C143.331 59.4296 143.253 59.766 143.253 60.125V60.7017C143.253 61.1936 143.338 61.6106 143.507 61.9527C143.68 62.2919 143.919 62.5506 144.224 62.7287C144.529 62.904 144.884 62.9916 145.288 62.9916C145.551 62.9916 145.789 62.9548 146.001 62.8813C146.216 62.805 146.401 62.6919 146.556 62.5421C146.712 62.3894 146.832 62.2 146.917 61.9739L147.884 62.2453C147.782 62.5732 147.611 62.8616 147.37 63.1103C147.13 63.3563 146.833 63.5485 146.48 63.687C146.127 63.8227 145.729 63.8906 145.288 63.8906ZM149.643 63.7549V55.0704H150.644V58.2762H150.729C150.802 58.1631 150.904 58.0189 151.034 57.8437C151.167 57.6656 151.357 57.5073 151.602 57.3687C151.851 57.2274 152.188 57.1567 152.612 57.1567C153.16 57.1567 153.644 57.2938 154.062 57.568C154.48 57.8422 154.807 58.231 155.041 58.7342C155.276 59.2374 155.393 59.831 155.393 60.5152C155.393 61.2049 155.276 61.8029 155.041 62.3089C154.807 62.8121 154.482 63.2022 154.066 63.4793C153.651 63.7535 153.171 63.8906 152.629 63.8906C152.21 63.8906 151.875 63.8213 151.624 63.6828C151.372 63.5414 151.178 63.3817 151.043 63.2036C150.907 63.0227 150.802 62.8729 150.729 62.7541H150.61V63.7549H149.643ZM150.627 60.4982C150.627 60.9901 150.699 61.424 150.843 61.8C150.988 62.1732 151.198 62.4658 151.475 62.6778C151.752 62.887 152.092 62.9916 152.493 62.9916C152.911 62.9916 153.26 62.8813 153.54 62.6608C153.823 62.4375 154.035 62.1378 154.176 61.7619C154.321 61.383 154.393 60.9618 154.393 60.4982C154.393 60.0402 154.322 59.6275 154.181 59.26C154.042 58.8896 153.832 58.5971 153.549 58.3822C153.269 58.1645 152.917 58.0557 152.493 58.0557C152.086 58.0557 151.744 58.1589 151.467 58.3652C151.19 58.5688 150.981 58.8543 150.839 59.2218C150.698 59.5865 150.627 60.012 150.627 60.4982ZM161.538 58.7002L160.639 58.9547C160.582 58.8048 160.499 58.6592 160.389 58.5179C160.281 58.3737 160.134 58.255 159.948 58.1617C159.761 58.0684 159.522 58.0218 159.231 58.0218C158.832 58.0218 158.5 58.1136 158.235 58.2974C157.972 58.4783 157.84 58.7087 157.84 58.9886C157.84 59.2374 157.931 59.4338 158.112 59.578C158.293 59.7222 158.575 59.8423 158.96 59.9385L159.927 60.1759C160.509 60.3173 160.943 60.5335 161.228 60.8247C161.514 61.1131 161.657 61.4848 161.657 61.94C161.657 62.3131 161.549 62.6467 161.334 62.9407C161.122 63.2347 160.826 63.4665 160.444 63.6361C160.062 63.8058 159.618 63.8906 159.112 63.8906C158.448 63.8906 157.898 63.7464 157.463 63.458C157.027 63.1697 156.752 62.7485 156.636 62.1944L157.586 61.9569C157.676 62.3075 157.847 62.5704 158.099 62.7456C158.353 62.9209 158.685 63.0086 159.095 63.0086C159.562 63.0086 159.932 62.9096 160.206 62.7117C160.483 62.511 160.622 62.2707 160.622 61.9908C160.622 61.7647 160.543 61.5753 160.385 61.4226C160.226 61.2671 159.983 61.1512 159.655 61.0749L158.57 60.8205C157.973 60.6791 157.535 60.46 157.255 60.1632C156.978 59.8635 156.839 59.489 156.839 59.0395C156.839 58.672 156.943 58.3469 157.149 58.0642C157.358 57.7815 157.642 57.5595 158.001 57.3984C158.363 57.2373 158.773 57.1567 159.231 57.1567C159.876 57.1567 160.382 57.2981 160.749 57.5808C161.12 57.8634 161.382 58.2366 161.538 58.7002ZM163.163 63.7549V57.2415H164.164V63.7549H163.163ZM163.672 56.156C163.477 56.156 163.309 56.0895 163.167 55.9566C163.029 55.8238 162.96 55.6641 162.96 55.4775C162.96 55.2909 163.029 55.1312 163.167 54.9983C163.309 54.8654 163.477 54.799 163.672 54.799C163.867 54.799 164.034 54.8654 164.172 54.9983C164.314 55.1312 164.384 55.2909 164.384 55.4775C164.384 55.6641 164.314 55.8238 164.172 55.9566C164.034 56.0895 163.867 56.156 163.672 56.156ZM168.829 57.2415V58.0896H165.454V57.2415H168.829ZM166.438 55.681H167.439V61.8891C167.439 62.1718 167.48 62.3838 167.562 62.5251C167.646 62.6637 167.754 62.757 167.884 62.805C168.017 62.8502 168.157 62.8729 168.304 62.8729C168.414 62.8729 168.504 62.8672 168.575 62.8559C168.646 62.8418 168.702 62.8305 168.745 62.822L168.948 63.721C168.88 63.7464 168.786 63.7718 168.664 63.7973C168.542 63.8256 168.388 63.8397 168.202 63.8397C167.919 63.8397 167.642 63.7789 167.371 63.6574C167.102 63.5358 166.879 63.3506 166.701 63.1018C166.525 62.8531 166.438 62.5393 166.438 62.1605V55.681ZM172.996 63.8906C172.368 63.8906 171.827 63.7521 171.372 63.475C170.919 63.1951 170.57 62.805 170.324 62.3046C170.081 61.8014 169.959 61.2163 169.959 60.5491C169.959 59.8819 170.081 59.2939 170.324 58.785C170.57 58.2734 170.912 57.8748 171.35 57.5892C171.791 57.3009 172.306 57.1567 172.894 57.1567C173.233 57.1567 173.568 57.2132 173.899 57.3263C174.23 57.4394 174.531 57.6232 174.802 57.8776C175.074 58.1292 175.29 58.4628 175.451 58.8783C175.612 59.2939 175.693 59.8056 175.693 60.4134V60.8374H170.672V59.9724H174.675C174.675 59.6049 174.601 59.2769 174.454 58.9886C174.31 58.7002 174.104 58.4727 173.835 58.3059C173.57 58.1391 173.256 58.0557 172.894 58.0557C172.495 58.0557 172.15 58.1546 171.859 58.3525C171.571 58.5476 171.349 58.802 171.193 59.1158C171.038 59.4296 170.96 59.766 170.96 60.125V60.7017C170.96 61.1936 171.045 61.6106 171.215 61.9527C171.387 62.2919 171.626 62.5506 171.931 62.7287C172.237 62.904 172.591 62.9916 172.996 62.9916C173.259 62.9916 173.496 62.9548 173.708 62.8813C173.923 62.805 174.108 62.6919 174.264 62.5421C174.419 62.3894 174.539 62.2 174.624 61.9739L175.591 62.2453C175.489 62.5732 175.318 62.8616 175.078 63.1103C174.837 63.3563 174.541 63.5485 174.187 63.687C173.834 63.8227 173.437 63.8906 172.996 63.8906ZM177.944 63.8227C177.735 63.8227 177.556 63.7478 177.406 63.598C177.256 63.4482 177.181 63.2686 177.181 63.0594C177.181 62.8502 177.256 62.6707 177.406 62.5209C177.556 62.3711 177.735 62.2962 177.944 62.2962C178.153 62.2962 178.333 62.3711 178.483 62.5209C178.633 62.6707 178.708 62.8502 178.708 63.0594C178.708 63.198 178.672 63.3252 178.602 63.4411C178.534 63.557 178.442 63.6503 178.326 63.721C178.213 63.7888 178.086 63.8227 177.944 63.8227ZM183.149 63.8906C182.539 63.8906 182.013 63.7464 181.572 63.458C181.131 63.1697 180.792 62.7725 180.554 62.2665C180.317 61.7604 180.198 61.1823 180.198 60.5321C180.198 59.8706 180.32 59.2868 180.563 58.7808C180.809 58.2719 181.151 57.8748 181.589 57.5892C182.03 57.3009 182.545 57.1567 183.133 57.1567C183.59 57.1567 184.003 57.2415 184.371 57.4111C184.738 57.5808 185.039 57.8182 185.274 58.1235C185.509 58.4288 185.654 58.785 185.711 59.1921H184.71C184.634 58.8953 184.464 58.6324 184.201 58.4034C183.941 58.1716 183.59 58.0557 183.149 58.0557C182.759 58.0557 182.417 58.1575 182.123 58.361C181.832 58.5617 181.605 58.8458 181.441 59.2133C181.279 59.578 181.199 60.0063 181.199 60.4982C181.199 61.0014 181.278 61.4396 181.436 61.8127C181.597 62.1859 181.824 62.4757 182.115 62.682C182.409 62.8884 182.754 62.9916 183.149 62.9916C183.41 62.9916 183.646 62.9464 183.858 62.8559C184.07 62.7654 184.249 62.6354 184.396 62.4658C184.543 62.2962 184.648 62.0926 184.71 61.8552H185.711C185.654 62.2396 185.514 62.5859 185.291 62.8941C185.07 63.1994 184.778 63.4425 184.413 63.6234C184.051 63.8015 183.63 63.8906 183.149 63.8906ZM189.82 63.8906C189.232 63.8906 188.716 63.7506 188.272 63.4708C187.831 63.1909 187.486 62.7994 187.237 62.2962C186.991 61.793 186.868 61.2049 186.868 60.5321C186.868 59.8536 186.991 59.2614 187.237 58.7554C187.486 58.2493 187.831 57.8564 188.272 57.5765C188.716 57.2966 189.232 57.1567 189.82 57.1567C190.408 57.1567 190.922 57.2966 191.363 57.5765C191.807 57.8564 192.152 58.2493 192.398 58.7554C192.647 59.2614 192.771 59.8536 192.771 60.5321C192.771 61.2049 192.647 61.793 192.398 62.2962C192.152 62.7994 191.807 63.1909 191.363 63.4708C190.922 63.7506 190.408 63.8906 189.82 63.8906ZM189.82 62.9916C190.266 62.9916 190.634 62.8771 190.922 62.6481C191.211 62.4191 191.424 62.1181 191.563 61.7449C191.701 61.3717 191.77 60.9675 191.77 60.5321C191.77 60.0968 191.701 59.6911 191.563 59.3151C191.424 58.9391 191.211 58.6352 190.922 58.4034C190.634 58.1716 190.266 58.0557 189.82 58.0557C189.373 58.0557 189.006 58.1716 188.717 58.4034C188.429 58.6352 188.215 58.9391 188.077 59.3151C187.938 59.6911 187.869 60.0968 187.869 60.5321C187.869 60.9675 187.938 61.3717 188.077 61.7449C188.215 62.1181 188.429 62.4191 188.717 62.6481C189.006 62.8771 189.373 62.9916 189.82 62.9916ZM194.299 63.7549V57.2415H195.266V58.2592H195.35C195.486 57.9115 195.705 57.6415 196.008 57.4493C196.31 57.2542 196.673 57.1567 197.097 57.1567C197.527 57.1567 197.885 57.2542 198.17 57.4493C198.459 57.6415 198.683 57.9115 198.845 58.2592H198.912C199.079 57.9228 199.329 57.6557 199.663 57.4578C199.997 57.2571 200.397 57.1567 200.863 57.1567C201.445 57.1567 201.922 57.339 202.292 57.7037C202.662 58.0656 202.848 58.6296 202.848 59.3957V63.7549H201.847V59.3957C201.847 58.9151 201.715 58.5716 201.452 58.3652C201.19 58.1589 200.88 58.0557 200.524 58.0557C200.066 58.0557 199.711 58.1942 199.459 58.4713C199.208 58.7455 199.082 59.0932 199.082 59.5144V63.7549H198.064V59.2939C198.064 58.9236 197.944 58.6253 197.704 58.3992C197.464 58.1702 197.154 58.0557 196.775 58.0557C196.515 58.0557 196.272 58.1249 196.046 58.2635C195.822 58.402 195.642 58.5942 195.503 58.8402C195.367 59.0833 195.3 59.3646 195.3 59.684V63.7549H194.299Z" fill="#B1B1B1"/>
<path d="M285.505 105.671C285.505 105.671 294.033 100.834 305.923 102.399C328.536 105.376 324.479 88.3267 329.315 77.9972C333.738 68.5468 340.692 71.3157 350.961 78.0044C358.535 82.9376 370.03 91.5971 377.79 87.2189C384.884 83.2168 386.212 68.4618 395.717 61.8627C403.251 56.6325 412.289 61.7685 421.112 56.2223C433.081 48.6984 430.895 34.7931 440.22 31.8976C451.729 28.3239 466.308 49.8216 476.778 46.5705C487.186 43.3386 485.256 18.2115 498.853 21.7993C509.248 24.5422 508.07 2.99996 508.07 2.99996" stroke="#008744" stroke-width="3" stroke-linecap="round" stroke-linejoin="round"/>
<path d="M320.834 34.5239V44.6668H319.167V34.5239L314.697 38.9938L313.519 37.8153L320 31.3335L326.482 37.8153L325.304 38.9938L320.834 34.5239Z" fill="#008744"/>
<path d="M341.422 41.0341V35.2727H342.568V41.0341H341.422ZM339.116 38.7244V37.5824H344.878V38.7244H339.116ZM346.48 42.5V41.5455L349.433 38.4858C349.749 38.1534 350.009 37.8622 350.213 37.6122C350.42 37.3594 350.575 37.1193 350.678 36.892C350.78 36.6648 350.831 36.4233 350.831 36.1676C350.831 35.8778 350.763 35.6278 350.626 35.4176C350.49 35.2045 350.304 35.0412 350.068 34.9276C349.832 34.8111 349.567 34.7528 349.271 34.7528C348.959 34.7528 348.686 34.8168 348.453 34.9446C348.22 35.0724 348.041 35.2528 347.916 35.4858C347.791 35.7187 347.729 35.9915 347.729 36.304H346.472C346.472 35.7727 346.594 35.3082 346.838 34.9105C347.082 34.5128 347.418 34.2045 347.844 33.9858C348.27 33.7642 348.754 33.6534 349.297 33.6534C349.845 33.6534 350.328 33.7628 350.746 33.9815C351.166 34.1974 351.494 34.4929 351.73 34.8679C351.966 35.2401 352.084 35.6605 352.084 36.1293C352.084 36.4531 352.023 36.7699 351.901 37.0795C351.781 37.3892 351.572 37.7344 351.274 38.1151C350.976 38.4929 350.561 38.9517 350.03 39.4915L348.295 41.3068V41.3707H352.224V42.5H346.48ZM356.878 42.6193C356.293 42.6193 355.77 42.5185 355.31 42.3168C354.852 42.1151 354.49 41.8352 354.223 41.4773C353.959 41.1165 353.817 40.6989 353.797 40.2244H355.135C355.152 40.483 355.239 40.7074 355.395 40.8977C355.554 41.0852 355.761 41.2301 356.017 41.3324C356.273 41.4347 356.557 41.4858 356.869 41.4858C357.213 41.4858 357.517 41.4261 357.781 41.3068C358.048 41.1875 358.257 41.0213 358.408 40.8082C358.558 40.5923 358.634 40.3438 358.634 40.0625C358.634 39.7699 358.558 39.5128 358.408 39.2912C358.26 39.0668 358.043 38.8906 357.756 38.7628C357.472 38.6349 357.128 38.571 356.724 38.571H355.987V37.4972H356.724C357.048 37.4972 357.332 37.4389 357.577 37.3224C357.824 37.206 358.017 37.044 358.156 36.8366C358.295 36.6264 358.365 36.3807 358.365 36.0994C358.365 35.8295 358.304 35.5952 358.182 35.3963C358.063 35.1946 357.892 35.0369 357.67 34.9233C357.452 34.8097 357.193 34.7528 356.895 34.7528C356.611 34.7528 356.345 34.8054 356.098 34.9105C355.854 35.0128 355.655 35.1605 355.501 35.3537C355.348 35.544 355.266 35.7727 355.254 36.0398H353.98C353.994 35.5682 354.134 35.1534 354.398 34.7955C354.665 34.4375 355.017 34.1577 355.455 33.956C355.892 33.7543 356.378 33.6534 356.912 33.6534C357.472 33.6534 357.955 33.7628 358.361 33.9815C358.77 34.1974 359.085 34.4858 359.307 34.8466C359.531 35.2074 359.642 35.6023 359.639 36.0312C359.642 36.5199 359.506 36.9347 359.23 37.2756C358.957 37.6165 358.594 37.8452 358.139 37.9616V38.0298C358.719 38.1179 359.168 38.348 359.486 38.7202C359.807 39.0923 359.966 39.554 359.963 40.1051C359.966 40.5852 359.832 41.0156 359.562 41.3963C359.295 41.777 358.93 42.0767 358.467 42.2955C358.004 42.5114 357.474 42.6193 356.878 42.6193ZM366.129 40.8636V40.4034C366.129 40.0739 366.197 39.7727 366.334 39.5C366.473 39.2244 366.675 39.0043 366.939 38.8395C367.206 38.6719 367.528 38.5881 367.906 38.5881C368.293 38.5881 368.616 38.6705 368.878 38.8352C369.139 39 369.337 39.2202 369.47 39.4957C369.607 39.7713 369.675 40.0739 369.675 40.4034V40.8636C369.675 41.1932 369.607 41.4957 369.47 41.7713C369.334 42.044 369.134 42.2642 368.869 42.4318C368.608 42.5966 368.287 42.679 367.906 42.679C367.523 42.679 367.199 42.5966 366.935 42.4318C366.67 42.2642 366.47 42.044 366.334 41.7713C366.197 41.4957 366.129 41.1932 366.129 40.8636ZM367.122 40.4034V40.8636C367.122 41.108 367.18 41.3295 367.297 41.5284C367.413 41.7273 367.616 41.8267 367.906 41.8267C368.193 41.8267 368.393 41.7273 368.507 41.5284C368.621 41.3295 368.678 41.108 368.678 40.8636V40.4034C368.678 40.1591 368.622 39.9375 368.511 39.7386C368.403 39.5398 368.202 39.4403 367.906 39.4403C367.622 39.4403 367.42 39.5398 367.301 39.7386C367.182 39.9375 367.122 40.1591 367.122 40.4034ZM361.74 35.8693V35.4091C361.74 35.0795 361.808 34.777 361.945 34.5014C362.084 34.2259 362.286 34.0057 362.55 33.8409C362.817 33.6761 363.139 33.5938 363.517 33.5938C363.903 33.5938 364.227 33.6761 364.489 33.8409C364.75 34.0057 364.947 34.2259 365.081 34.5014C365.214 34.777 365.281 35.0795 365.281 35.4091V35.8693C365.281 36.1989 365.213 36.5014 365.077 36.777C364.943 37.0497 364.744 37.2699 364.48 37.4375C364.219 37.6023 363.898 37.6847 363.517 37.6847C363.131 37.6847 362.805 37.6023 362.541 37.4375C362.28 37.2699 362.081 37.0497 361.945 36.777C361.808 36.5014 361.74 36.1989 361.74 35.8693ZM362.737 35.4091V35.8693C362.737 36.1136 362.794 36.3352 362.908 36.5341C363.024 36.733 363.227 36.8324 363.517 36.8324C363.801 36.8324 364 36.733 364.114 36.5341C364.23 36.3352 364.288 36.1136 364.288 35.8693V35.4091C364.288 35.1648 364.233 34.9432 364.122 34.7443C364.011 34.5455 363.81 34.446 363.517 34.446C363.233 34.446 363.031 34.5455 362.912 34.7443C362.795 34.9432 362.737 35.1648 362.737 35.4091ZM362.145 42.5L368.145 33.7727H369.163L363.163 42.5H362.145ZM374.376 34.9062V33.7727H381.13V34.9062H378.407V42.5H377.095V34.9062H374.376ZM381.841 42.5V35.9545H383.072V36.9943H383.141C383.26 36.642 383.47 36.3651 383.771 36.1634C384.075 35.9588 384.419 35.8565 384.803 35.8565C384.882 35.8565 384.976 35.8594 385.084 35.8651C385.195 35.8707 385.281 35.8778 385.344 35.8864V37.1051C385.293 37.0909 385.202 37.0753 385.071 37.0582C384.94 37.0384 384.81 37.0284 384.679 37.0284C384.378 37.0284 384.109 37.0923 383.874 37.2202C383.641 37.3452 383.456 37.5199 383.32 37.7443C383.183 37.9659 383.115 38.2187 383.115 38.5028V42.5H381.841ZM388.293 42.6449C387.878 42.6449 387.503 42.5682 387.168 42.4148C386.832 42.2585 386.567 42.0327 386.371 41.7372C386.178 41.4418 386.081 41.0795 386.081 40.6506C386.081 40.2812 386.152 39.9773 386.294 39.7386C386.436 39.5 386.628 39.3111 386.869 39.1719C387.111 39.0327 387.381 38.9276 387.679 38.8565C387.977 38.7855 388.281 38.7315 388.591 38.6946C388.983 38.6491 389.301 38.6122 389.545 38.5838C389.79 38.5526 389.967 38.5028 390.078 38.4347C390.189 38.3665 390.244 38.2557 390.244 38.1023V38.0724C390.244 37.7003 390.139 37.4119 389.929 37.2074C389.722 37.0028 389.412 36.9006 389 36.9006C388.571 36.9006 388.233 36.9957 387.986 37.1861C387.741 37.3736 387.572 37.5824 387.479 37.8125L386.281 37.5398C386.423 37.142 386.631 36.821 386.903 36.5767C387.179 36.3295 387.496 36.1506 387.854 36.0398C388.212 35.9261 388.588 35.8693 388.983 35.8693C389.244 35.8693 389.521 35.9006 389.814 35.9631C390.109 36.0227 390.385 36.1335 390.641 36.2955C390.899 36.4574 391.111 36.6889 391.276 36.9901C391.44 37.2884 391.523 37.6761 391.523 38.1534V42.5H390.278V41.6051H390.227C390.145 41.7699 390.021 41.9318 389.857 42.0909C389.692 42.25 389.48 42.3821 389.222 42.4872C388.963 42.5923 388.653 42.6449 388.293 42.6449ZM388.57 41.6222C388.922 41.6222 389.223 41.5526 389.473 41.4134C389.726 41.2741 389.918 41.0923 390.048 40.8679C390.182 40.6406 390.249 40.3977 390.249 40.1392V39.2955C390.203 39.3409 390.115 39.3835 389.984 39.4233C389.857 39.4602 389.71 39.4929 389.545 39.5213C389.381 39.5469 389.22 39.571 389.064 39.5938C388.908 39.6136 388.777 39.6307 388.672 39.6449C388.425 39.6761 388.199 39.7287 387.994 39.8026C387.793 39.8764 387.631 39.983 387.509 40.1222C387.389 40.2585 387.33 40.4403 387.33 40.6676C387.33 40.983 387.446 41.2216 387.679 41.3835C387.912 41.5426 388.209 41.6222 388.57 41.6222ZM396.335 35.9545V36.9773H392.636V35.9545H396.335ZM393.65 42.5V35.196C393.65 34.7869 393.74 34.4474 393.919 34.1776C394.098 33.9048 394.335 33.7017 394.63 33.5682C394.926 33.4318 395.247 33.3636 395.593 33.3636C395.849 33.3636 396.068 33.3849 396.25 33.4276C396.431 33.4673 396.566 33.5043 396.654 33.5384L396.356 34.5696C396.297 34.5526 396.22 34.5327 396.126 34.5099C396.032 34.4844 395.919 34.4716 395.785 34.4716C395.475 34.4716 395.254 34.5483 395.12 34.7017C394.99 34.8551 394.924 35.0767 394.924 35.3665V42.5H393.65ZM400.765 35.9545V36.9773H397.066V35.9545H400.765ZM398.08 42.5V35.196C398.08 34.7869 398.169 34.4474 398.348 34.1776C398.527 33.9048 398.765 33.7017 399.06 33.5682C399.355 33.4318 399.676 33.3636 400.023 33.3636C400.279 33.3636 400.498 33.3849 400.679 33.4276C400.861 33.4673 400.996 33.5043 401.084 33.5384L400.786 34.5696C400.726 34.5526 400.65 34.5327 400.556 34.5099C400.462 34.4844 400.348 34.4716 400.215 34.4716C399.905 34.4716 399.684 34.5483 399.55 34.7017C399.419 34.8551 399.354 35.0767 399.354 35.3665V42.5H398.08ZM402.079 42.5V35.9545H403.353V42.5H402.079ZM402.723 34.9446C402.501 34.9446 402.311 34.8707 402.152 34.723C401.995 34.5724 401.917 34.3935 401.917 34.1861C401.917 33.9759 401.995 33.7969 402.152 33.6491C402.311 33.4986 402.501 33.4233 402.723 33.4233C402.944 33.4233 403.133 33.4986 403.289 33.6491C403.449 33.7969 403.528 33.9759 403.528 34.1861C403.528 34.3935 403.449 34.5724 403.289 34.723C403.133 34.8707 402.944 34.9446 402.723 34.9446ZM407.825 42.6321C407.191 42.6321 406.646 42.4886 406.188 42.2017C405.734 41.9119 405.384 41.5128 405.14 41.0043C404.896 40.4957 404.773 39.9134 404.773 39.2571C404.773 38.5923 404.898 38.0057 405.148 37.4972C405.398 36.9858 405.751 36.5866 406.205 36.2997C406.66 36.0128 407.195 35.8693 407.812 35.8693C408.309 35.8693 408.752 35.9616 409.141 36.1463C409.531 36.3281 409.844 36.5838 410.083 36.9134C410.325 37.2429 410.468 37.6278 410.513 38.0682H409.273C409.205 37.7614 409.049 37.4972 408.805 37.2756C408.563 37.054 408.239 36.9432 407.833 36.9432C407.478 36.9432 407.167 37.0369 406.9 37.2244C406.636 37.4091 406.43 37.6733 406.282 38.017C406.134 38.358 406.06 38.7614 406.06 39.2273C406.06 39.7045 406.133 40.1165 406.278 40.4631C406.423 40.8097 406.627 41.0781 406.891 41.2685C407.158 41.4588 407.472 41.554 407.833 41.554C408.075 41.554 408.293 41.5099 408.489 41.4219C408.688 41.331 408.854 41.2017 408.988 41.0341C409.124 40.8665 409.219 40.6648 409.273 40.429H410.513C410.468 40.8523 410.33 41.2301 410.1 41.5625C409.87 41.8949 409.562 42.1562 409.175 42.3466C408.792 42.5369 408.342 42.6321 407.825 42.6321Z" fill="#E0E0E0"/>
</g>
<rect x="0.497549" y="0.497549" width="494.564" height="98.5147" rx="19.4044" stroke="#303030" stroke-width="0.995098"/>
<g filter="url(#filter0_bdddd_123_399)">
<rect x="20" y="127" width="47" height="47" rx="23.5" fill="#2E2E2E" fill-opacity="0.64"/>
<rect x="20.5" y="127.5" width="46" height="46" rx="23" stroke="#545454"/>
<path d="M51.0131 142.25H34V159.337H39.7447V153.813H45.3421V147.995H51.0131V142.25Z" fill="#BDBDBD"/>
<path d="M53.5131 141H36.5V158.087H42.2447V152.563H47.8421V146.745H53.5131V141Z" fill="white"/>
<path d="M34 142.25L36.5005 141V158.087L34 159.337V142.25Z" fill="#D9D9D9"/>
</g>
<path d="M83.8608 142V133.273H87.1335C87.804 133.273 88.3665 133.398 88.821 133.648C89.2784 133.898 89.6236 134.241 89.8565 134.679C90.0923 135.114 90.2102 135.608 90.2102 136.162C90.2102 136.722 90.0923 137.219 89.8565 137.653C89.6207 138.088 89.2727 138.43 88.8125 138.68C88.3523 138.928 87.7855 139.051 87.1122 139.051H84.9432V137.751H86.8991C87.2912 137.751 87.6122 137.683 87.8622 137.547C88.1122 137.411 88.2969 137.223 88.4162 136.984C88.5384 136.746 88.5994 136.472 88.5994 136.162C88.5994 135.852 88.5384 135.58 88.4162 135.344C88.2969 135.108 88.1108 134.925 87.858 134.794C87.608 134.661 87.2855 134.594 86.8906 134.594H85.4418V142H83.8608ZM94.2766 142.128C93.6374 142.128 93.0835 141.987 92.6147 141.706C92.146 141.425 91.7823 141.031 91.5238 140.526C91.2681 140.02 91.1403 139.429 91.1403 138.753C91.1403 138.077 91.2681 137.484 91.5238 136.976C91.7823 136.467 92.146 136.072 92.6147 135.791C93.0835 135.51 93.6374 135.369 94.2766 135.369C94.9158 135.369 95.4698 135.51 95.9386 135.791C96.4073 136.072 96.7695 136.467 97.0252 136.976C97.2837 137.484 97.413 138.077 97.413 138.753C97.413 139.429 97.2837 140.02 97.0252 140.526C96.7695 141.031 96.4073 141.425 95.9386 141.706C95.4698 141.987 94.9158 142.128 94.2766 142.128ZM94.2852 140.892C94.6317 140.892 94.9215 140.797 95.1545 140.607C95.3874 140.413 95.5607 140.155 95.6744 139.831C95.7908 139.507 95.8491 139.146 95.8491 138.749C95.8491 138.348 95.7908 137.986 95.6744 137.662C95.5607 137.335 95.3874 137.075 95.1545 136.882C94.9215 136.689 94.6317 136.592 94.2852 136.592C93.93 136.592 93.6346 136.689 93.3988 136.882C93.1658 137.075 92.9911 137.335 92.8746 137.662C92.761 137.986 92.7042 138.348 92.7042 138.749C92.7042 139.146 92.761 139.507 92.8746 139.831C92.9911 140.155 93.1658 140.413 93.3988 140.607C93.6346 140.797 93.93 140.892 94.2852 140.892ZM103.896 137.185L102.489 137.338C102.45 137.196 102.38 137.062 102.281 136.938C102.184 136.812 102.053 136.712 101.888 136.635C101.724 136.558 101.522 136.52 101.283 136.52C100.962 136.52 100.692 136.589 100.474 136.729C100.258 136.868 100.151 137.048 100.154 137.27C100.151 137.46 100.221 137.615 100.363 137.734C100.508 137.854 100.746 137.952 101.079 138.028L102.195 138.267C102.815 138.401 103.275 138.612 103.576 138.902C103.88 139.192 104.033 139.571 104.036 140.04C104.033 140.452 103.913 140.815 103.674 141.131C103.438 141.443 103.11 141.687 102.69 141.864C102.269 142.04 101.786 142.128 101.241 142.128C100.44 142.128 99.7947 141.96 99.3061 141.625C98.8175 141.287 98.5263 140.817 98.4325 140.214L99.9368 140.07C100.005 140.365 100.15 140.588 100.371 140.739C100.593 140.889 100.881 140.964 101.237 140.964C101.603 140.964 101.897 140.889 102.119 140.739C102.343 140.588 102.455 140.402 102.455 140.18C102.455 139.993 102.383 139.838 102.238 139.716C102.096 139.594 101.874 139.5 101.573 139.435L100.457 139.2C99.8288 139.07 99.3643 138.849 99.0632 138.54C98.7621 138.227 98.6129 137.832 98.6158 137.355C98.6129 136.952 98.7223 136.602 98.9439 136.307C99.1683 136.009 99.4794 135.778 99.8771 135.616C100.278 135.452 100.739 135.369 101.262 135.369C102.029 135.369 102.633 135.533 103.073 135.859C103.516 136.186 103.79 136.628 103.896 137.185ZM108.577 135.455V136.648H104.814V135.455H108.577ZM105.743 133.886H107.286V140.031C107.286 140.239 107.317 140.398 107.379 140.509C107.445 140.616 107.53 140.69 107.635 140.73C107.74 140.77 107.857 140.79 107.984 140.79C108.081 140.79 108.169 140.783 108.249 140.768C108.331 140.754 108.393 140.741 108.436 140.73L108.696 141.936C108.614 141.964 108.496 141.996 108.342 142.03C108.192 142.064 108.007 142.084 107.788 142.089C107.402 142.101 107.054 142.043 106.744 141.915C106.435 141.784 106.189 141.582 106.007 141.31C105.828 141.037 105.74 140.696 105.743 140.287V133.886ZM113.623 137.73V139H109.694V137.73H113.623ZM118.778 133.273V142H117.197V134.811H117.146L115.105 136.115V134.666L117.274 133.273H118.778Z" fill="#585858"/>
<rect x="83" y="150" width="370" height="22" rx="6.96569" fill="url(#paint0_linear_123_399)"/>
<line x1="45.5" y1="100" x2="45.5" y2="127" stroke="#CCCBCA"/>
<line x1="45.5" y1="174" x2="45.5" y2="201" stroke="#CCCBCA"/>
<line x1="45.5" y1="241" x2="45.5" y2="277" stroke="url(#paint1_linear_123_399)"/>
<g filter="url(#filter1_bdddd_123_399)">
<rect x="20" y="199" width="47" height="47" rx="23.5" fill="#2E2E2E" fill-opacity="0.64"/>
<rect x="20.5" y="199.5" width="46" height="46" rx="23" stroke="#545454"/>
<path d="M51.0131 214.25H34V231.337H39.7447V225.813H45.3421V219.995H51.0131V214.25Z" fill="#BDBDBD"/>
<path d="M53.5131 213H36.5V230.087H42.2447V224.563H47.8421V218.745H53.5131V213Z" fill="white"/>
<path d="M34 214.25L36.5005 213V230.087L34 231.337V214.25Z" fill="#D9D9D9"/>
</g>
<path d="M83.8608 214V205.273H87.1335C87.804 205.273 88.3665 205.398 88.821 205.648C89.2784 205.898 89.6236 206.241 89.8565 206.679C90.0923 207.114 90.2102 207.608 90.2102 208.162C90.2102 208.722 90.0923 209.219 89.8565 209.653C89.6207 210.088 89.2727 210.43 88.8125 210.68C88.3523 210.928 87.7855 211.051 87.1122 211.051H84.9432V209.751H86.8991C87.2912 209.751 87.6122 209.683 87.8622 209.547C88.1122 209.411 88.2969 209.223 88.4162 208.984C88.5384 208.746 88.5994 208.472 88.5994 208.162C88.5994 207.852 88.5384 207.58 88.4162 207.344C88.2969 207.108 88.1108 206.925 87.858 206.794C87.608 206.661 87.2855 206.594 86.8906 206.594H85.4418V214H83.8608ZM94.2766 214.128C93.6374 214.128 93.0835 213.987 92.6147 213.706C92.146 213.425 91.7823 213.031 91.5238 212.526C91.2681 212.02 91.1403 211.429 91.1403 210.753C91.1403 210.077 91.2681 209.484 91.5238 208.976C91.7823 208.467 92.146 208.072 92.6147 207.791C93.0835 207.51 93.6374 207.369 94.2766 207.369C94.9158 207.369 95.4698 207.51 95.9386 207.791C96.4073 208.072 96.7695 208.467 97.0252 208.976C97.2837 209.484 97.413 210.077 97.413 210.753C97.413 211.429 97.2837 212.02 97.0252 212.526C96.7695 213.031 96.4073 213.425 95.9386 213.706C95.4698 213.987 94.9158 214.128 94.2766 214.128ZM94.2852 212.892C94.6317 212.892 94.9215 212.797 95.1545 212.607C95.3874 212.413 95.5607 212.155 95.6744 211.831C95.7908 211.507 95.8491 211.146 95.8491 210.749C95.8491 210.348 95.7908 209.986 95.6744 209.662C95.5607 209.335 95.3874 209.075 95.1545 208.882C94.9215 208.689 94.6317 208.592 94.2852 208.592C93.93 208.592 93.6346 208.689 93.3988 208.882C93.1658 209.075 92.9911 209.335 92.8746 209.662C92.761 209.986 92.7042 210.348 92.7042 210.749C92.7042 211.146 92.761 211.507 92.8746 211.831C92.9911 212.155 93.1658 212.413 93.3988 212.607C93.6346 212.797 93.93 212.892 94.2852 212.892ZM103.896 209.185L102.489 209.338C102.45 209.196 102.38 209.062 102.281 208.938C102.184 208.812 102.053 208.712 101.888 208.635C101.724 208.558 101.522 208.52 101.283 208.52C100.962 208.52 100.692 208.589 100.474 208.729C100.258 208.868 100.151 209.048 100.154 209.27C100.151 209.46 100.221 209.615 100.363 209.734C100.508 209.854 100.746 209.952 101.079 210.028L102.195 210.267C102.815 210.401 103.275 210.612 103.576 210.902C103.88 211.192 104.033 211.571 104.036 212.04C104.033 212.452 103.913 212.815 103.674 213.131C103.438 213.443 103.11 213.687 102.69 213.864C102.269 214.04 101.786 214.128 101.241 214.128C100.44 214.128 99.7947 213.96 99.3061 213.625C98.8175 213.287 98.5263 212.817 98.4325 212.214L99.9368 212.07C100.005 212.365 100.15 212.588 100.371 212.739C100.593 212.889 100.881 212.964 101.237 212.964C101.603 212.964 101.897 212.889 102.119 212.739C102.343 212.588 102.455 212.402 102.455 212.18C102.455 211.993 102.383 211.838 102.238 211.716C102.096 211.594 101.874 211.5 101.573 211.435L100.457 211.2C99.8288 211.07 99.3643 210.849 99.0632 210.54C98.7621 210.227 98.6129 209.832 98.6158 209.355C98.6129 208.952 98.7223 208.602 98.9439 208.307C99.1683 208.009 99.4794 207.778 99.8771 207.616C100.278 207.452 100.739 207.369 101.262 207.369C102.029 207.369 102.633 207.533 103.073 207.859C103.516 208.186 103.79 208.628 103.896 209.185ZM108.577 207.455V208.648H104.814V207.455H108.577ZM105.743 205.886H107.286V212.031C107.286 212.239 107.317 212.398 107.379 212.509C107.445 212.616 107.53 212.69 107.635 212.73C107.74 212.77 107.857 212.79 107.984 212.79C108.081 212.79 108.169 212.783 108.249 212.768C108.331 212.754 108.393 212.741 108.436 212.73L108.696 213.936C108.614 213.964 108.496 213.996 108.342 214.03C108.192 214.064 108.007 214.084 107.788 214.089C107.402 214.101 107.054 214.043 106.744 213.915C106.435 213.784 106.189 213.582 106.007 213.31C105.828 213.037 105.74 212.696 105.743 212.287V205.886ZM113.623 209.73V211H109.694V209.73H113.623ZM114.924 214V212.858L117.954 209.888C118.244 209.595 118.485 209.335 118.678 209.108C118.871 208.881 119.016 208.661 119.113 208.447C119.21 208.234 119.258 208.007 119.258 207.766C119.258 207.49 119.195 207.254 119.07 207.058C118.945 206.859 118.773 206.706 118.555 206.598C118.336 206.49 118.087 206.436 117.809 206.436C117.522 206.436 117.271 206.496 117.055 206.615C116.839 206.732 116.671 206.898 116.552 207.114C116.435 207.33 116.377 207.587 116.377 207.885H114.873C114.873 207.331 114.999 206.849 115.252 206.44C115.505 206.031 115.853 205.714 116.296 205.49C116.742 205.266 117.254 205.153 117.83 205.153C118.415 205.153 118.93 205.263 119.373 205.482C119.816 205.7 120.16 206 120.404 206.381C120.651 206.761 120.775 207.196 120.775 207.685C120.775 208.011 120.712 208.332 120.587 208.648C120.462 208.963 120.242 209.312 119.927 209.696C119.614 210.08 119.175 210.544 118.61 211.089L117.106 212.619V212.679H120.907V214H114.924Z" fill="#585858"/>
<rect x="83" y="222" width="370" height="22" rx="6.96569" fill="url(#paint2_linear_123_399)"/>
<defs>
<filter id="filter0_bdddd_123_399" x="7.1" y="114.1" width="72.8" height="87.9" filterUnits="userSpaceOnUse" color-interpolation-filters="sRGB">
<feFlood flood-opacity="0" result="BackgroundImageFix"/>
<feGaussianBlur in="BackgroundImageFix" stdDeviation="6.45"/>
<feComposite in2="SourceAlpha" operator="in" result="effect1_backgroundBlur_123_399"/>
<feColorMatrix in="SourceAlpha" type="matrix" values="0 0 0 0 0 0 0 0 0 0 0 0 0 0 0 0 0 0 127 0" result="hardAlpha"/>
<feOffset dy="1"/>
<feGaussianBlur stdDeviation="1.5"/>
<feColorMatrix type="matrix" values="0 0 0 0 0.396078 0 0 0 0 0.380392 0 0 0 0 0.380392 0 0 0 0.1 0"/>
<feBlend mode="normal" in2="effect1_backgroundBlur_123_399" result="effect2_dropShadow_123_399"/>
<feColorMatrix in="SourceAlpha" type="matrix" values="0 0 0 0 0 0 0 0 0 0 0 0 0 0 0 0 0 0 127 0" result="hardAlpha"/>
<feOffset dy="5"/>
<feGaussianBlur stdDeviation="2.5"/>
<feColorMatrix type="matrix" values="0 0 0 0 0.396078 0 0 0 0 0.380392 0 0 0 0 0.380392 0 0 0 0.09 0"/>
<feBlend mode="normal" in2="effect2_dropShadow_123_399" result="effect3_dropShadow_123_399"/>
<feColorMatrix in="SourceAlpha" type="matrix" values="0 0 0 0 0 0 0 0 0 0 0 0 0 0 0 0 0 0 127 0" result="hardAlpha"/>
<feOffset dy="11"/>
<feGaussianBlur stdDeviation="3.5"/>
<feColorMatrix type="matrix" values="0 0 0 0 0.396078 0 0 0 0 0.380392 0 0 0 0 0.380392 0 0 0 0.05 0"/>
<feBlend mode="normal" in2="effect3_dropShadow_123_399" result="effect4_dropShadow_123_399"/>
<feColorMatrix in="SourceAlpha" type="matrix" values="0 0 0 0 0 0 0 0 0 0 0 0 0 0 0 0 0 0 127 0" result="hardAlpha"/>
<feOffset dy="20"/>
<feGaussianBlur stdDeviation="4"/>
<feColorMatrix type="matrix" values="0 0 0 0 0.396078 0 0 0 0 0.380392 0 0 0 0 0.380392 0 0 0 0.01 0"/>
<feBlend mode="normal" in2="effect4_dropShadow_123_399" result="effect5_dropShadow_123_399"/>
<feBlend mode="normal" in="SourceGraphic" in2="effect5_dropShadow_123_399" result="shape"/>
</filter>
<filter id="filter1_bdddd_123_399" x="7.1" y="186.1" width="72.8" height="87.9" filterUnits="userSpaceOnUse" color-interpolation-filters="sRGB">
<feFlood flood-opacity="0" result="BackgroundImageFix"/>
<feGaussianBlur in="BackgroundImageFix" stdDeviation="6.45"/>
<feComposite in2="SourceAlpha" operator="in" result="effect1_backgroundBlur_123_399"/>
<feColorMatrix in="SourceAlpha" type="matrix" values="0 0 0 0 0 0 0 0 0 0 0 0 0 0 0 0 0 0 127 0" result="hardAlpha"/>
<feOffset dy="1"/>
<feGaussianBlur stdDeviation="1.5"/>
<feColorMatrix type="matrix" values="0 0 0 0 0.396078 0 0 0 0 0.380392 0 0 0 0 0.380392 0 0 0 0.1 0"/>
<feBlend mode="normal" in2="effect1_backgroundBlur_123_399" result="effect2_dropShadow_123_399"/>
<feColorMatrix in="SourceAlpha" type="matrix" values="0 0 0 0 0 0 0 0 0 0 0 0 0 0 0 0 0 0 127 0" result="hardAlpha"/>
<feOffset dy="5"/>
<feGaussianBlur stdDeviation="2.5"/>
<feColorMatrix type="matrix" values="0 0 0 0 0.396078 0 0 0 0 0.380392 0 0 0 0 0.380392 0 0 0 0.09 0"/>
<feBlend mode="normal" in2="effect2_dropShadow_123_399" result="effect3_dropShadow_123_399"/>
<feColorMatrix in="SourceAlpha" type="matrix" values="0 0 0 0 0 0 0 0 0 0 0 0 0 0 0 0 0 0 127 0" result="hardAlpha"/>
<feOffset dy="11"/>
<feGaussianBlur stdDeviation="3.5"/>
<feColorMatrix type="matrix" values="0 0 0 0 0.396078 0 0 0 0 0.380392 0 0 0 0 0.380392 0 0 0 0.05 0"/>
<feBlend mode="normal" in2="effect3_dropShadow_123_399" result="effect4_dropShadow_123_399"/>
<feColorMatrix in="SourceAlpha" type="matrix" values="0 0 0 0 0 0 0 0 0 0 0 0 0 0 0 0 0 0 127 0" result="hardAlpha"/>
<feOffset dy="20"/>
<feGaussianBlur stdDeviation="4"/>
<feColorMatrix type="matrix" values="0 0 0 0 0.396078 0 0 0 0 0.380392 0 0 0 0 0.380392 0 0 0 0.01 0"/>
<feBlend mode="normal" in2="effect4_dropShadow_123_399" result="effect5_dropShadow_123_399"/>
<feBlend mode="normal" in="SourceGraphic" in2="effect5_dropShadow_123_399" result="shape"/>
</filter>
<linearGradient id="paint0_linear_123_399" x1="83" y1="161" x2="453" y2="161" gradientUnits="userSpaceOnUse">
<stop stop-color="#363535"/>
<stop offset="1" stop-color="#363535" stop-opacity="0"/>
</linearGradient>
<linearGradient id="paint1_linear_123_399" x1="44.5" y1="246" x2="44.5" y2="282.5" gradientUnits="userSpaceOnUse">
<stop stop-color="#CCCBCA"/>
<stop offset="1" stop-color="#CCCBCA" stop-opacity="0"/>
</linearGradient>
<linearGradient id="paint2_linear_123_399" x1="83" y1="233" x2="453" y2="233" gradientUnits="userSpaceOnUse">
<stop stop-color="#363535"/>
<stop offset="1" stop-color="#363535" stop-opacity="0"/>
</linearGradient>
<clipPath id="clip0_123_399">
<rect width="495.559" height="99.5098" rx="19.902" fill="white"/>
</clipPath>
</defs>
</svg>
