<svg width="515" height="275" viewBox="0 0 515 275" fill="none" xmlns="http://www.w3.org/2000/svg">
<rect x="0.497549" y="0.497549" width="514.005" height="274.005" rx="19.4044" fill="#141313"/>
<rect x="0.497549" y="0.497549" width="514.005" height="274.005" rx="19.4044" stroke="#303030" stroke-width="0.995098"/>
<g filter="url(#filter0_i_122_895)">
<g clip-path="url(#clip0_122_895)">
<rect x="25" y="61" width="216" height="31" rx="8" fill="#F3F3F3"/>
<rect x="25" y="61" width="216" height="31" fill="#2A85FF"/>
</g>
</g>
<line x1="83.3999" y1="59.3336" x2="45.3335" y2="97.4" stroke="#141313" stroke-width="3.30015" stroke-linecap="round"/>
<line x1="105.914" y1="60.5338" x2="70.2479" y2="96.2002" stroke="#141313" stroke-width="3.30015" stroke-linecap="round"/>
<line x1="128.428" y1="60.5338" x2="92.762" y2="96.2002" stroke="#141313" stroke-width="3.30015" stroke-linecap="round"/>
<line x1="150.943" y1="60.5338" x2="115.276" y2="96.2002" stroke="#141313" stroke-width="3.30015" stroke-linecap="round"/>
<line x1="173.457" y1="60.5338" x2="137.791" y2="96.2002" stroke="#141313" stroke-width="3.30015" stroke-linecap="round"/>
<line x1="195.971" y1="60.5338" x2="160.305" y2="96.2002" stroke="#141313" stroke-width="3.30015" stroke-linecap="round"/>
<line x1="218.486" y1="60.5338" x2="182.819" y2="96.2002" stroke="#141313" stroke-width="3.30015" stroke-linecap="round"/>
<line x1="241" y1="60.5338" x2="205.334" y2="96.2002" stroke="#141313" stroke-width="3.30015" stroke-linecap="round"/>
<g filter="url(#filter1_i_122_895)">
<g clip-path="url(#clip1_122_895)">
<rect x="279" y="61" width="114" height="31" rx="8" fill="#F3F3F3"/>
<rect x="279" y="61" width="114" height="31" fill="#E1432E"/>
</g>
</g>
<g filter="url(#filter2_i_122_895)">
<g clip-path="url(#clip2_122_895)">
<rect x="397" y="61" width="89" height="31" rx="8" fill="#F3F3F3"/>
<rect x="397" y="61" width="89" height="31" fill="#CD486B"/>
</g>
</g>
<g filter="url(#filter3_i_122_895)">
<g clip-path="url(#clip3_122_895)">
<rect x="251" y="61" width="17" height="31" rx="8" fill="#292929"/>
</g>
</g>
<path d="M34.7195 28.2536H32.8601C32.8071 27.9486 32.7093 27.6785 32.5668 27.4432C32.4242 27.2045 32.2469 27.0024 32.0348 26.8366C31.8227 26.6709 31.5807 26.5466 31.3089 26.4638C31.0405 26.3776 30.7505 26.3345 30.4389 26.3345C29.8854 26.3345 29.3949 26.4737 28.9673 26.7521C28.5398 27.0272 28.205 27.4316 27.9631 27.9652C27.7211 28.4955 27.6001 29.1435 27.6001 29.9091C27.6001 30.688 27.7211 31.3442 27.9631 31.8778C28.2083 32.4081 28.5431 32.8092 28.9673 33.081C29.3949 33.3494 29.8838 33.4837 30.4339 33.4837C30.7389 33.4837 31.0239 33.4439 31.2891 33.3643C31.5575 33.2815 31.7978 33.1605 32.0099 33.0014C32.2254 32.8423 32.406 32.6468 32.5518 32.4148C32.701 32.1828 32.8037 31.9176 32.8601 31.6193L34.7195 31.6293C34.6499 32.1132 34.4991 32.5672 34.267 32.9915C34.0384 33.4157 33.7384 33.7902 33.3672 34.1151C32.996 34.4366 32.5618 34.6884 32.0646 34.8707C31.5675 35.0497 31.0156 35.1392 30.4091 35.1392C29.5142 35.1392 28.7154 34.9321 28.0128 34.5178C27.3101 34.1035 26.7566 33.5052 26.3523 32.723C25.9479 31.9408 25.7457 31.0028 25.7457 29.9091C25.7457 28.812 25.9496 27.8741 26.3572 27.0952C26.7649 26.313 27.3201 25.7147 28.0227 25.3004C28.7254 24.8861 29.5208 24.679 30.4091 24.679C30.9759 24.679 31.5028 24.7585 31.9901 24.9176C32.4773 25.0767 32.9115 25.3104 33.2926 25.6186C33.6738 25.9235 33.987 26.2981 34.2322 26.7422C34.4808 27.183 34.6432 27.6868 34.7195 28.2536ZM39.66 35.1491C38.9142 35.1491 38.2679 34.9851 37.7211 34.657C37.1742 34.3288 36.7499 33.8698 36.4483 33.2798C36.15 32.6899 36.0009 32.0005 36.0009 31.2116C36.0009 30.4228 36.15 29.7318 36.4483 29.1385C36.7499 28.5452 37.1742 28.0845 37.7211 27.7564C38.2679 27.4283 38.9142 27.2642 39.66 27.2642C40.4057 27.2642 41.052 27.4283 41.5989 27.7564C42.1458 28.0845 42.5684 28.5452 42.8667 29.1385C43.1683 29.7318 43.3191 30.4228 43.3191 31.2116C43.3191 32.0005 43.1683 32.6899 42.8667 33.2798C42.5684 33.8698 42.1458 34.3288 41.5989 34.657C41.052 34.9851 40.4057 35.1491 39.66 35.1491ZM39.6699 33.7074C40.0743 33.7074 40.4123 33.5964 40.6841 33.3743C40.9559 33.1489 41.1581 32.8473 41.2907 32.4695C41.4266 32.0916 41.4945 31.6707 41.4945 31.2067C41.4945 30.7393 41.4266 30.3168 41.2907 29.9389C41.1581 29.5578 40.9559 29.2545 40.6841 29.0291C40.4123 28.8037 40.0743 28.6911 39.6699 28.6911C39.2556 28.6911 38.9109 28.8037 38.6358 29.0291C38.3641 29.2545 38.1602 29.5578 38.0243 29.9389C37.8917 30.3168 37.8255 30.7393 37.8255 31.2067C37.8255 31.6707 37.8917 32.0916 38.0243 32.4695C38.1602 32.8473 38.3641 33.1489 38.6358 33.3743C38.9109 33.5964 39.2556 33.7074 39.6699 33.7074ZM46.6463 30.5256V35H44.8466V27.3636H46.5668V28.6612H46.6562C46.8319 28.2337 47.112 27.8939 47.4964 27.642C47.8842 27.3902 48.3632 27.2642 48.9332 27.2642C49.4602 27.2642 49.9193 27.3769 50.3104 27.6023C50.7048 27.8277 51.0097 28.1541 51.2251 28.5817C51.4439 29.0092 51.5516 29.5279 51.5483 30.1378V35H49.7486V30.4162C49.7486 29.9058 49.616 29.5064 49.3509 29.218C49.089 28.9297 48.7261 28.7855 48.2621 28.7855C47.9472 28.7855 47.6671 28.8551 47.4219 28.9943C47.1799 29.1302 46.9893 29.3274 46.8501 29.5859C46.7143 29.8445 46.6463 30.1577 46.6463 30.5256ZM57.1911 27.3636V28.7557H52.8011V27.3636H57.1911ZM53.8849 25.5341H55.6847V32.7031C55.6847 32.9451 55.7211 33.1307 55.794 33.2599C55.8703 33.3859 55.9697 33.4721 56.0923 33.5185C56.215 33.5649 56.3509 33.5881 56.5 33.5881C56.6127 33.5881 56.7154 33.5798 56.8082 33.5632C56.9044 33.5466 56.9773 33.5317 57.027 33.5185L57.3303 34.9254C57.2341 34.9586 57.0966 34.995 56.9176 35.0348C56.742 35.0746 56.5265 35.0978 56.2713 35.1044C55.8205 35.1177 55.4145 35.0497 55.0533 34.9006C54.692 34.7481 54.4053 34.5128 54.1932 34.1946C53.9844 33.8764 53.8816 33.4787 53.8849 33.0014V25.5341ZM61.9949 35.1491C61.2292 35.1491 60.568 34.9901 60.0112 34.6719C59.4577 34.3504 59.0318 33.8963 58.7335 33.3097C58.4352 32.7197 58.286 32.0253 58.286 31.2266C58.286 30.4411 58.4352 29.7517 58.7335 29.1584C59.0351 28.5618 59.456 28.0978 59.9963 27.7663C60.5365 27.4316 61.1712 27.2642 61.9004 27.2642C62.371 27.2642 62.8152 27.3404 63.2328 27.4929C63.6537 27.642 64.0249 27.8741 64.3464 28.1889C64.6712 28.5038 64.9264 28.9048 65.112 29.392C65.2976 29.8759 65.3904 30.4527 65.3904 31.1222V31.674H59.1312V30.4609H63.6653C63.662 30.1162 63.5874 29.8097 63.4416 29.5412C63.2958 29.2694 63.0919 29.0556 62.8301 28.8999C62.5716 28.7441 62.2699 28.6662 61.9252 28.6662C61.5574 28.6662 61.2342 28.7557 60.9558 28.9347C60.6774 29.1103 60.4603 29.3423 60.3045 29.6307C60.152 29.9157 60.0742 30.2289 60.0708 30.5703V31.6293C60.0708 32.0734 60.152 32.4545 60.3145 32.7727C60.4769 33.0876 60.7039 33.3295 60.9956 33.4986C61.2872 33.6643 61.6286 33.7472 62.0197 33.7472C62.2815 33.7472 62.5185 33.7107 62.7306 33.6378C62.9428 33.5616 63.1267 33.4505 63.2825 33.3047C63.4383 33.1589 63.5559 32.9782 63.6355 32.7628L65.3159 32.9517C65.2098 33.3958 65.0076 33.7836 64.7093 34.1151C64.4144 34.4432 64.0365 34.6984 63.5758 34.8807C63.1151 35.0597 62.5881 35.1491 61.9949 35.1491ZM68.7127 30.5256V35H66.913V27.3636H68.6332V28.6612H68.7227C68.8983 28.2337 69.1784 27.8939 69.5629 27.642C69.9506 27.3902 70.4296 27.2642 70.9996 27.2642C71.5266 27.2642 71.9857 27.3769 72.3768 27.6023C72.7712 27.8277 73.0761 28.1541 73.2915 28.5817C73.5103 29.0092 73.618 29.5279 73.6147 30.1378V35H71.815V30.4162C71.815 29.9058 71.6824 29.5064 71.4173 29.218C71.1554 28.9297 70.7925 28.7855 70.3285 28.7855C70.0136 28.7855 69.7335 28.8551 69.4883 28.9943C69.2463 29.1302 69.0558 29.3274 68.9165 29.5859C68.7807 29.8445 68.7127 30.1577 68.7127 30.5256ZM79.2575 27.3636V28.7557H74.8675V27.3636H79.2575ZM75.9513 25.5341H77.7511V32.7031C77.7511 32.9451 77.7875 33.1307 77.8604 33.2599C77.9367 33.3859 78.0361 33.4721 78.1587 33.5185C78.2814 33.5649 78.4173 33.5881 78.5664 33.5881C78.6791 33.5881 78.7818 33.5798 78.8746 33.5632C78.9708 33.5466 79.0437 33.5317 79.0934 33.5185L79.3967 34.9254C79.3005 34.9586 79.163 34.995 78.984 35.0348C78.8084 35.0746 78.5929 35.0978 78.3377 35.1044C77.887 35.1177 77.4809 35.0497 77.1197 34.9006C76.7584 34.7481 76.4717 34.5128 76.2596 34.1946C76.0508 33.8764 75.948 33.4787 75.9513 33.0014V25.5341Z" fill="white"/>
<g filter="url(#filter4_dddd_122_895)">
<rect x="18" y="57.5" width="39" height="39" rx="19.5" fill="white"/>
<rect x="18.5735" y="58.0735" width="37.8529" height="37.8529" rx="18.9265" stroke="#C5D6ED" stroke-width="1.14706"/>
<path d="M39.4997 72.8333C39.4997 72.3731 39.8728 72 40.333 72C40.7933 72 41.1663 72.3731 41.1663 72.8333V81.1667C41.1663 81.6269 40.7933 82 40.333 82C39.8728 82 39.4997 81.6269 39.4997 81.1667V72.8333ZM32.833 72.8333C32.833 72.3731 33.2061 72 33.6663 72C34.1266 72 34.4997 72.3731 34.4997 72.8333V81.1667C34.4997 81.6269 34.1266 82 33.6663 82C33.2061 82 32.833 81.6269 32.833 81.1667V72.8333Z" fill="#C5D6ED"/>
</g>
<line x1="312.4" y1="59.3336" x2="274.333" y2="97.4" stroke="#141313" stroke-width="3.30015" stroke-linecap="round"/>
<line x1="338.267" y1="60.5338" x2="302.6" y2="96.2002" stroke="#141313" stroke-width="3.30015" stroke-linecap="round"/>
<line x1="364.133" y1="60.5338" x2="328.467" y2="96.2002" stroke="#141313" stroke-width="3.30015" stroke-linecap="round"/>
<line x1="390" y1="60.5338" x2="354.334" y2="96.2002" stroke="#141313" stroke-width="3.30015" stroke-linecap="round"/>
<line x1="433" y1="57.3336" x2="397.334" y2="93" stroke="#141313" stroke-width="3.30015" stroke-linecap="round"/>
<line x1="452" y1="57.3336" x2="416.334" y2="93" stroke="#141313" stroke-width="3.30015" stroke-linecap="round"/>
<line x1="471" y1="57.3336" x2="435.334" y2="93" stroke="#141313" stroke-width="3.30015" stroke-linecap="round"/>
<line x1="490" y1="57.3336" x2="454.334" y2="93" stroke="#141313" stroke-width="3.30015" stroke-linecap="round"/>
<g filter="url(#filter5_b_122_895)">
<rect x="84" y="102" width="99" height="44" rx="22" fill="#2A85FF" fill-opacity="0.13"/>
<rect x="84.5" y="102.5" width="98" height="43" rx="21.5" stroke="#2A85FF"/>
<rect x="97.2903" y="109.29" width="29.613" height="29.613" rx="14.8065" fill="#2A85FF"/>
<rect x="97.2903" y="109.29" width="29.613" height="29.613" rx="14.8065" stroke="#E3EFFF" stroke-width="0.580646"/>
<rect x="118.775" y="109.29" width="29.613" height="29.613" rx="14.8065" fill="#2A85FF"/>
<rect x="118.775" y="109.29" width="29.613" height="29.613" rx="14.8065" stroke="#E3EFFF" stroke-width="0.580646"/>
<rect x="139.097" y="109.29" width="29.613" height="29.613" rx="14.8065" fill="#2A85FF"/>
<rect x="139.097" y="109.29" width="29.613" height="29.613" rx="14.8065" stroke="#E3EFFF" stroke-width="0.580646"/>
</g>
<g filter="url(#filter6_b_122_895)">
<rect x="279" y="102" width="114" height="44" rx="22" fill="#E1432E" fill-opacity="0.13"/>
<rect x="279.5" y="102.5" width="113" height="43" rx="21.5" stroke="#E1432E"/>
<rect x="300.29" y="109.29" width="29.613" height="29.613" rx="14.8065" fill="#E1432E"/>
<rect x="300.29" y="109.29" width="29.613" height="29.613" rx="14.8065" stroke="#F6E2F9" stroke-width="0.580646"/>
<rect x="321.775" y="109.29" width="29.613" height="29.613" rx="14.8065" fill="#E1432E"/>
<rect x="321.775" y="109.29" width="29.613" height="29.613" rx="14.8065" stroke="#F6E2F9" stroke-width="0.580646"/>
<rect x="342.097" y="109.29" width="29.613" height="29.613" rx="14.8065" fill="#E1432E"/>
<rect x="342.097" y="109.29" width="29.613" height="29.613" rx="14.8065" stroke="#F6E2F9" stroke-width="0.580646"/>
</g>
<g filter="url(#filter7_b_122_895)">
<rect x="397" y="102" width="89" height="44" rx="22" fill="#CD486B" fill-opacity="0.13"/>
<rect x="397.5" y="102.5" width="88" height="43" rx="21.5" stroke="#CD486B"/>
<rect x="416.29" y="109.29" width="29.613" height="29.613" rx="14.8065" fill="#CD486B"/>
<rect x="416.29" y="109.29" width="29.613" height="29.613" rx="14.8065" stroke="#FFE3ED" stroke-width="0.580646"/>
<rect x="437.775" y="109.29" width="29.613" height="29.613" rx="14.8065" fill="#CD486B"/>
<rect x="437.775" y="109.29" width="29.613" height="29.613" rx="14.8065" stroke="#FFE3ED" stroke-width="0.580646"/>
</g>
<rect x="32" y="229.5" width="19" height="10" rx="5" fill="#2A85FF"/>
<path d="M59.5795 231.21V230.273H66.125V231.21H63.3807V239H62.3239V231.21H59.5795ZM69.3295 239.136C68.7386 239.136 68.2202 238.996 67.7741 238.714C67.331 238.433 66.9844 238.04 66.7344 237.534C66.4872 237.028 66.3636 236.437 66.3636 235.761C66.3636 235.08 66.4872 234.484 66.7344 233.976C66.9844 233.467 67.331 233.072 67.7741 232.791C68.2202 232.51 68.7386 232.369 69.3295 232.369C69.9205 232.369 70.4375 232.51 70.8807 232.791C71.3267 233.072 71.6733 233.467 71.9205 233.976C72.1705 234.484 72.2955 235.08 72.2955 235.761C72.2955 236.437 72.1705 237.028 71.9205 237.534C71.6733 238.04 71.3267 238.433 70.8807 238.714C70.4375 238.996 69.9205 239.136 69.3295 239.136ZM69.3295 238.233C69.7784 238.233 70.1477 238.118 70.4375 237.888C70.7273 237.658 70.9418 237.355 71.081 236.98C71.2202 236.605 71.2898 236.199 71.2898 235.761C71.2898 235.324 71.2202 234.916 71.081 234.538C70.9418 234.161 70.7273 233.855 70.4375 233.622C70.1477 233.389 69.7784 233.273 69.3295 233.273C68.8807 233.273 68.5114 233.389 68.2216 233.622C67.9318 233.855 67.7173 234.161 67.5781 234.538C67.4389 234.916 67.3693 235.324 67.3693 235.761C67.3693 236.199 67.4389 236.605 67.5781 236.98C67.7173 237.355 67.9318 237.658 68.2216 237.888C68.5114 238.118 68.8807 238.233 69.3295 238.233ZM73.967 239V230.273H79.1999V231.21H75.0238V234.159H78.8079V235.097H75.0238V239H73.967ZM86.7372 230.273H87.794V236.051C87.794 236.648 87.6534 237.18 87.3722 237.649C87.0938 238.115 86.7003 238.483 86.1918 238.753C85.6832 239.02 85.0866 239.153 84.402 239.153C83.7173 239.153 83.1207 239.02 82.6122 238.753C82.1037 238.483 81.7088 238.115 81.4276 237.649C81.1491 237.18 81.0099 236.648 81.0099 236.051V230.273H82.0668V235.966C82.0668 236.392 82.1605 236.771 82.348 237.104C82.5355 237.433 82.8026 237.693 83.1491 237.884C83.4986 238.071 83.9162 238.165 84.402 238.165C84.8878 238.165 85.3054 238.071 85.6548 237.884C86.0043 237.693 86.2713 237.433 86.456 237.104C86.6435 236.771 86.7372 236.392 86.7372 235.966V230.273ZM100.302 233H99.2454C99.1829 232.696 99.0735 232.429 98.9173 232.199C98.7638 231.969 98.5763 231.776 98.3548 231.619C98.136 231.46 97.8931 231.341 97.6261 231.261C97.359 231.182 97.0806 231.142 96.7908 231.142C96.2624 231.142 95.7837 231.276 95.3548 231.543C94.9286 231.81 94.5891 232.203 94.3363 232.723C94.0863 233.243 93.9613 233.881 93.9613 234.636C93.9613 235.392 94.0863 236.03 94.3363 236.55C94.5891 237.07 94.9286 237.463 95.3548 237.73C95.7837 237.997 96.2624 238.131 96.7908 238.131C97.0806 238.131 97.359 238.091 97.6261 238.011C97.8931 237.932 98.136 237.814 98.3548 237.658C98.5763 237.499 98.7638 237.304 98.9173 237.074C99.0735 236.841 99.1829 236.574 99.2454 236.273H100.302C100.223 236.719 100.078 237.118 99.8675 237.47C99.6573 237.822 99.396 238.122 99.0835 238.369C98.771 238.614 98.4201 238.8 98.0309 238.928C97.6445 239.055 97.2312 239.119 96.7908 239.119C96.0465 239.119 95.3846 238.938 94.805 238.574C94.2255 238.21 93.7695 237.693 93.4371 237.023C93.1048 236.352 92.9386 235.557 92.9386 234.636C92.9386 233.716 93.1048 232.92 93.4371 232.25C93.7695 231.58 94.2255 231.062 94.805 230.699C95.3846 230.335 96.0465 230.153 96.7908 230.153C97.2312 230.153 97.6445 230.217 98.0309 230.345C98.4201 230.473 98.771 230.661 99.0835 230.908C99.396 231.152 99.6573 231.45 99.8675 231.803C100.078 232.152 100.223 232.551 100.302 233ZM104.533 239.136C103.942 239.136 103.423 238.996 102.977 238.714C102.534 238.433 102.188 238.04 101.938 237.534C101.69 237.028 101.567 236.437 101.567 235.761C101.567 235.08 101.69 234.484 101.938 233.976C102.188 233.467 102.534 233.072 102.977 232.791C103.423 232.51 103.942 232.369 104.533 232.369C105.124 232.369 105.641 232.51 106.084 232.791C106.53 233.072 106.876 233.467 107.124 233.976C107.374 234.484 107.499 235.08 107.499 235.761C107.499 236.437 107.374 237.028 107.124 237.534C106.876 238.04 106.53 238.433 106.084 238.714C105.641 238.996 105.124 239.136 104.533 239.136ZM104.533 238.233C104.982 238.233 105.351 238.118 105.641 237.888C105.93 237.658 106.145 237.355 106.284 236.98C106.423 236.605 106.493 236.199 106.493 235.761C106.493 235.324 106.423 234.916 106.284 234.538C106.145 234.161 105.93 233.855 105.641 233.622C105.351 233.389 104.982 233.273 104.533 233.273C104.084 233.273 103.714 233.389 103.425 233.622C103.135 233.855 102.92 234.161 102.781 234.538C102.642 234.916 102.572 235.324 102.572 235.761C102.572 236.199 102.642 236.605 102.781 236.98C102.92 237.355 103.135 237.658 103.425 237.888C103.714 238.118 104.084 238.233 104.533 238.233ZM110.039 235.062V239H109.034V232.455H110.005V233.477H110.091C110.244 233.145 110.477 232.878 110.789 232.676C111.102 232.472 111.505 232.369 112 232.369C112.443 232.369 112.831 232.46 113.163 232.642C113.495 232.821 113.754 233.094 113.939 233.46C114.123 233.824 114.216 234.284 114.216 234.841V239H113.21V234.909C113.21 234.395 113.076 233.994 112.809 233.707C112.542 233.418 112.176 233.273 111.71 233.273C111.389 233.273 111.102 233.342 110.849 233.482C110.599 233.621 110.402 233.824 110.257 234.091C110.112 234.358 110.039 234.682 110.039 235.062ZM118.9 232.455V233.307H115.508V232.455H118.9ZM116.496 230.886H117.502V237.125C117.502 237.409 117.543 237.622 117.626 237.764C117.711 237.903 117.819 237.997 117.95 238.045C118.083 238.091 118.224 238.114 118.371 238.114C118.482 238.114 118.573 238.108 118.644 238.097C118.715 238.082 118.772 238.071 118.815 238.062L119.019 238.966C118.951 238.991 118.856 239.017 118.734 239.043C118.612 239.071 118.457 239.085 118.269 239.085C117.985 239.085 117.707 239.024 117.434 238.902C117.164 238.78 116.94 238.594 116.761 238.344C116.585 238.094 116.496 237.778 116.496 237.398V230.886ZM123.087 239.136C122.456 239.136 121.912 238.997 121.455 238.719C121 238.438 120.649 238.045 120.402 237.543C120.158 237.037 120.036 236.449 120.036 235.778C120.036 235.108 120.158 234.517 120.402 234.006C120.649 233.491 120.993 233.091 121.433 232.804C121.876 232.514 122.393 232.369 122.984 232.369C123.325 232.369 123.662 232.426 123.994 232.54C124.327 232.653 124.629 232.838 124.902 233.094C125.175 233.347 125.392 233.682 125.554 234.099C125.716 234.517 125.797 235.031 125.797 235.642V236.068H120.751V235.199H124.774C124.774 234.83 124.7 234.5 124.553 234.21C124.408 233.92 124.2 233.692 123.93 233.524C123.663 233.357 123.348 233.273 122.984 233.273C122.584 233.273 122.237 233.372 121.945 233.571C121.655 233.767 121.432 234.023 121.276 234.338C121.119 234.653 121.041 234.991 121.041 235.352V235.932C121.041 236.426 121.126 236.845 121.297 237.189C121.47 237.53 121.71 237.79 122.017 237.969C122.324 238.145 122.68 238.233 123.087 238.233C123.351 238.233 123.589 238.196 123.803 238.122C124.018 238.045 124.205 237.932 124.361 237.781C124.517 237.628 124.638 237.437 124.723 237.21L125.695 237.483C125.592 237.812 125.42 238.102 125.179 238.352C124.938 238.599 124.639 238.793 124.284 238.932C123.929 239.068 123.53 239.136 123.087 239.136ZM128.332 235.062V239H127.327V232.455H128.298V233.477H128.384C128.537 233.145 128.77 232.878 129.082 232.676C129.395 232.472 129.798 232.369 130.293 232.369C130.736 232.369 131.124 232.46 131.456 232.642C131.788 232.821 132.047 233.094 132.232 233.46C132.416 233.824 132.509 234.284 132.509 234.841V239H131.503V234.909C131.503 234.395 131.369 233.994 131.102 233.707C130.835 233.418 130.469 233.273 130.003 233.273C129.682 233.273 129.395 233.342 129.142 233.482C128.892 233.621 128.695 233.824 128.55 234.091C128.405 234.358 128.332 234.682 128.332 235.062ZM137.193 232.455V233.307H133.801V232.455H137.193ZM134.789 230.886H135.795V237.125C135.795 237.409 135.836 237.622 135.919 237.764C136.004 237.903 136.112 237.997 136.243 238.045C136.376 238.091 136.517 238.114 136.664 238.114C136.775 238.114 136.866 238.108 136.937 238.097C137.008 238.082 137.065 238.071 137.108 238.062L137.312 238.966C137.244 238.991 137.149 239.017 137.027 239.043C136.904 239.071 136.75 239.085 136.562 239.085C136.278 239.085 136 239.024 135.727 238.902C135.457 238.78 135.233 238.594 135.054 238.344C134.877 238.094 134.789 237.778 134.789 237.398V230.886Z" fill="#ACACAC"/>
<rect x="202" y="229.5" width="19" height="10" rx="5" fill="#E1432E"/>
<path d="M230.057 230.273H231.318L234.284 237.517H234.386L237.352 230.273H238.614V239H237.625V232.369H237.54L234.812 239H233.858L231.131 232.369H231.045V239H230.057V230.273ZM243.255 239.136C242.664 239.136 242.146 238.996 241.7 238.714C241.257 238.433 240.91 238.04 240.66 237.534C240.413 237.028 240.289 236.437 240.289 235.761C240.289 235.08 240.413 234.484 240.66 233.976C240.91 233.467 241.257 233.072 241.7 232.791C242.146 232.51 242.664 232.369 243.255 232.369C243.846 232.369 244.363 232.51 244.806 232.791C245.252 233.072 245.599 233.467 245.846 233.976C246.096 234.484 246.221 235.08 246.221 235.761C246.221 236.437 246.096 237.028 245.846 237.534C245.599 238.04 245.252 238.433 244.806 238.714C244.363 238.996 243.846 239.136 243.255 239.136ZM243.255 238.233C243.704 238.233 244.074 238.118 244.363 237.888C244.653 237.658 244.868 237.355 245.007 236.98C245.146 236.605 245.216 236.199 245.216 235.761C245.216 235.324 245.146 234.916 245.007 234.538C244.868 234.161 244.653 233.855 244.363 233.622C244.074 233.389 243.704 233.273 243.255 233.273C242.806 233.273 242.437 233.389 242.147 233.622C241.858 233.855 241.643 234.161 241.504 234.538C241.365 234.916 241.295 235.324 241.295 235.761C241.295 236.199 241.365 236.605 241.504 236.98C241.643 237.355 241.858 237.658 242.147 237.888C242.437 238.118 242.806 238.233 243.255 238.233ZM247.893 239V230.273H253.126V231.21H248.95V234.159H252.734V235.097H248.95V239H247.893ZM260.663 230.273H261.72V236.051C261.72 236.648 261.579 237.18 261.298 237.649C261.02 238.115 260.626 238.483 260.118 238.753C259.609 239.02 259.012 239.153 258.328 239.153C257.643 239.153 257.047 239.02 256.538 238.753C256.029 238.483 255.635 238.115 255.353 237.649C255.075 237.18 254.936 236.648 254.936 236.051V230.273H255.993V235.966C255.993 236.392 256.086 236.771 256.274 237.104C256.461 237.433 256.728 237.693 257.075 237.884C257.424 238.071 257.842 238.165 258.328 238.165C258.814 238.165 259.231 238.071 259.581 237.884C259.93 237.693 260.197 237.433 260.382 237.104C260.569 236.771 260.663 236.392 260.663 235.966V230.273ZM274.228 233H273.171C273.109 232.696 272.999 232.429 272.843 232.199C272.69 231.969 272.502 231.776 272.281 231.619C272.062 231.46 271.819 231.341 271.552 231.261C271.285 231.182 271.006 231.142 270.717 231.142C270.188 231.142 269.71 231.276 269.281 231.543C268.854 231.81 268.515 232.203 268.262 232.723C268.012 233.243 267.887 233.881 267.887 234.636C267.887 235.392 268.012 236.03 268.262 236.55C268.515 237.07 268.854 237.463 269.281 237.73C269.71 237.997 270.188 238.131 270.717 238.131C271.006 238.131 271.285 238.091 271.552 238.011C271.819 237.932 272.062 237.814 272.281 237.658C272.502 237.499 272.69 237.304 272.843 237.074C272.999 236.841 273.109 236.574 273.171 236.273H274.228C274.148 236.719 274.004 237.118 273.793 237.47C273.583 237.822 273.322 238.122 273.009 238.369C272.697 238.614 272.346 238.8 271.957 238.928C271.57 239.055 271.157 239.119 270.717 239.119C269.972 239.119 269.31 238.938 268.731 238.574C268.151 238.21 267.695 237.693 267.363 237.023C267.031 236.352 266.864 235.557 266.864 234.636C266.864 233.716 267.031 232.92 267.363 232.25C267.695 231.58 268.151 231.062 268.731 230.699C269.31 230.335 269.972 230.153 270.717 230.153C271.157 230.153 271.57 230.217 271.957 230.345C272.346 230.473 272.697 230.661 273.009 230.908C273.322 231.152 273.583 231.45 273.793 231.803C274.004 232.152 274.148 232.551 274.228 233ZM278.458 239.136C277.868 239.136 277.349 238.996 276.903 238.714C276.46 238.433 276.113 238.04 275.863 237.534C275.616 237.028 275.493 236.437 275.493 235.761C275.493 235.08 275.616 234.484 275.863 233.976C276.113 233.467 276.46 233.072 276.903 232.791C277.349 232.51 277.868 232.369 278.458 232.369C279.049 232.369 279.566 232.51 280.01 232.791C280.456 233.072 280.802 233.467 281.049 233.976C281.299 234.484 281.424 235.08 281.424 235.761C281.424 236.437 281.299 237.028 281.049 237.534C280.802 238.04 280.456 238.433 280.01 238.714C279.566 238.996 279.049 239.136 278.458 239.136ZM278.458 238.233C278.907 238.233 279.277 238.118 279.566 237.888C279.856 237.658 280.071 237.355 280.21 236.98C280.349 236.605 280.419 236.199 280.419 235.761C280.419 235.324 280.349 234.916 280.21 234.538C280.071 234.161 279.856 233.855 279.566 233.622C279.277 233.389 278.907 233.273 278.458 233.273C278.01 233.273 277.64 233.389 277.35 233.622C277.061 233.855 276.846 234.161 276.707 234.538C276.568 234.916 276.498 235.324 276.498 235.761C276.498 236.199 276.568 236.605 276.707 236.98C276.846 237.355 277.061 237.658 277.35 237.888C277.64 238.118 278.01 238.233 278.458 238.233ZM283.965 235.062V239H282.96V232.455H283.931V233.477H284.016C284.17 233.145 284.403 232.878 284.715 232.676C285.028 232.472 285.431 232.369 285.925 232.369C286.369 232.369 286.756 232.46 287.089 232.642C287.421 232.821 287.68 233.094 287.864 233.46C288.049 233.824 288.141 234.284 288.141 234.841V239H287.136V234.909C287.136 234.395 287.002 233.994 286.735 233.707C286.468 233.418 286.102 233.273 285.636 233.273C285.315 233.273 285.028 233.342 284.775 233.482C284.525 233.621 284.327 233.824 284.183 234.091C284.038 234.358 283.965 234.682 283.965 235.062ZM292.826 232.455V233.307H289.434V232.455H292.826ZM290.422 230.886H291.428V237.125C291.428 237.409 291.469 237.622 291.551 237.764C291.637 237.903 291.745 237.997 291.875 238.045C292.009 238.091 292.15 238.114 292.297 238.114C292.408 238.114 292.499 238.108 292.57 238.097C292.641 238.082 292.698 238.071 292.74 238.062L292.945 238.966C292.877 238.991 292.782 239.017 292.659 239.043C292.537 239.071 292.382 239.085 292.195 239.085C291.911 239.085 291.632 239.024 291.36 238.902C291.09 238.78 290.865 238.594 290.686 238.344C290.51 238.094 290.422 237.778 290.422 237.398V230.886ZM297.012 239.136C296.382 239.136 295.838 238.997 295.38 238.719C294.926 238.438 294.575 238.045 294.328 237.543C294.083 237.037 293.961 236.449 293.961 235.778C293.961 235.108 294.083 234.517 294.328 234.006C294.575 233.491 294.919 233.091 295.359 232.804C295.802 232.514 296.319 232.369 296.91 232.369C297.251 232.369 297.588 232.426 297.92 232.54C298.252 232.653 298.555 232.838 298.828 233.094C299.1 233.347 299.318 233.682 299.48 234.099C299.642 234.517 299.723 235.031 299.723 235.642V236.068H294.677V235.199H298.7C298.7 234.83 298.626 234.5 298.478 234.21C298.333 233.92 298.126 233.692 297.856 233.524C297.589 233.357 297.274 233.273 296.91 233.273C296.51 233.273 296.163 233.372 295.87 233.571C295.581 233.767 295.358 234.023 295.201 234.338C295.045 234.653 294.967 234.991 294.967 235.352V235.932C294.967 236.426 295.052 236.845 295.223 237.189C295.396 237.53 295.636 237.79 295.943 237.969C296.25 238.145 296.606 238.233 297.012 238.233C297.277 238.233 297.515 238.196 297.728 238.122C297.944 238.045 298.13 237.932 298.287 237.781C298.443 237.628 298.564 237.437 298.649 237.21L299.62 237.483C299.518 237.812 299.346 238.102 299.105 238.352C298.863 238.599 298.565 238.793 298.21 238.932C297.855 239.068 297.456 239.136 297.012 239.136ZM302.258 235.062V239H301.252V232.455H302.224V233.477H302.309C302.463 233.145 302.696 232.878 303.008 232.676C303.321 232.472 303.724 232.369 304.218 232.369C304.662 232.369 305.049 232.46 305.382 232.642C305.714 232.821 305.973 233.094 306.157 233.46C306.342 233.824 306.434 234.284 306.434 234.841V239H305.429V234.909C305.429 234.395 305.295 233.994 305.028 233.707C304.761 233.418 304.395 233.273 303.929 233.273C303.608 233.273 303.321 233.342 303.068 233.482C302.818 233.621 302.62 233.824 302.475 234.091C302.331 234.358 302.258 234.682 302.258 235.062ZM311.119 232.455V233.307H307.727V232.455H311.119ZM308.715 230.886H309.721V237.125C309.721 237.409 309.762 237.622 309.844 237.764C309.93 237.903 310.038 237.997 310.168 238.045C310.302 238.091 310.442 238.114 310.59 238.114C310.701 238.114 310.792 238.108 310.863 238.097C310.934 238.082 310.991 238.071 311.033 238.062L311.238 238.966C311.17 238.991 311.075 239.017 310.952 239.043C310.83 239.071 310.675 239.085 310.488 239.085C310.204 239.085 309.925 239.024 309.653 238.902C309.383 238.78 309.158 238.594 308.979 238.344C308.803 238.094 308.715 237.778 308.715 237.398V230.886Z" fill="#ACACAC"/>
<rect x="376" y="229.5" width="19" height="10" rx="5" fill="#CD486B"/>
<path d="M404.057 239V230.273H407.108C407.716 230.273 408.217 230.378 408.612 230.588C409.007 230.795 409.301 231.075 409.494 231.428C409.688 231.777 409.784 232.165 409.784 232.591C409.784 232.966 409.717 233.276 409.584 233.52C409.453 233.764 409.28 233.957 409.064 234.099C408.851 234.241 408.619 234.347 408.369 234.415V234.5C408.636 234.517 408.905 234.611 409.175 234.781C409.445 234.952 409.67 235.196 409.852 235.514C410.034 235.832 410.125 236.222 410.125 236.682C410.125 237.119 410.026 237.513 409.827 237.862C409.628 238.212 409.314 238.489 408.885 238.693C408.456 238.898 407.898 239 407.21 239H404.057ZM405.114 238.062H407.21C407.901 238.062 408.391 237.929 408.68 237.662C408.973 237.392 409.119 237.065 409.119 236.682C409.119 236.386 409.044 236.114 408.893 235.864C408.743 235.611 408.528 235.409 408.25 235.259C407.972 235.105 407.642 235.028 407.261 235.028H405.114V238.062ZM405.114 234.108H407.074C407.392 234.108 407.679 234.045 407.935 233.92C408.193 233.795 408.398 233.619 408.548 233.392C408.702 233.165 408.778 232.898 408.778 232.591C408.778 232.207 408.645 231.882 408.378 231.615C408.111 231.345 407.688 231.21 407.108 231.21H405.114V234.108ZM414.384 239.136C413.793 239.136 413.275 238.996 412.829 238.714C412.386 238.433 412.039 238.04 411.789 237.534C411.542 237.028 411.418 236.437 411.418 235.761C411.418 235.08 411.542 234.484 411.789 233.976C412.039 233.467 412.386 233.072 412.829 232.791C413.275 232.51 413.793 232.369 414.384 232.369C414.975 232.369 415.492 232.51 415.935 232.791C416.381 233.072 416.728 233.467 416.975 233.976C417.225 234.484 417.35 235.08 417.35 235.761C417.35 236.437 417.225 237.028 416.975 237.534C416.728 238.04 416.381 238.433 415.935 238.714C415.492 238.996 414.975 239.136 414.384 239.136ZM414.384 238.233C414.833 238.233 415.202 238.118 415.492 237.888C415.782 237.658 415.996 237.355 416.136 236.98C416.275 236.605 416.344 236.199 416.344 235.761C416.344 235.324 416.275 234.916 416.136 234.538C415.996 234.161 415.782 233.855 415.492 233.622C415.202 233.389 414.833 233.273 414.384 233.273C413.935 233.273 413.566 233.389 413.276 233.622C412.987 233.855 412.772 234.161 412.633 234.538C412.494 234.916 412.424 235.324 412.424 235.761C412.424 236.199 412.494 236.605 412.633 236.98C412.772 237.355 412.987 237.658 413.276 237.888C413.566 238.118 413.935 238.233 414.384 238.233ZM419.022 239V230.273H424.255V231.21H420.078V234.159H423.863V235.097H420.078V239H419.022ZM431.792 230.273H432.849V236.051C432.849 236.648 432.708 237.18 432.427 237.649C432.148 238.115 431.755 238.483 431.246 238.753C430.738 239.02 430.141 239.153 429.457 239.153C428.772 239.153 428.175 239.02 427.667 238.753C427.158 238.483 426.763 238.115 426.482 237.649C426.204 237.18 426.065 236.648 426.065 236.051V230.273H427.121V235.966C427.121 236.392 427.215 236.771 427.403 237.104C427.59 237.433 427.857 237.693 428.204 237.884C428.553 238.071 428.971 238.165 429.457 238.165C429.942 238.165 430.36 238.071 430.71 237.884C431.059 237.693 431.326 237.433 431.511 237.104C431.698 236.771 431.792 236.392 431.792 235.966V230.273ZM445.357 233H444.3C444.238 232.696 444.128 232.429 443.972 232.199C443.819 231.969 443.631 231.776 443.409 231.619C443.191 231.46 442.948 231.341 442.681 231.261C442.414 231.182 442.135 231.142 441.846 231.142C441.317 231.142 440.838 231.276 440.409 231.543C439.983 231.81 439.644 232.203 439.391 232.723C439.141 233.243 439.016 233.881 439.016 234.636C439.016 235.392 439.141 236.03 439.391 236.55C439.644 237.07 439.983 237.463 440.409 237.73C440.838 237.997 441.317 238.131 441.846 238.131C442.135 238.131 442.414 238.091 442.681 238.011C442.948 237.932 443.191 237.814 443.409 237.658C443.631 237.499 443.819 237.304 443.972 237.074C444.128 236.841 444.238 236.574 444.3 236.273H445.357C445.277 236.719 445.132 237.118 444.922 237.47C444.712 237.822 444.451 238.122 444.138 238.369C443.826 238.614 443.475 238.8 443.086 238.928C442.699 239.055 442.286 239.119 441.846 239.119C441.101 239.119 440.439 238.938 439.86 238.574C439.28 238.21 438.824 237.693 438.492 237.023C438.159 236.352 437.993 235.557 437.993 234.636C437.993 233.716 438.159 232.92 438.492 232.25C438.824 231.58 439.28 231.062 439.86 230.699C440.439 230.335 441.101 230.153 441.846 230.153C442.286 230.153 442.699 230.217 443.086 230.345C443.475 230.473 443.826 230.661 444.138 230.908C444.451 231.152 444.712 231.45 444.922 231.803C445.132 232.152 445.277 232.551 445.357 233ZM449.587 239.136C448.996 239.136 448.478 238.996 448.032 238.714C447.589 238.433 447.242 238.04 446.992 237.534C446.745 237.028 446.621 236.437 446.621 235.761C446.621 235.08 446.745 234.484 446.992 233.976C447.242 233.467 447.589 233.072 448.032 232.791C448.478 232.51 448.996 232.369 449.587 232.369C450.178 232.369 450.695 232.51 451.138 232.791C451.585 233.072 451.931 233.467 452.178 233.976C452.428 234.484 452.553 235.08 452.553 235.761C452.553 236.437 452.428 237.028 452.178 237.534C451.931 238.04 451.585 238.433 451.138 238.714C450.695 238.996 450.178 239.136 449.587 239.136ZM449.587 238.233C450.036 238.233 450.406 238.118 450.695 237.888C450.985 237.658 451.2 237.355 451.339 236.98C451.478 236.605 451.548 236.199 451.548 235.761C451.548 235.324 451.478 234.916 451.339 234.538C451.2 234.161 450.985 233.855 450.695 233.622C450.406 233.389 450.036 233.273 449.587 233.273C449.138 233.273 448.769 233.389 448.479 233.622C448.19 233.855 447.975 234.161 447.836 234.538C447.697 234.916 447.627 235.324 447.627 235.761C447.627 236.199 447.697 236.605 447.836 236.98C447.975 237.355 448.19 237.658 448.479 237.888C448.769 238.118 449.138 238.233 449.587 238.233ZM455.094 235.062V239H454.088V232.455H455.06V233.477H455.145C455.299 233.145 455.532 232.878 455.844 232.676C456.157 232.472 456.56 232.369 457.054 232.369C457.498 232.369 457.885 232.46 458.218 232.642C458.55 232.821 458.809 233.094 458.993 233.46C459.178 233.824 459.27 234.284 459.27 234.841V239H458.265V234.909C458.265 234.395 458.131 233.994 457.864 233.707C457.597 233.418 457.23 233.273 456.765 233.273C456.444 233.273 456.157 233.342 455.904 233.482C455.654 233.621 455.456 233.824 455.311 234.091C455.167 234.358 455.094 234.682 455.094 235.062ZM463.955 232.455V233.307H460.562V232.455H463.955ZM461.551 230.886H462.557V237.125C462.557 237.409 462.598 237.622 462.68 237.764C462.766 237.903 462.874 237.997 463.004 238.045C463.138 238.091 463.278 238.114 463.426 238.114C463.537 238.114 463.628 238.108 463.699 238.097C463.77 238.082 463.827 238.071 463.869 238.062L464.074 238.966C464.006 238.991 463.911 239.017 463.788 239.043C463.666 239.071 463.511 239.085 463.324 239.085C463.04 239.085 462.761 239.024 462.489 238.902C462.219 238.78 461.994 238.594 461.815 238.344C461.639 238.094 461.551 237.778 461.551 237.398V230.886ZM468.141 239.136C467.511 239.136 466.967 238.997 466.509 238.719C466.055 238.438 465.704 238.045 465.457 237.543C465.212 237.037 465.09 236.449 465.09 235.778C465.09 235.108 465.212 234.517 465.457 234.006C465.704 233.491 466.048 233.091 466.488 232.804C466.931 232.514 467.448 232.369 468.039 232.369C468.38 232.369 468.717 232.426 469.049 232.54C469.381 232.653 469.684 232.838 469.957 233.094C470.229 233.347 470.447 233.682 470.609 234.099C470.771 234.517 470.852 235.031 470.852 235.642V236.068H465.806V235.199H469.829C469.829 234.83 469.755 234.5 469.607 234.21C469.462 233.92 469.255 233.692 468.985 233.524C468.718 233.357 468.403 233.273 468.039 233.273C467.638 233.273 467.292 233.372 466.999 233.571C466.71 233.767 466.487 234.023 466.33 234.338C466.174 234.653 466.096 234.991 466.096 235.352V235.932C466.096 236.426 466.181 236.845 466.352 237.189C466.525 237.53 466.765 237.79 467.072 237.969C467.379 238.145 467.735 238.233 468.141 238.233C468.406 238.233 468.644 238.196 468.857 238.122C469.073 238.045 469.259 237.932 469.415 237.781C469.572 237.628 469.692 237.437 469.778 237.21L470.749 237.483C470.647 237.812 470.475 238.102 470.234 238.352C469.992 238.599 469.694 238.793 469.339 238.932C468.984 239.068 468.585 239.136 468.141 239.136ZM473.387 235.062V239H472.381V232.455H473.353V233.477H473.438C473.592 233.145 473.825 232.878 474.137 232.676C474.45 232.472 474.853 232.369 475.347 232.369C475.79 232.369 476.178 232.46 476.511 232.642C476.843 232.821 477.102 233.094 477.286 233.46C477.471 233.824 477.563 234.284 477.563 234.841V239H476.558V234.909C476.558 234.395 476.424 233.994 476.157 233.707C475.89 233.418 475.523 233.273 475.058 233.273C474.737 233.273 474.45 233.342 474.197 233.482C473.947 233.621 473.749 233.824 473.604 234.091C473.46 234.358 473.387 234.682 473.387 235.062ZM482.248 232.455V233.307H478.855V232.455H482.248ZM479.844 230.886H480.85V237.125C480.85 237.409 480.891 237.622 480.973 237.764C481.059 237.903 481.167 237.997 481.297 238.045C481.431 238.091 481.571 238.114 481.719 238.114C481.83 238.114 481.921 238.108 481.992 238.097C482.063 238.082 482.12 238.071 482.162 238.062L482.367 238.966C482.299 238.991 482.203 239.017 482.081 239.043C481.959 239.071 481.804 239.085 481.617 239.085C481.333 239.085 481.054 239.024 480.782 238.902C480.512 238.78 480.287 238.594 480.108 238.344C479.932 238.094 479.844 237.778 479.844 237.398V230.886Z" fill="#ACACAC"/>
<defs>
<filter id="filter0_i_122_895" x="25" y="61" width="221" height="35" filterUnits="userSpaceOnUse" color-interpolation-filters="sRGB">
<feFlood flood-opacity="0" result="BackgroundImageFix"/>
<feBlend mode="normal" in="SourceGraphic" in2="BackgroundImageFix" result="shape"/>
<feColorMatrix in="SourceAlpha" type="matrix" values="0 0 0 0 0 0 0 0 0 0 0 0 0 0 0 0 0 0 127 0" result="hardAlpha"/>
<feOffset dx="5" dy="4"/>
<feGaussianBlur stdDeviation="3.8"/>
<feComposite in2="hardAlpha" operator="arithmetic" k2="-1" k3="1"/>
<feColorMatrix type="matrix" values="0 0 0 0 0.879167 0 0 0 0 0.879167 0 0 0 0 0.879167 0 0 0 0.33 0"/>
<feBlend mode="normal" in2="shape" result="effect1_innerShadow_122_895"/>
</filter>
<filter id="filter1_i_122_895" x="279" y="61" width="119" height="35" filterUnits="userSpaceOnUse" color-interpolation-filters="sRGB">
<feFlood flood-opacity="0" result="BackgroundImageFix"/>
<feBlend mode="normal" in="SourceGraphic" in2="BackgroundImageFix" result="shape"/>
<feColorMatrix in="SourceAlpha" type="matrix" values="0 0 0 0 0 0 0 0 0 0 0 0 0 0 0 0 0 0 127 0" result="hardAlpha"/>
<feOffset dx="5" dy="4"/>
<feGaussianBlur stdDeviation="3.8"/>
<feComposite in2="hardAlpha" operator="arithmetic" k2="-1" k3="1"/>
<feColorMatrix type="matrix" values="0 0 0 0 0.879167 0 0 0 0 0.879167 0 0 0 0 0.879167 0 0 0 0.33 0"/>
<feBlend mode="normal" in2="shape" result="effect1_innerShadow_122_895"/>
</filter>
<filter id="filter2_i_122_895" x="397" y="61" width="94" height="35" filterUnits="userSpaceOnUse" color-interpolation-filters="sRGB">
<feFlood flood-opacity="0" result="BackgroundImageFix"/>
<feBlend mode="normal" in="SourceGraphic" in2="BackgroundImageFix" result="shape"/>
<feColorMatrix in="SourceAlpha" type="matrix" values="0 0 0 0 0 0 0 0 0 0 0 0 0 0 0 0 0 0 127 0" result="hardAlpha"/>
<feOffset dx="5" dy="4"/>
<feGaussianBlur stdDeviation="3.8"/>
<feComposite in2="hardAlpha" operator="arithmetic" k2="-1" k3="1"/>
<feColorMatrix type="matrix" values="0 0 0 0 0.879167 0 0 0 0 0.879167 0 0 0 0 0.879167 0 0 0 0.33 0"/>
<feBlend mode="normal" in2="shape" result="effect1_innerShadow_122_895"/>
</filter>
<filter id="filter3_i_122_895" x="251" y="61" width="22" height="35" filterUnits="userSpaceOnUse" color-interpolation-filters="sRGB">
<feFlood flood-opacity="0" result="BackgroundImageFix"/>
<feBlend mode="normal" in="SourceGraphic" in2="BackgroundImageFix" result="shape"/>
<feColorMatrix in="SourceAlpha" type="matrix" values="0 0 0 0 0 0 0 0 0 0 0 0 0 0 0 0 0 0 127 0" result="hardAlpha"/>
<feOffset dx="5" dy="4"/>
<feGaussianBlur stdDeviation="3.8"/>
<feComposite in2="hardAlpha" operator="arithmetic" k2="-1" k3="1"/>
<feColorMatrix type="matrix" values="0 0 0 0 0.879167 0 0 0 0 0.879167 0 0 0 0 0.879167 0 0 0 0.33 0"/>
<feBlend mode="normal" in2="shape" result="effect1_innerShadow_122_895"/>
</filter>
<filter id="filter4_dddd_122_895" x="11" y="56.5" width="53" height="64" filterUnits="userSpaceOnUse" color-interpolation-filters="sRGB">
<feFlood flood-opacity="0" result="BackgroundImageFix"/>
<feColorMatrix in="SourceAlpha" type="matrix" values="0 0 0 0 0 0 0 0 0 0 0 0 0 0 0 0 0 0 127 0" result="hardAlpha"/>
<feOffset dy="1"/>
<feGaussianBlur stdDeviation="1"/>
<feColorMatrix type="matrix" values="0 0 0 0 0.145098 0 0 0 0 0.372549 0 0 0 0 0.678431 0 0 0 0.1 0"/>
<feBlend mode="normal" in2="BackgroundImageFix" result="effect1_dropShadow_122_895"/>
<feColorMatrix in="SourceAlpha" type="matrix" values="0 0 0 0 0 0 0 0 0 0 0 0 0 0 0 0 0 0 127 0" result="hardAlpha"/>
<feOffset dy="4"/>
<feGaussianBlur stdDeviation="2"/>
<feColorMatrix type="matrix" values="0 0 0 0 0.145098 0 0 0 0 0.372549 0 0 0 0 0.678431 0 0 0 0.09 0"/>
<feBlend mode="normal" in2="effect1_dropShadow_122_895" result="effect2_dropShadow_122_895"/>
<feColorMatrix in="SourceAlpha" type="matrix" values="0 0 0 0 0 0 0 0 0 0 0 0 0 0 0 0 0 0 127 0" result="hardAlpha"/>
<feOffset dy="10"/>
<feGaussianBlur stdDeviation="3"/>
<feColorMatrix type="matrix" values="0 0 0 0 0.145098 0 0 0 0 0.372549 0 0 0 0 0.678431 0 0 0 0.05 0"/>
<feBlend mode="normal" in2="effect2_dropShadow_122_895" result="effect3_dropShadow_122_895"/>
<feColorMatrix in="SourceAlpha" type="matrix" values="0 0 0 0 0 0 0 0 0 0 0 0 0 0 0 0 0 0 127 0" result="hardAlpha"/>
<feOffset dy="17"/>
<feGaussianBlur stdDeviation="3.5"/>
<feColorMatrix type="matrix" values="0 0 0 0 0.145098 0 0 0 0 0.372549 0 0 0 0 0.678431 0 0 0 0.01 0"/>
<feBlend mode="normal" in2="effect3_dropShadow_122_895" result="effect4_dropShadow_122_895"/>
<feBlend mode="normal" in="SourceGraphic" in2="effect4_dropShadow_122_895" result="shape"/>
</filter>
<filter id="filter5_b_122_895" x="76.2" y="94.2" width="114.6" height="59.6" filterUnits="userSpaceOnUse" color-interpolation-filters="sRGB">
<feFlood flood-opacity="0" result="BackgroundImageFix"/>
<feGaussianBlur in="BackgroundImageFix" stdDeviation="3.9"/>
<feComposite in2="SourceAlpha" operator="in" result="effect1_backgroundBlur_122_895"/>
<feBlend mode="normal" in="SourceGraphic" in2="effect1_backgroundBlur_122_895" result="shape"/>
</filter>
<filter id="filter6_b_122_895" x="271.2" y="94.2" width="129.6" height="59.6" filterUnits="userSpaceOnUse" color-interpolation-filters="sRGB">
<feFlood flood-opacity="0" result="BackgroundImageFix"/>
<feGaussianBlur in="BackgroundImageFix" stdDeviation="3.9"/>
<feComposite in2="SourceAlpha" operator="in" result="effect1_backgroundBlur_122_895"/>
<feBlend mode="normal" in="SourceGraphic" in2="effect1_backgroundBlur_122_895" result="shape"/>
</filter>
<filter id="filter7_b_122_895" x="389.2" y="94.2" width="104.6" height="59.6" filterUnits="userSpaceOnUse" color-interpolation-filters="sRGB">
<feFlood flood-opacity="0" result="BackgroundImageFix"/>
<feGaussianBlur in="BackgroundImageFix" stdDeviation="3.9"/>
<feComposite in2="SourceAlpha" operator="in" result="effect1_backgroundBlur_122_895"/>
<feBlend mode="normal" in="SourceGraphic" in2="effect1_backgroundBlur_122_895" result="shape"/>
</filter>
<clipPath id="clip0_122_895">
<rect x="25" y="61" width="216" height="31" rx="8" fill="white"/>
</clipPath>
<clipPath id="clip1_122_895">
<rect x="279" y="61" width="114" height="31" rx="8" fill="white"/>
</clipPath>
<clipPath id="clip2_122_895">
<rect x="397" y="61" width="89" height="31" rx="8" fill="white"/>
</clipPath>
<clipPath id="clip3_122_895">
<rect x="251" y="61" width="17" height="31" rx="8" fill="white"/>
</clipPath>
</defs>
</svg>
